<ttFont>
<head>
    <!-- Most of this table will be recalculated by the compiler -->
    <tableVersion value="1.0"/>
    <fontRevision value="2.2"/>
    <checkSumAdjustment value="0x52b2a836"/>
    <magicNumber value="0x5f0f3cf5"/>
    <flags value="00000000 00000101"/>
    <unitsPerEm value="1000"/>
    <created value="Mon Jun 22 21:16:36 2020"/>
    <modified value="Mon Jun 22 22:24:10 2020"/>
    <xMin value="-207"/>
    <yMin value="-295"/>
    <xMax value="1433"/>
    <yMax value="1086"/>
    <macStyle value="00000000 00000010"/>
    <lowestRecPPEM value="9"/>
    <fontDirectionHint value="2"/>
    <indexToLocFormat value="0"/>
    <glyphDataFormat value="0"/>
  </head>
    <TTGlyph name=".notdef" xMin="0" yMin="-200" xMax="500" yMax="800">
      <contour>
        <pt x="0" y="-200" on="1"/>
        <pt x="0" y="800" on="1"/>
        <pt x="500" y="800" on="1"/>
        <pt x="500" y="-200" on="1"/>
      </contour>
      <contour>
        <pt x="250" y="360" on="1"/>
        <pt x="429" y="750" on="1"/>
        <pt x="71" y="750" on="1"/>
      </contour>
      <contour>
        <pt x="50" y="-76" on="1"/>
        <pt x="222" y="300" on="1"/>
        <pt x="50" y="676" on="1"/>
      </contour>
      <contour>
        <pt x="450" y="-76" on="1"/>
        <pt x="450" y="676" on="1"/>
        <pt x="278" y="300" on="1"/>
      </contour>
      <contour>
        <pt x="71" y="-150" on="1"/>
        <pt x="429" y="-150" on="1"/>
        <pt x="250" y="240" on="1"/>
      </contour>
    </TTGlyph>
    <TTGlyph name="A" xMin="-54" yMin="0" xMax="631" yMax="657">
      <contour>
        <pt x="-54" y="0" on="1"/>
        <pt x="-41" y="52" on="1"/>
        <pt x="29" y="52" on="1"/>
        <pt x="403" y="657" on="1"/>
        <pt x="476" y="657" on="1"/>
        <pt x="546" y="52" on="1"/>
        <pt x="631" y="52" on="1"/>
        <pt x="618" y="0" on="1"/>
        <pt x="345" y="0" on="1"/>
        <pt x="358" y="52" on="1"/>
        <pt x="461" y="52" on="1"/>
        <pt x="441" y="235" on="1"/>
        <pt x="206" y="235" on="1"/>
        <pt x="97" y="52" on="1"/>
        <pt x="185" y="52" on="1"/>
        <pt x="172" y="0" on="1"/>
      </contour>
      <contour>
        <pt x="234" y="282" on="1"/>
        <pt x="436" y="282" on="1"/>
        <pt x="407" y="566" on="1"/>
        <pt x="404" y="566" on="1"/>
      </contour>
    </TTGlyph>
    <TTGlyph name="AE" xMin="-73" yMin="0" xMax="994" yMax="653">
      <contour>
        <pt x="-73" y="0" on="1"/>
        <pt x="-61" y="52" on="1"/>
        <pt x="15" y="52" on="1"/>
        <pt x="470" y="601" on="1"/>
        <pt x="370" y="601" on="1"/>
        <pt x="382" y="653" on="1"/>
        <pt x="994" y="653" on="1"/>
        <pt x="943" y="448" on="1"/>
        <pt x="903" y="448" on="1"/>
        <pt x="905" y="498" on="0"/>
        <pt x="904" y="559" on="0"/>
        <pt x="891" y="591" on="0"/>
        <pt x="863" y="601" on="0"/>
        <pt x="838" y="601" on="1"/>
        <pt x="629" y="601" on="1"/>
        <pt x="569" y="358" on="1"/>
        <pt x="655" y="358" on="1"/>
        <pt x="677" y="358" on="0"/>
        <pt x="707" y="364" on="0"/>
        <pt x="729" y="385" on="0"/>
        <pt x="749" y="424" on="0"/>
        <pt x="763" y="458" on="1"/>
        <pt x="804" y="458" on="1"/>
        <pt x="742" y="209" on="1"/>
        <pt x="702" y="209" on="1"/>
        <pt x="706" y="244" on="0"/>
        <pt x="707" y="285" on="0"/>
        <pt x="696" y="307" on="0"/>
        <pt x="671" y="313" on="0"/>
        <pt x="649" y="313" on="1"/>
        <pt x="558" y="313" on="1"/>
        <pt x="493" y="52" on="1"/>
        <pt x="699" y="52" on="1"/>
        <pt x="727" y="52" on="0"/>
        <pt x="764" y="64" on="0"/>
        <pt x="796" y="101" on="0"/>
        <pt x="830" y="169" on="0"/>
        <pt x="854" y="224" on="1"/>
        <pt x="896" y="224" on="1"/>
        <pt x="840" y="0" on="1"/>
        <pt x="286" y="0" on="1"/>
        <pt x="298" y="52" on="1"/>
        <pt x="408" y="52" on="1"/>
        <pt x="456" y="245" on="1"/>
        <pt x="246" y="245" on="1"/>
        <pt x="88" y="52" on="1"/>
        <pt x="178" y="52" on="1"/>
        <pt x="166" y="0" on="1"/>
      </contour>
      <contour>
        <pt x="284" y="292" on="1"/>
        <pt x="468" y="292" on="1"/>
        <pt x="545" y="604" on="1"/>
        <pt x="540" y="604" on="1"/>
      </contour>
    </TTGlyph>
    <TTGlyph name="AEacute" xMin="-73" yMin="0" xMax="994" yMax="934">
      <component glyphName="AE" x="0" y="0" flags="0x204"/>
      <component glyphName="acute" x="479" y="211" flags="0x4"/>
    </TTGlyph>
    <TTGlyph name="Aacute" xMin="-54" yMin="0" xMax="631" yMax="934">
      <component glyphName="A" x="0" y="0" flags="0x204"/>
      <component glyphName="acute" x="290" y="211" flags="0x4"/>
    </TTGlyph>
    <TTGlyph name="Abreve" xMin="-54" yMin="0" xMax="631" yMax="895">
      <component glyphName="A" x="0" y="0" flags="0x204"/>
      <component glyphName="breve" x="206" y="211" flags="0x4"/>
    </TTGlyph>
    <TTGlyph name="Acircumflex" xMin="-54" yMin="0" xMax="631" yMax="920">
      <component glyphName="A" x="0" y="0" flags="0x204"/>
      <component glyphName="circumflex" x="221" y="211" flags="0x4"/>
    </TTGlyph>
    <TTGlyph name="Adieresis" xMin="-54" yMin="0" xMax="631" yMax="873">
      <component glyphName="A" x="0" y="0" flags="0x204"/>
      <component glyphName="dieresis" x="214" y="211" flags="0x4"/>
    </TTGlyph>
    <TTGlyph name="Agrave" xMin="-54" yMin="0" xMax="631" yMax="934">
      <component glyphName="A" x="0" y="0" flags="0x204"/>
      <component glyphName="grave" x="216" y="211" flags="0x4"/>
    </TTGlyph>
    <TTGlyph name="Amacron" xMin="-54" yMin="0" xMax="631" yMax="820">
      <component glyphName="A" x="0" y="0" flags="0x204"/>
      <component glyphName="macron" x="220" y="211" flags="0x4"/>
    </TTGlyph>
    <TTGlyph name="Aogonek" xMin="-54" yMin="-238" xMax="631" yMax="657">
      <contour>
        <pt x="-54" y="0" on="1"/>
        <pt x="-41" y="52" on="1"/>
        <pt x="29" y="52" on="1"/>
        <pt x="403" y="657" on="1"/>
        <pt x="476" y="657" on="1"/>
        <pt x="546" y="52" on="1"/>
        <pt x="631" y="52" on="1"/>
        <pt x="618" y="0" on="1"/>
        <pt x="528" y="0" on="1"/>
        <pt x="516" y="-9" on="1"/>
        <pt x="448" y="-63" on="0"/>
        <pt x="406" y="-123" on="0"/>
        <pt x="406" y="-148" on="1"/>
        <pt x="406" y="-167" on="0"/>
        <pt x="430" y="-193" on="0"/>
        <pt x="455" y="-193" on="1"/>
        <pt x="471" y="-193" on="0"/>
        <pt x="500" y="-181" on="0"/>
        <pt x="512" y="-174" on="1"/>
        <pt x="528" y="-203" on="1"/>
        <pt x="508" y="-219" on="0"/>
        <pt x="460" y="-238" on="0"/>
        <pt x="434" y="-238" on="1"/>
        <pt x="397" y="-238" on="0"/>
        <pt x="342" y="-196" on="0"/>
        <pt x="342" y="-157" on="1"/>
        <pt x="342" y="-120" on="0"/>
        <pt x="401" y="-51" on="0"/>
        <pt x="470" y="-5" on="1"/>
        <pt x="477" y="0" on="1"/>
        <pt x="345" y="0" on="1"/>
        <pt x="358" y="52" on="1"/>
        <pt x="461" y="52" on="1"/>
        <pt x="441" y="235" on="1"/>
        <pt x="206" y="235" on="1"/>
        <pt x="97" y="52" on="1"/>
        <pt x="185" y="52" on="1"/>
        <pt x="172" y="0" on="1"/>
      </contour>
      <contour>
        <pt x="234" y="282" on="1"/>
        <pt x="436" y="282" on="1"/>
        <pt x="407" y="566" on="1"/>
        <pt x="404" y="566" on="1"/>
      </contour>
    </TTGlyph>
    <TTGlyph name="Aring" xMin="-54" yMin="0" xMax="631" yMax="848">
      <contour>
        <pt x="-54" y="0" on="1"/>
        <pt x="-41" y="52" on="1"/>
        <pt x="29" y="52" on="1"/>
        <pt x="402" y="656" on="1"/>
        <pt x="381" y="666" on="0"/>
        <pt x="356" y="706" on="0"/>
        <pt x="356" y="733" on="1"/>
        <pt x="356" y="777" on="0"/>
        <pt x="419" y="848" on="0"/>
        <pt x="471" y="848" on="1"/>
        <pt x="511" y="848" on="0"/>
        <pt x="563" y="801" on="0"/>
        <pt x="563" y="762" on="1"/>
        <pt x="563" y="725" on="0"/>
        <pt x="517" y="660" on="0"/>
        <pt x="477" y="651" on="1"/>
        <pt x="546" y="52" on="1"/>
        <pt x="631" y="52" on="1"/>
        <pt x="618" y="0" on="1"/>
        <pt x="345" y="0" on="1"/>
        <pt x="358" y="52" on="1"/>
        <pt x="461" y="52" on="1"/>
        <pt x="441" y="235" on="1"/>
        <pt x="206" y="235" on="1"/>
        <pt x="97" y="52" on="1"/>
        <pt x="185" y="52" on="1"/>
        <pt x="172" y="0" on="1"/>
      </contour>
      <contour>
        <pt x="451" y="679" on="1"/>
        <pt x="483" y="679" on="0"/>
        <pt x="518" y="735" on="0"/>
        <pt x="518" y="764" on="1"/>
        <pt x="518" y="788" on="0"/>
        <pt x="492" y="816" on="0"/>
        <pt x="468" y="816" on="1"/>
        <pt x="436" y="816" on="0"/>
        <pt x="401" y="760" on="0"/>
        <pt x="401" y="731" on="1"/>
        <pt x="401" y="707" on="0"/>
        <pt x="428" y="679" on="0"/>
      </contour>
      <contour>
        <pt x="234" y="282" on="1"/>
        <pt x="436" y="282" on="1"/>
        <pt x="407" y="566" on="1"/>
        <pt x="404" y="566" on="1"/>
      </contour>
    </TTGlyph>
    <TTGlyph name="Aringacute" xMin="-54" yMin="0" xMax="652" yMax="1086">
      <component glyphName="Aring" x="0" y="0" flags="0x204"/>
      <component glyphName="acute" x="330" y="363" flags="0x4"/>
    </TTGlyph>
    <TTGlyph name="Atilde" xMin="-54" yMin="0" xMax="639" yMax="872">
      <component glyphName="A" x="0" y="0" flags="0x204"/>
      <component glyphName="tilde" x="216" y="211" flags="0x4"/>
    </TTGlyph>
    <TTGlyph name="B" xMin="-22" yMin="0" xMax="622" yMax="653">
      <contour>
        <pt x="-22" y="0" on="1"/>
        <pt x="-10" y="52" on="1"/>
        <pt x="100" y="52" on="1"/>
        <pt x="236" y="601" on="1"/>
        <pt x="125" y="601" on="1"/>
        <pt x="138" y="653" on="1"/>
        <pt x="404" y="653" on="1"/>
        <pt x="467" y="653" on="0"/>
        <pt x="551" y="629" on="0"/>
        <pt x="601" y="591" on="0"/>
        <pt x="622" y="541" on="0"/>
        <pt x="622" y="515" on="1"/>
        <pt x="622" y="491" on="0"/>
        <pt x="604" y="436" on="0"/>
        <pt x="559" y="386" on="0"/>
        <pt x="479" y="348" on="0"/>
        <pt x="417" y="343" on="1"/>
        <pt x="416" y="339" on="1"/>
        <pt x="497" y="324" on="0"/>
        <pt x="573" y="249" on="0"/>
        <pt x="573" y="198" on="1"/>
        <pt x="573" y="163" on="0"/>
        <pt x="548" y="100" on="0"/>
        <pt x="525" y="77" on="1"/>
        <pt x="489" y="41" on="0"/>
        <pt x="360" y="0" on="0"/>
        <pt x="258" y="0" on="1"/>
      </contour>
      <contour>
        <pt x="263" y="367" on="1"/>
        <pt x="351" y="367" on="1"/>
        <pt x="439" y="367" on="0"/>
        <pt x="531" y="455" on="0"/>
        <pt x="531" y="514" on="1"/>
        <pt x="531" y="554" on="0"/>
        <pt x="475" y="601" on="0"/>
        <pt x="404" y="601" on="1"/>
        <pt x="321" y="601" on="1"/>
      </contour>
      <contour>
        <pt x="185" y="52" on="1"/>
        <pt x="270" y="52" on="1"/>
        <pt x="332" y="52" on="0"/>
        <pt x="415" y="78" on="0"/>
        <pt x="464" y="121" on="0"/>
        <pt x="484" y="178" on="0"/>
        <pt x="484" y="210" on="1"/>
        <pt x="484" y="258" on="0"/>
        <pt x="408" y="319" on="0"/>
        <pt x="329" y="319" on="1"/>
        <pt x="252" y="319" on="1"/>
      </contour>
    </TTGlyph>
    <TTGlyph name="C" xMin="69" yMin="-15" xMax="700" yMax="668">
      <contour>
        <pt x="322" y="-15" on="1"/>
        <pt x="257" y="-15" on="0"/>
        <pt x="162" y="27" on="0"/>
        <pt x="100" y="99" on="0"/>
        <pt x="69" y="196" on="0"/>
        <pt x="69" y="250" on="1"/>
        <pt x="69" y="331" on="0"/>
        <pt x="126" y="483" on="0"/>
        <pt x="223" y="598" on="0"/>
        <pt x="356" y="668" on="0"/>
        <pt x="431" y="668" on="1"/>
        <pt x="490" y="668" on="0"/>
        <pt x="581" y="627" on="0"/>
        <pt x="609" y="587" on="1"/>
        <pt x="647" y="665" on="1"/>
        <pt x="700" y="665" on="1"/>
        <pt x="640" y="421" on="1"/>
        <pt x="594" y="421" on="1"/>
        <pt x="589" y="528" on="0"/>
        <pt x="497" y="614" on="0"/>
        <pt x="428" y="614" on="1"/>
        <pt x="362" y="614" on="0"/>
        <pt x="261" y="545" on="0"/>
        <pt x="194" y="439" on="0"/>
        <pt x="159" y="309" on="0"/>
        <pt x="159" y="249" on="1"/>
        <pt x="159" y="150" on="0"/>
        <pt x="252" y="41" on="0"/>
        <pt x="333" y="41" on="1"/>
        <pt x="377" y="41" on="0"/>
        <pt x="448" y="75" on="0"/>
        <pt x="504" y="133" on="0"/>
        <pt x="550" y="209" on="0"/>
        <pt x="569" y="251" on="1"/>
        <pt x="618" y="231" on="1"/>
        <pt x="598" y="181" on="0"/>
        <pt x="543" y="92" on="0"/>
        <pt x="471" y="25" on="0"/>
        <pt x="379" y="-15" on="0"/>
      </contour>
    </TTGlyph>
    <TTGlyph name="Cacute" xMin="69" yMin="-15" xMax="700" yMax="934">
      <component glyphName="C" x="0" y="0" flags="0x204"/>
      <component glyphName="acute" x="292" y="211" flags="0x4"/>
    </TTGlyph>
    <TTGlyph name="Ccaron" xMin="69" yMin="-15" xMax="700" yMax="929">
      <component glyphName="C" x="0" y="0" flags="0x204"/>
      <component glyphName="caron" x="220" y="211" flags="0x4"/>
    </TTGlyph>
    <TTGlyph name="Ccedilla" xMin="69" yMin="-238" xMax="700" yMax="668">
      <contour>
        <pt x="255" y="-238" on="1"/>
        <pt x="227" y="-238" on="0"/>
        <pt x="170" y="-217" on="0"/>
        <pt x="148" y="-196" on="1"/>
        <pt x="172" y="-166" on="1"/>
        <pt x="191" y="-180" on="0"/>
        <pt x="228" y="-197" on="0"/>
        <pt x="252" y="-197" on="1"/>
        <pt x="274" y="-197" on="0"/>
        <pt x="306" y="-173" on="0"/>
        <pt x="306" y="-150" on="1"/>
        <pt x="306" y="-135" on="0"/>
        <pt x="288" y="-117" on="0"/>
        <pt x="260" y="-109" on="0"/>
        <pt x="227" y="-108" on="0"/>
        <pt x="213" y="-109" on="1"/>
        <pt x="203" y="-89" on="1"/>
        <pt x="293" y="-14" on="1"/>
        <pt x="236" y="-9" on="0"/>
        <pt x="151" y="36" on="0"/>
        <pt x="96" y="106" on="0"/>
        <pt x="69" y="199" on="0"/>
        <pt x="69" y="250" on="1"/>
        <pt x="69" y="331" on="0"/>
        <pt x="126" y="483" on="0"/>
        <pt x="223" y="598" on="0"/>
        <pt x="356" y="668" on="0"/>
        <pt x="431" y="668" on="1"/>
        <pt x="490" y="668" on="0"/>
        <pt x="581" y="627" on="0"/>
        <pt x="609" y="587" on="1"/>
        <pt x="647" y="665" on="1"/>
        <pt x="700" y="665" on="1"/>
        <pt x="640" y="421" on="1"/>
        <pt x="594" y="421" on="1"/>
        <pt x="589" y="528" on="0"/>
        <pt x="497" y="614" on="0"/>
        <pt x="428" y="614" on="1"/>
        <pt x="362" y="614" on="0"/>
        <pt x="261" y="545" on="0"/>
        <pt x="194" y="439" on="0"/>
        <pt x="159" y="309" on="0"/>
        <pt x="159" y="249" on="1"/>
        <pt x="159" y="150" on="0"/>
        <pt x="252" y="41" on="0"/>
        <pt x="333" y="41" on="1"/>
        <pt x="377" y="41" on="0"/>
        <pt x="448" y="75" on="0"/>
        <pt x="504" y="133" on="0"/>
        <pt x="550" y="209" on="0"/>
        <pt x="569" y="251" on="1"/>
        <pt x="618" y="231" on="1"/>
        <pt x="599" y="184" on="0"/>
        <pt x="548" y="98" on="0"/>
        <pt x="481" y="32" on="0"/>
        <pt x="397" y="-10" on="0"/>
        <pt x="345" y="-14" on="1"/>
        <pt x="279" y="-68" on="1"/>
        <pt x="279" y="-71" on="1"/>
        <pt x="316" y="-75" on="0"/>
        <pt x="363" y="-114" on="0"/>
        <pt x="363" y="-145" on="1"/>
        <pt x="363" y="-183" on="0"/>
        <pt x="304" y="-238" on="0"/>
      </contour>
    </TTGlyph>
    <TTGlyph name="Cdotaccent" xMin="69" yMin="-15" xMax="700" yMax="854">
      <component glyphName="C" x="0" y="0" flags="0x204"/>
      <component glyphName="dotaccent" x="287" y="211" flags="0x4"/>
    </TTGlyph>
    <TTGlyph name="D" xMin="-22" yMin="0" xMax="685" yMax="653">
      <contour>
        <pt x="-22" y="0" on="1"/>
        <pt x="-10" y="52" on="1"/>
        <pt x="100" y="52" on="1"/>
        <pt x="236" y="601" on="1"/>
        <pt x="125" y="601" on="1"/>
        <pt x="138" y="653" on="1"/>
        <pt x="386" y="653" on="1"/>
        <pt x="461" y="653" on="0"/>
        <pt x="574" y="615" on="0"/>
        <pt x="648" y="549" on="0"/>
        <pt x="685" y="457" on="0"/>
        <pt x="685" y="403" on="1"/>
        <pt x="685" y="329" on="0"/>
        <pt x="623" y="176" on="0"/>
        <pt x="564" y="118" on="1"/>
        <pt x="510" y="64" on="0"/>
        <pt x="351" y="0" on="0"/>
        <pt x="233" y="0" on="1"/>
      </contour>
      <contour>
        <pt x="184" y="52" on="1"/>
        <pt x="233" y="52" on="1"/>
        <pt x="314" y="52" on="0"/>
        <pt x="436" y="89" on="0"/>
        <pt x="480" y="133" on="1"/>
        <pt x="506" y="159" on="0"/>
        <pt x="547" y="226" on="0"/>
        <pt x="576" y="301" on="0"/>
        <pt x="591" y="382" on="0"/>
        <pt x="591" y="421" on="1"/>
        <pt x="591" y="508" on="0"/>
        <pt x="487" y="601" on="0"/>
        <pt x="379" y="601" on="1"/>
        <pt x="321" y="601" on="1"/>
      </contour>
    </TTGlyph>
    <TTGlyph name="Dcaron" xMin="-22" yMin="0" xMax="685" yMax="929">
      <component glyphName="D" x="0" y="0" flags="0x204"/>
      <component glyphName="caron" x="224" y="211" flags="0x4"/>
    </TTGlyph>
    <TTGlyph name="Dcroat" xMin="-22" yMin="0" xMax="685" yMax="653">
      <component glyphName="Eth" x="0" y="0" flags="0x204"/>
    </TTGlyph>
    <TTGlyph name="E" xMin="-22" yMin="0" xMax="686" yMax="653">
      <contour>
        <pt x="-22" y="0" on="1"/>
        <pt x="-10" y="52" on="1"/>
        <pt x="100" y="52" on="1"/>
        <pt x="236" y="601" on="1"/>
        <pt x="125" y="601" on="1"/>
        <pt x="138" y="653" on="1"/>
        <pt x="686" y="653" on="1"/>
        <pt x="635" y="448" on="1"/>
        <pt x="595" y="448" on="1"/>
        <pt x="597" y="498" on="0"/>
        <pt x="596" y="559" on="0"/>
        <pt x="583" y="591" on="0"/>
        <pt x="555" y="601" on="0"/>
        <pt x="530" y="601" on="1"/>
        <pt x="321" y="601" on="1"/>
        <pt x="261" y="358" on="1"/>
        <pt x="347" y="358" on="1"/>
        <pt x="369" y="358" on="0"/>
        <pt x="399" y="364" on="0"/>
        <pt x="421" y="385" on="0"/>
        <pt x="441" y="424" on="0"/>
        <pt x="455" y="458" on="1"/>
        <pt x="496" y="458" on="1"/>
        <pt x="434" y="209" on="1"/>
        <pt x="394" y="209" on="1"/>
        <pt x="398" y="244" on="0"/>
        <pt x="399" y="285" on="0"/>
        <pt x="388" y="307" on="0"/>
        <pt x="363" y="313" on="0"/>
        <pt x="341" y="313" on="1"/>
        <pt x="250" y="313" on="1"/>
        <pt x="185" y="52" on="1"/>
        <pt x="391" y="52" on="1"/>
        <pt x="419" y="52" on="0"/>
        <pt x="456" y="64" on="0"/>
        <pt x="488" y="101" on="0"/>
        <pt x="522" y="169" on="0"/>
        <pt x="546" y="224" on="1"/>
        <pt x="588" y="224" on="1"/>
        <pt x="532" y="0" on="1"/>
      </contour>
    </TTGlyph>
    <TTGlyph name="Eacute" xMin="-22" yMin="0" xMax="686" yMax="934">
      <component glyphName="E" x="0" y="0" flags="0x204"/>
      <component glyphName="acute" x="294" y="211" flags="0x4"/>
    </TTGlyph>
    <TTGlyph name="Ebreve" xMin="-22" yMin="0" xMax="686" yMax="895">
      <component glyphName="E" x="0" y="0" flags="0x204"/>
      <component glyphName="breve" x="211" y="211" flags="0x4"/>
    </TTGlyph>
    <TTGlyph name="Ecaron" xMin="-22" yMin="0" xMax="686" yMax="929">
      <component glyphName="E" x="0" y="0" flags="0x204"/>
      <component glyphName="caron" x="223" y="211" flags="0x4"/>
    </TTGlyph>
    <TTGlyph name="Ecircumflex" xMin="-22" yMin="0" xMax="686" yMax="920">
      <component glyphName="E" x="0" y="0" flags="0x204"/>
      <component glyphName="circumflex" x="226" y="211" flags="0x4"/>
    </TTGlyph>
    <TTGlyph name="Edieresis" xMin="-22" yMin="0" xMax="686" yMax="873">
      <component glyphName="E" x="0" y="0" flags="0x204"/>
      <component glyphName="dieresis" x="219" y="211" flags="0x4"/>
    </TTGlyph>
    <TTGlyph name="Edotaccent" xMin="-22" yMin="0" xMax="686" yMax="854">
      <component glyphName="E" x="0" y="0" flags="0x204"/>
      <component glyphName="dotaccent" x="290" y="211" flags="0x4"/>
    </TTGlyph>
    <TTGlyph name="Egrave" xMin="-22" yMin="0" xMax="686" yMax="934">
      <component glyphName="E" x="0" y="0" flags="0x204"/>
      <component glyphName="grave" x="221" y="211" flags="0x4"/>
    </TTGlyph>
    <TTGlyph name="Emacron" xMin="-22" yMin="0" xMax="686" yMax="820">
      <component glyphName="E" x="0" y="0" flags="0x204"/>
      <component glyphName="macron" x="225" y="211" flags="0x4"/>
    </TTGlyph>
    <TTGlyph name="Eogonek" xMin="-22" yMin="-238" xMax="686" yMax="653">
      <contour>
        <pt x="-22" y="0" on="1"/>
        <pt x="-10" y="52" on="1"/>
        <pt x="100" y="52" on="1"/>
        <pt x="236" y="601" on="1"/>
        <pt x="125" y="601" on="1"/>
        <pt x="138" y="653" on="1"/>
        <pt x="686" y="653" on="1"/>
        <pt x="635" y="448" on="1"/>
        <pt x="595" y="448" on="1"/>
        <pt x="597" y="498" on="0"/>
        <pt x="596" y="559" on="0"/>
        <pt x="583" y="591" on="0"/>
        <pt x="555" y="601" on="0"/>
        <pt x="530" y="601" on="1"/>
        <pt x="321" y="601" on="1"/>
        <pt x="261" y="358" on="1"/>
        <pt x="347" y="358" on="1"/>
        <pt x="369" y="358" on="0"/>
        <pt x="399" y="364" on="0"/>
        <pt x="421" y="385" on="0"/>
        <pt x="441" y="424" on="0"/>
        <pt x="455" y="458" on="1"/>
        <pt x="496" y="458" on="1"/>
        <pt x="434" y="209" on="1"/>
        <pt x="394" y="209" on="1"/>
        <pt x="398" y="244" on="0"/>
        <pt x="399" y="285" on="0"/>
        <pt x="388" y="307" on="0"/>
        <pt x="363" y="313" on="0"/>
        <pt x="341" y="313" on="1"/>
        <pt x="250" y="313" on="1"/>
        <pt x="185" y="52" on="1"/>
        <pt x="391" y="52" on="1"/>
        <pt x="419" y="52" on="0"/>
        <pt x="456" y="64" on="0"/>
        <pt x="488" y="101" on="0"/>
        <pt x="522" y="169" on="0"/>
        <pt x="546" y="224" on="1"/>
        <pt x="588" y="224" on="1"/>
        <pt x="532" y="0" on="1"/>
        <pt x="493" y="0" on="1"/>
        <pt x="481" y="-9" on="1"/>
        <pt x="413" y="-63" on="0"/>
        <pt x="371" y="-123" on="0"/>
        <pt x="371" y="-148" on="1"/>
        <pt x="371" y="-167" on="0"/>
        <pt x="395" y="-193" on="0"/>
        <pt x="420" y="-193" on="1"/>
        <pt x="436" y="-193" on="0"/>
        <pt x="465" y="-181" on="0"/>
        <pt x="477" y="-174" on="1"/>
        <pt x="493" y="-203" on="1"/>
        <pt x="473" y="-219" on="0"/>
        <pt x="425" y="-238" on="0"/>
        <pt x="399" y="-238" on="1"/>
        <pt x="362" y="-238" on="0"/>
        <pt x="307" y="-196" on="0"/>
        <pt x="307" y="-157" on="1"/>
        <pt x="307" y="-120" on="0"/>
        <pt x="366" y="-51" on="0"/>
        <pt x="435" y="-5" on="1"/>
        <pt x="442" y="0" on="1"/>
      </contour>
    </TTGlyph>
    <TTGlyph name="Eth" xMin="-22" yMin="0" xMax="685" yMax="653">
      <contour>
        <pt x="-22" y="0" on="1"/>
        <pt x="-10" y="52" on="1"/>
        <pt x="100" y="52" on="1"/>
        <pt x="165" y="315" on="1"/>
        <pt x="55" y="315" on="1"/>
        <pt x="69" y="367" on="1"/>
        <pt x="178" y="367" on="1"/>
        <pt x="236" y="601" on="1"/>
        <pt x="125" y="601" on="1"/>
        <pt x="138" y="653" on="1"/>
        <pt x="386" y="653" on="1"/>
        <pt x="461" y="653" on="0"/>
        <pt x="574" y="615" on="0"/>
        <pt x="648" y="549" on="0"/>
        <pt x="685" y="457" on="0"/>
        <pt x="685" y="403" on="1"/>
        <pt x="685" y="329" on="0"/>
        <pt x="623" y="176" on="0"/>
        <pt x="564" y="118" on="1"/>
        <pt x="510" y="64" on="0"/>
        <pt x="351" y="0" on="0"/>
        <pt x="233" y="0" on="1"/>
      </contour>
      <contour>
        <pt x="184" y="52" on="1"/>
        <pt x="233" y="52" on="1"/>
        <pt x="314" y="52" on="0"/>
        <pt x="436" y="89" on="0"/>
        <pt x="480" y="133" on="1"/>
        <pt x="506" y="159" on="0"/>
        <pt x="547" y="226" on="0"/>
        <pt x="576" y="301" on="0"/>
        <pt x="591" y="382" on="0"/>
        <pt x="591" y="421" on="1"/>
        <pt x="591" y="508" on="0"/>
        <pt x="487" y="601" on="0"/>
        <pt x="379" y="601" on="1"/>
        <pt x="321" y="601" on="1"/>
        <pt x="263" y="367" on="1"/>
        <pt x="403" y="367" on="1"/>
        <pt x="390" y="315" on="1"/>
        <pt x="250" y="315" on="1"/>
      </contour>
    </TTGlyph>
    <TTGlyph name="Euro" xMin="35" yMin="-16" xMax="652" yMax="643">
      <contour>
        <pt x="35" y="220" on="1"/>
        <pt x="46" y="268" on="1"/>
        <pt x="133" y="268" on="1"/>
        <pt x="134" y="290" on="0"/>
        <pt x="142" y="331" on="0"/>
        <pt x="147" y="351" on="1"/>
        <pt x="66" y="351" on="1"/>
        <pt x="77" y="398" on="1"/>
        <pt x="162" y="398" on="1"/>
        <pt x="183" y="452" on="0"/>
        <pt x="247" y="542" on="0"/>
        <pt x="327" y="607" on="0"/>
        <pt x="421" y="643" on="0"/>
        <pt x="470" y="643" on="1"/>
        <pt x="513" y="643" on="0"/>
        <pt x="580" y="619" on="0"/>
        <pt x="627" y="581" on="0"/>
        <pt x="652" y="530" on="0"/>
        <pt x="652" y="503" on="1"/>
        <pt x="652" y="471" on="0"/>
        <pt x="615" y="422" on="0"/>
        <pt x="585" y="422" on="1"/>
        <pt x="560" y="422" on="0"/>
        <pt x="531" y="452" on="0"/>
        <pt x="531" y="474" on="1"/>
        <pt x="531" y="495" on="0"/>
        <pt x="555" y="533" on="0"/>
        <pt x="576" y="544" on="1"/>
        <pt x="559" y="571" on="0"/>
        <pt x="501" y="593" on="0"/>
        <pt x="472" y="593" on="1"/>
        <pt x="430" y="593" on="0"/>
        <pt x="359" y="562" on="0"/>
        <pt x="303" y="509" on="0"/>
        <pt x="260" y="438" on="0"/>
        <pt x="246" y="398" on="1"/>
        <pt x="449" y="398" on="1"/>
        <pt x="438" y="351" on="1"/>
        <pt x="232" y="351" on="1"/>
        <pt x="227" y="330" on="0"/>
        <pt x="219" y="288" on="0"/>
        <pt x="218" y="268" on="1"/>
        <pt x="417" y="268" on="1"/>
        <pt x="406" y="220" on="1"/>
        <pt x="217" y="220" on="1"/>
        <pt x="221" y="136" on="0"/>
        <pt x="300" y="46" on="0"/>
        <pt x="365" y="46" on="1"/>
        <pt x="420" y="46" on="0"/>
        <pt x="510" y="120" on="0"/>
        <pt x="540" y="188" on="1"/>
        <pt x="584" y="172" on="1"/>
        <pt x="570" y="133" on="0"/>
        <pt x="525" y="64" on="0"/>
        <pt x="465" y="14" on="0"/>
        <pt x="390" y="-16" on="0"/>
        <pt x="347" y="-16" on="1"/>
        <pt x="249" y="-16" on="0"/>
        <pt x="133" y="112" on="0"/>
        <pt x="131" y="220" on="1"/>
      </contour>
    </TTGlyph>
    <TTGlyph name="Euro.osf" xMin="22" yMin="-16" xMax="630" yMax="561">
      <contour>
        <pt x="22" y="186" on="1"/>
        <pt x="33" y="233" on="1"/>
        <pt x="119" y="233" on="1"/>
        <pt x="120" y="252" on="0"/>
        <pt x="127" y="288" on="0"/>
        <pt x="131" y="305" on="1"/>
        <pt x="50" y="305" on="1"/>
        <pt x="62" y="353" on="1"/>
        <pt x="148" y="353" on="1"/>
        <pt x="168" y="399" on="0"/>
        <pt x="231" y="476" on="0"/>
        <pt x="309" y="531" on="0"/>
        <pt x="399" y="561" on="0"/>
        <pt x="446" y="561" on="1"/>
        <pt x="489" y="561" on="0"/>
        <pt x="558" y="538" on="0"/>
        <pt x="605" y="501" on="0"/>
        <pt x="630" y="452" on="0"/>
        <pt x="630" y="426" on="1"/>
        <pt x="630" y="395" on="0"/>
        <pt x="594" y="345" on="0"/>
        <pt x="563" y="345" on="1"/>
        <pt x="539" y="345" on="0"/>
        <pt x="510" y="375" on="0"/>
        <pt x="510" y="397" on="1"/>
        <pt x="510" y="416" on="0"/>
        <pt x="534" y="453" on="0"/>
        <pt x="555" y="463" on="1"/>
        <pt x="538" y="489" on="0"/>
        <pt x="475" y="511" on="0"/>
        <pt x="448" y="511" on="1"/>
        <pt x="368" y="511" on="0"/>
        <pt x="260" y="417" on="0"/>
        <pt x="233" y="353" on="1"/>
        <pt x="432" y="353" on="1"/>
        <pt x="421" y="305" on="1"/>
        <pt x="216" y="305" on="1"/>
        <pt x="212" y="287" on="0"/>
        <pt x="205" y="251" on="0"/>
        <pt x="204" y="233" on="1"/>
        <pt x="403" y="233" on="1"/>
        <pt x="392" y="186" on="1"/>
        <pt x="206" y="186" on="1"/>
        <pt x="213" y="117" on="0"/>
        <pt x="294" y="46" on="0"/>
        <pt x="354" y="46" on="1"/>
        <pt x="413" y="46" on="0"/>
        <pt x="502" y="118" on="0"/>
        <pt x="531" y="181" on="1"/>
        <pt x="576" y="164" on="1"/>
        <pt x="562" y="127" on="0"/>
        <pt x="517" y="62" on="0"/>
        <pt x="458" y="13" on="0"/>
        <pt x="382" y="-16" on="0"/>
        <pt x="338" y="-16" on="1"/>
        <pt x="242" y="-16" on="0"/>
        <pt x="126" y="97" on="0"/>
        <pt x="119" y="186" on="1"/>
      </contour>
    </TTGlyph>
    <TTGlyph name="Euro.tab" xMin="15" yMin="-16" xMax="571" yMax="643">
      <contour>
        <pt x="15" y="221" on="1"/>
        <pt x="27" y="268" on="1"/>
        <pt x="99" y="268" on="1"/>
        <pt x="100" y="289" on="0"/>
        <pt x="108" y="331" on="0"/>
        <pt x="112" y="350" on="1"/>
        <pt x="47" y="350" on="1"/>
        <pt x="58" y="397" on="1"/>
        <pt x="126" y="397" on="1"/>
        <pt x="145" y="451" on="0"/>
        <pt x="204" y="542" on="0"/>
        <pt x="278" y="606" on="0"/>
        <pt x="363" y="643" on="0"/>
        <pt x="409" y="643" on="1"/>
        <pt x="447" y="643" on="0"/>
        <pt x="508" y="620" on="0"/>
        <pt x="549" y="582" on="0"/>
        <pt x="571" y="533" on="0"/>
        <pt x="571" y="507" on="1"/>
        <pt x="571" y="475" on="0"/>
        <pt x="537" y="426" on="0"/>
        <pt x="507" y="426" on="1"/>
        <pt x="484" y="426" on="0"/>
        <pt x="455" y="455" on="0"/>
        <pt x="455" y="477" on="1"/>
        <pt x="455" y="498" on="0"/>
        <pt x="479" y="534" on="0"/>
        <pt x="499" y="545" on="1"/>
        <pt x="485" y="571" on="0"/>
        <pt x="435" y="593" on="0"/>
        <pt x="410" y="593" on="1"/>
        <pt x="373" y="593" on="0"/>
        <pt x="310" y="561" on="0"/>
        <pt x="260" y="508" on="0"/>
        <pt x="221" y="437" on="0"/>
        <pt x="208" y="397" on="1"/>
        <pt x="394" y="397" on="1"/>
        <pt x="382" y="350" on="1"/>
        <pt x="195" y="350" on="1"/>
        <pt x="191" y="330" on="0"/>
        <pt x="184" y="288" on="0"/>
        <pt x="182" y="268" on="1"/>
        <pt x="362" y="268" on="1"/>
        <pt x="351" y="221" on="1"/>
        <pt x="181" y="221" on="1"/>
        <pt x="183" y="135" on="0"/>
        <pt x="252" y="46" on="0"/>
        <pt x="309" y="46" on="1"/>
        <pt x="358" y="46" on="0"/>
        <pt x="433" y="110" on="0"/>
        <pt x="458" y="169" on="1"/>
        <pt x="502" y="153" on="1"/>
        <pt x="489" y="118" on="0"/>
        <pt x="450" y="56" on="0"/>
        <pt x="398" y="11" on="0"/>
        <pt x="332" y="-16" on="0"/>
        <pt x="292" y="-16" on="1"/>
        <pt x="201" y="-16" on="0"/>
        <pt x="97" y="112" on="0"/>
        <pt x="97" y="221" on="1"/>
      </contour>
    </TTGlyph>
    <TTGlyph name="F" xMin="-22" yMin="0" xMax="686" yMax="653">
      <contour>
        <pt x="-22" y="0" on="1"/>
        <pt x="-10" y="52" on="1"/>
        <pt x="100" y="52" on="1"/>
        <pt x="236" y="601" on="1"/>
        <pt x="125" y="601" on="1"/>
        <pt x="138" y="653" on="1"/>
        <pt x="686" y="653" on="1"/>
        <pt x="634" y="444" on="1"/>
        <pt x="594" y="444" on="1"/>
        <pt x="595" y="496" on="0"/>
        <pt x="592" y="559" on="0"/>
        <pt x="576" y="591" on="0"/>
        <pt x="547" y="601" on="0"/>
        <pt x="523" y="601" on="1"/>
        <pt x="321" y="601" on="1"/>
        <pt x="258" y="346" on="1"/>
        <pt x="337" y="346" on="1"/>
        <pt x="360" y="346" on="0"/>
        <pt x="390" y="353" on="0"/>
        <pt x="413" y="374" on="0"/>
        <pt x="433" y="415" on="0"/>
        <pt x="446" y="448" on="1"/>
        <pt x="487" y="448" on="1"/>
        <pt x="424" y="193" on="1"/>
        <pt x="383" y="193" on="1"/>
        <pt x="388" y="230" on="0"/>
        <pt x="389" y="273" on="0"/>
        <pt x="378" y="295" on="0"/>
        <pt x="352" y="301" on="0"/>
        <pt x="330" y="301" on="1"/>
        <pt x="247" y="301" on="1"/>
        <pt x="185" y="52" on="1"/>
        <pt x="306" y="52" on="1"/>
        <pt x="294" y="0" on="1"/>
      </contour>
    </TTGlyph>
    <TTGlyph name="G" xMin="69" yMin="-16" xMax="712" yMax="668">
      <contour>
        <pt x="300" y="-16" on="1"/>
        <pt x="244" y="-16" on="0"/>
        <pt x="157" y="27" on="0"/>
        <pt x="99" y="99" on="0"/>
        <pt x="69" y="196" on="0"/>
        <pt x="69" y="250" on="1"/>
        <pt x="69" y="332" on="0"/>
        <pt x="125" y="484" on="0"/>
        <pt x="222" y="599" on="0"/>
        <pt x="355" y="668" on="0"/>
        <pt x="431" y="668" on="1"/>
        <pt x="490" y="668" on="0"/>
        <pt x="581" y="627" on="0"/>
        <pt x="609" y="587" on="1"/>
        <pt x="647" y="665" on="1"/>
        <pt x="700" y="665" on="1"/>
        <pt x="640" y="421" on="1"/>
        <pt x="594" y="421" on="1"/>
        <pt x="589" y="528" on="0"/>
        <pt x="497" y="614" on="0"/>
        <pt x="428" y="614" on="1"/>
        <pt x="362" y="614" on="0"/>
        <pt x="261" y="545" on="0"/>
        <pt x="194" y="439" on="0"/>
        <pt x="159" y="307" on="0"/>
        <pt x="159" y="245" on="1"/>
        <pt x="159" y="144" on="0"/>
        <pt x="248" y="41" on="0"/>
        <pt x="318" y="41" on="1"/>
        <pt x="356" y="41" on="0"/>
        <pt x="420" y="72" on="0"/>
        <pt x="470" y="126" on="0"/>
        <pt x="507" y="199" on="0"/>
        <pt x="518" y="241" on="1"/>
        <pt x="525" y="269" on="1"/>
        <pt x="402" y="269" on="1"/>
        <pt x="416" y="321" on="1"/>
        <pt x="712" y="321" on="1"/>
        <pt x="699" y="269" on="1"/>
        <pt x="610" y="269" on="1"/>
        <pt x="540" y="-7" on="1"/>
        <pt x="491" y="-7" on="1"/>
        <pt x="489" y="85" on="1"/>
        <pt x="452" y="35" on="0"/>
        <pt x="356" y="-16" on="0"/>
      </contour>
    </TTGlyph>
    <TTGlyph name="Gbreve" xMin="69" yMin="-16" xMax="712" yMax="895">
      <component glyphName="G" x="0" y="0" flags="0x204"/>
      <component glyphName="breve" x="202" y="211" flags="0x4"/>
    </TTGlyph>
    <TTGlyph name="Gdotaccent" xMin="69" yMin="-16" xMax="712" yMax="854">
      <component glyphName="G" x="0" y="0" flags="0x204"/>
      <component glyphName="dotaccent" x="281" y="211" flags="0x4"/>
    </TTGlyph>
    <TTGlyph name="H" xMin="-22" yMin="0" xMax="833" yMax="653">
      <contour>
        <pt x="-22" y="0" on="1"/>
        <pt x="-10" y="52" on="1"/>
        <pt x="100" y="52" on="1"/>
        <pt x="236" y="601" on="1"/>
        <pt x="125" y="601" on="1"/>
        <pt x="138" y="653" on="1"/>
        <pt x="428" y="653" on="1"/>
        <pt x="415" y="601" on="1"/>
        <pt x="321" y="601" on="1"/>
        <pt x="262" y="361" on="1"/>
        <pt x="567" y="361" on="1"/>
        <pt x="626" y="601" on="1"/>
        <pt x="530" y="601" on="1"/>
        <pt x="543" y="653" on="1"/>
        <pt x="833" y="653" on="1"/>
        <pt x="821" y="601" on="1"/>
        <pt x="711" y="601" on="1"/>
        <pt x="575" y="52" on="1"/>
        <pt x="686" y="52" on="1"/>
        <pt x="674" y="0" on="1"/>
        <pt x="384" y="0" on="1"/>
        <pt x="396" y="52" on="1"/>
        <pt x="490" y="52" on="1"/>
        <pt x="556" y="314" on="1"/>
        <pt x="251" y="314" on="1"/>
        <pt x="185" y="52" on="1"/>
        <pt x="281" y="52" on="1"/>
        <pt x="268" y="0" on="1"/>
      </contour>
    </TTGlyph>
    <TTGlyph name="Hbar" xMin="-22" yMin="0" xMax="833" yMax="653">
      <contour>
        <pt x="-22" y="0" on="1"/>
        <pt x="-10" y="52" on="1"/>
        <pt x="100" y="52" on="1"/>
        <pt x="199" y="453" on="1"/>
        <pt x="89" y="453" on="1"/>
        <pt x="101" y="499" on="1"/>
        <pt x="211" y="499" on="1"/>
        <pt x="236" y="601" on="1"/>
        <pt x="125" y="601" on="1"/>
        <pt x="138" y="653" on="1"/>
        <pt x="428" y="653" on="1"/>
        <pt x="415" y="601" on="1"/>
        <pt x="321" y="601" on="1"/>
        <pt x="296" y="499" on="1"/>
        <pt x="601" y="499" on="1"/>
        <pt x="626" y="601" on="1"/>
        <pt x="530" y="601" on="1"/>
        <pt x="543" y="653" on="1"/>
        <pt x="833" y="653" on="1"/>
        <pt x="821" y="601" on="1"/>
        <pt x="711" y="601" on="1"/>
        <pt x="686" y="499" on="1"/>
        <pt x="795" y="499" on="1"/>
        <pt x="784" y="453" on="1"/>
        <pt x="674" y="453" on="1"/>
        <pt x="575" y="52" on="1"/>
        <pt x="686" y="52" on="1"/>
        <pt x="674" y="0" on="1"/>
        <pt x="384" y="0" on="1"/>
        <pt x="396" y="52" on="1"/>
        <pt x="490" y="52" on="1"/>
        <pt x="553" y="304" on="1"/>
        <pt x="248" y="304" on="1"/>
        <pt x="185" y="52" on="1"/>
        <pt x="281" y="52" on="1"/>
        <pt x="268" y="0" on="1"/>
      </contour>
      <contour>
        <pt x="259" y="351" on="1"/>
        <pt x="564" y="351" on="1"/>
        <pt x="589" y="453" on="1"/>
        <pt x="284" y="453" on="1"/>
      </contour>
    </TTGlyph>
    <TTGlyph name="I" xMin="-15" yMin="0" xMax="450" yMax="653">
      <contour>
        <pt x="-15" y="0" on="1"/>
        <pt x="-3" y="52" on="1"/>
        <pt x="107" y="52" on="1"/>
        <pt x="243" y="601" on="1"/>
        <pt x="132" y="601" on="1"/>
        <pt x="144" y="653" on="1"/>
        <pt x="450" y="653" on="1"/>
        <pt x="438" y="601" on="1"/>
        <pt x="328" y="601" on="1"/>
        <pt x="192" y="52" on="1"/>
        <pt x="303" y="52" on="1"/>
        <pt x="291" y="0" on="1"/>
      </contour>
    </TTGlyph>
    <TTGlyph name="Iacute" xMin="-15" yMin="0" xMax="472" yMax="934">
      <component glyphName="I" x="0" y="0" flags="0x204"/>
      <component glyphName="acute" x="150" y="211" flags="0x4"/>
    </TTGlyph>
    <TTGlyph name="Ibreve" xMin="-15" yMin="0" xMax="479" yMax="895">
      <component glyphName="I" x="0" y="0" flags="0x204"/>
      <component glyphName="breve" x="66" y="211" flags="0x4"/>
    </TTGlyph>
    <TTGlyph name="Icircumflex" xMin="-15" yMin="0" xMax="450" yMax="920">
      <component glyphName="I" x="0" y="0" flags="0x204"/>
      <component glyphName="circumflex" x="82" y="211" flags="0x4"/>
    </TTGlyph>
    <TTGlyph name="Idieresis" xMin="-15" yMin="0" xMax="470" yMax="873">
      <component glyphName="I" x="0" y="0" flags="0x204"/>
      <component glyphName="dieresis" x="74" y="211" flags="0x4"/>
    </TTGlyph>
    <TTGlyph name="Idotaccent" xMin="-15" yMin="0" xMax="450" yMax="854">
      <component glyphName="I" x="0" y="0" flags="0x204"/>
      <component glyphName="dotaccent" x="146" y="211" flags="0x4"/>
    </TTGlyph>
    <TTGlyph name="Igrave" xMin="-15" yMin="0" xMax="450" yMax="934">
      <component glyphName="I" x="0" y="0" flags="0x204"/>
      <component glyphName="grave" x="77" y="211" flags="0x4"/>
    </TTGlyph>
    <TTGlyph name="Imacron" xMin="-15" yMin="0" xMax="465" yMax="820">
      <component glyphName="I" x="0" y="0" flags="0x204"/>
      <component glyphName="macron" x="80" y="211" flags="0x4"/>
    </TTGlyph>
    <TTGlyph name="Iogonek" xMin="-15" yMin="-238" xMax="450" yMax="653">
      <contour>
        <pt x="-15" y="0" on="1"/>
        <pt x="-3" y="52" on="1"/>
        <pt x="107" y="52" on="1"/>
        <pt x="243" y="601" on="1"/>
        <pt x="132" y="601" on="1"/>
        <pt x="144" y="653" on="1"/>
        <pt x="450" y="653" on="1"/>
        <pt x="438" y="601" on="1"/>
        <pt x="328" y="601" on="1"/>
        <pt x="192" y="52" on="1"/>
        <pt x="303" y="52" on="1"/>
        <pt x="291" y="0" on="1"/>
        <pt x="183" y="0" on="1"/>
        <pt x="171" y="-9" on="1"/>
        <pt x="103" y="-63" on="0"/>
        <pt x="61" y="-123" on="0"/>
        <pt x="61" y="-148" on="1"/>
        <pt x="61" y="-167" on="0"/>
        <pt x="85" y="-193" on="0"/>
        <pt x="110" y="-193" on="1"/>
        <pt x="126" y="-193" on="0"/>
        <pt x="155" y="-181" on="0"/>
        <pt x="167" y="-174" on="1"/>
        <pt x="183" y="-203" on="1"/>
        <pt x="163" y="-219" on="0"/>
        <pt x="115" y="-238" on="0"/>
        <pt x="89" y="-238" on="1"/>
        <pt x="52" y="-238" on="0"/>
        <pt x="-3" y="-196" on="0"/>
        <pt x="-3" y="-157" on="1"/>
        <pt x="-3" y="-120" on="0"/>
        <pt x="56" y="-51" on="0"/>
        <pt x="125" y="-5" on="1"/>
        <pt x="132" y="0" on="1"/>
      </contour>
    </TTGlyph>
    <TTGlyph name="J" xMin="6" yMin="-16" xMax="614" yMax="653">
      <contour>
        <pt x="178" y="-16" on="1"/>
        <pt x="136" y="-16" on="0"/>
        <pt x="72" y="8" on="0"/>
        <pt x="28" y="46" on="0"/>
        <pt x="6" y="96" on="0"/>
        <pt x="6" y="121" on="1"/>
        <pt x="6" y="158" on="0"/>
        <pt x="49" y="214" on="0"/>
        <pt x="86" y="214" on="1"/>
        <pt x="114" y="214" on="0"/>
        <pt x="143" y="180" on="0"/>
        <pt x="143" y="158" on="1"/>
        <pt x="143" y="133" on="0"/>
        <pt x="111" y="96" on="0"/>
        <pt x="80" y="89" on="1"/>
        <pt x="87" y="65" on="0"/>
        <pt x="142" y="34" on="0"/>
        <pt x="178" y="34" on="1"/>
        <pt x="232" y="34" on="0"/>
        <pt x="295" y="110" on="0"/>
        <pt x="313" y="182" on="1"/>
        <pt x="417" y="601" on="1"/>
        <pt x="310" y="601" on="1"/>
        <pt x="323" y="653" on="1"/>
        <pt x="614" y="653" on="1"/>
        <pt x="601" y="601" on="1"/>
        <pt x="502" y="601" on="1"/>
        <pt x="395" y="171" on="1"/>
        <pt x="373" y="84" on="0"/>
        <pt x="265" y="-16" on="0"/>
      </contour>
    </TTGlyph>
    <TTGlyph name="K" xMin="-22" yMin="0" xMax="782" yMax="653">
      <contour>
        <pt x="-22" y="0" on="1"/>
        <pt x="-10" y="52" on="1"/>
        <pt x="100" y="52" on="1"/>
        <pt x="236" y="601" on="1"/>
        <pt x="125" y="601" on="1"/>
        <pt x="138" y="653" on="1"/>
        <pt x="428" y="653" on="1"/>
        <pt x="415" y="601" on="1"/>
        <pt x="321" y="601" on="1"/>
        <pt x="247" y="301" on="1"/>
        <pt x="606" y="601" on="1"/>
        <pt x="519" y="601" on="1"/>
        <pt x="532" y="653" on="1"/>
        <pt x="782" y="653" on="1"/>
        <pt x="770" y="601" on="1"/>
        <pt x="690" y="601" on="1"/>
        <pt x="413" y="377" on="1"/>
        <pt x="568" y="52" on="1"/>
        <pt x="655" y="52" on="1"/>
        <pt x="642" y="0" on="1"/>
        <pt x="368" y="0" on="1"/>
        <pt x="381" y="52" on="1"/>
        <pt x="472" y="52" on="1"/>
        <pt x="348" y="325" on="1"/>
        <pt x="229" y="227" on="1"/>
        <pt x="185" y="52" on="1"/>
        <pt x="281" y="52" on="1"/>
        <pt x="268" y="0" on="1"/>
      </contour>
    </TTGlyph>
    <TTGlyph name="L" xMin="-22" yMin="0" xMax="557" yMax="653">
      <contour>
        <pt x="-22" y="0" on="1"/>
        <pt x="-10" y="52" on="1"/>
        <pt x="100" y="52" on="1"/>
        <pt x="236" y="601" on="1"/>
        <pt x="125" y="601" on="1"/>
        <pt x="138" y="653" on="1"/>
        <pt x="436" y="653" on="1"/>
        <pt x="424" y="601" on="1"/>
        <pt x="321" y="601" on="1"/>
        <pt x="185" y="52" on="1"/>
        <pt x="363" y="52" on="1"/>
        <pt x="391" y="52" on="0"/>
        <pt x="429" y="67" on="0"/>
        <pt x="460" y="105" on="0"/>
        <pt x="492" y="173" on="0"/>
        <pt x="515" y="226" on="1"/>
        <pt x="557" y="226" on="1"/>
        <pt x="500" y="0" on="1"/>
      </contour>
    </TTGlyph>
    <TTGlyph name="Lacute" xMin="-22" yMin="0" xMax="557" yMax="934">
      <component glyphName="L" x="0" y="0" flags="0x204"/>
      <component glyphName="acute" x="147" y="211" flags="0x4"/>
    </TTGlyph>
    <TTGlyph name="Lcaron" xMin="-22" yMin="0" xMax="587" yMax="717">
      <component glyphName="L" x="0" y="0" flags="0x204"/>
      <component glyphName="caron.alt" x="314" y="-34" flags="0x4"/>
    </TTGlyph>
    <TTGlyph name="Ldot" xMin="-22" yMin="0" xMax="556" yMax="653">
      <contour>
        <pt x="-22" y="0" on="1"/>
        <pt x="-10" y="52" on="1"/>
        <pt x="100" y="52" on="1"/>
        <pt x="236" y="601" on="1"/>
        <pt x="125" y="601" on="1"/>
        <pt x="138" y="653" on="1"/>
        <pt x="436" y="653" on="1"/>
        <pt x="424" y="601" on="1"/>
        <pt x="321" y="601" on="1"/>
        <pt x="185" y="52" on="1"/>
        <pt x="363" y="52" on="1"/>
        <pt x="391" y="52" on="0"/>
        <pt x="429" y="66" on="0"/>
        <pt x="460" y="105" on="0"/>
        <pt x="492" y="172" on="0"/>
        <pt x="515" y="224" on="1"/>
        <pt x="556" y="224" on="1"/>
        <pt x="500" y="0" on="1"/>
      </contour>
      <contour>
        <pt x="481" y="303" on="1"/>
        <pt x="464" y="303" on="0"/>
        <pt x="438" y="327" on="0"/>
        <pt x="438" y="349" on="1"/>
        <pt x="438" y="371" on="0"/>
        <pt x="469" y="415" on="0"/>
        <pt x="497" y="415" on="1"/>
        <pt x="516" y="415" on="0"/>
        <pt x="542" y="391" on="0"/>
        <pt x="542" y="369" on="1"/>
        <pt x="542" y="347" on="0"/>
        <pt x="509" y="303" on="0"/>
      </contour>
    </TTGlyph>
    <TTGlyph name="Lslash" xMin="-22" yMin="0" xMax="557" yMax="653">
      <contour>
        <pt x="-22" y="0" on="1"/>
        <pt x="-10" y="52" on="1"/>
        <pt x="100" y="52" on="1"/>
        <pt x="158" y="285" on="1"/>
        <pt x="64" y="256" on="1"/>
        <pt x="77" y="308" on="1"/>
        <pt x="171" y="337" on="1"/>
        <pt x="236" y="601" on="1"/>
        <pt x="125" y="601" on="1"/>
        <pt x="138" y="653" on="1"/>
        <pt x="436" y="653" on="1"/>
        <pt x="424" y="601" on="1"/>
        <pt x="321" y="601" on="1"/>
        <pt x="263" y="365" on="1"/>
        <pt x="450" y="423" on="1"/>
        <pt x="438" y="372" on="1"/>
        <pt x="250" y="314" on="1"/>
        <pt x="185" y="52" on="1"/>
        <pt x="363" y="52" on="1"/>
        <pt x="391" y="52" on="0"/>
        <pt x="429" y="67" on="0"/>
        <pt x="460" y="105" on="0"/>
        <pt x="492" y="173" on="0"/>
        <pt x="515" y="226" on="1"/>
        <pt x="557" y="226" on="1"/>
        <pt x="500" y="0" on="1"/>
      </contour>
    </TTGlyph>
    <TTGlyph name="M" xMin="-19" yMin="-1" xMax="984" yMax="653">
      <contour>
        <pt x="-19" y="0" on="1"/>
        <pt x="-7" y="52" on="1"/>
        <pt x="95" y="52" on="1"/>
        <pt x="232" y="601" on="1"/>
        <pt x="128" y="601" on="1"/>
        <pt x="140" y="653" on="1"/>
        <pt x="375" y="653" on="1"/>
        <pt x="429" y="141" on="1"/>
        <pt x="432" y="141" on="1"/>
        <pt x="742" y="653" on="1"/>
        <pt x="984" y="653" on="1"/>
        <pt x="972" y="601" on="1"/>
        <pt x="864" y="601" on="1"/>
        <pt x="728" y="52" on="1"/>
        <pt x="837" y="52" on="1"/>
        <pt x="825" y="0" on="1"/>
        <pt x="547" y="0" on="1"/>
        <pt x="559" y="52" on="1"/>
        <pt x="643" y="52" on="1"/>
        <pt x="779" y="597" on="1"/>
        <pt x="771" y="597" on="1"/>
        <pt x="401" y="-1" on="1"/>
        <pt x="365" y="-1" on="1"/>
        <pt x="295" y="597" on="1"/>
        <pt x="289" y="597" on="1"/>
        <pt x="154" y="52" on="1"/>
        <pt x="246" y="52" on="1"/>
        <pt x="233" y="0" on="1"/>
      </contour>
    </TTGlyph>
    <TTGlyph name="N" xMin="-19" yMin="-16" xMax="835" yMax="653">
      <contour>
        <pt x="522" y="-16" on="1"/>
        <pt x="283" y="552" on="1"/>
        <pt x="278" y="552" on="1"/>
        <pt x="154" y="52" on="1"/>
        <pt x="250" y="52" on="1"/>
        <pt x="238" y="0" on="1"/>
        <pt x="-19" y="0" on="1"/>
        <pt x="-7" y="52" on="1"/>
        <pt x="95" y="52" on="1"/>
        <pt x="231" y="601" on="1"/>
        <pt x="128" y="601" on="1"/>
        <pt x="140" y="653" on="1"/>
        <pt x="331" y="653" on="1"/>
        <pt x="547" y="143" on="1"/>
        <pt x="552" y="143" on="1"/>
        <pt x="665" y="601" on="1"/>
        <pt x="567" y="601" on="1"/>
        <pt x="580" y="653" on="1"/>
        <pt x="835" y="653" on="1"/>
        <pt x="822" y="601" on="1"/>
        <pt x="724" y="601" on="1"/>
        <pt x="570" y="-16" on="1"/>
      </contour>
    </TTGlyph>
    <TTGlyph name="Nacute" xMin="-19" yMin="-16" xMax="835" yMax="934">
      <component glyphName="N" x="0" y="0" flags="0x204"/>
      <component glyphName="acute" x="326" y="211" flags="0x4"/>
    </TTGlyph>
    <TTGlyph name="Ncaron" xMin="-19" yMin="-16" xMax="835" yMax="929">
      <component glyphName="N" x="0" y="0" flags="0x204"/>
      <component glyphName="caron" x="255" y="211" flags="0x4"/>
    </TTGlyph>
    <TTGlyph name="Ntilde" xMin="-19" yMin="-16" xMax="835" yMax="872">
      <component glyphName="N" x="0" y="0" flags="0x204"/>
      <component glyphName="tilde" x="252" y="211" flags="0x4"/>
    </TTGlyph>
    <TTGlyph name="O" xMin="70" yMin="-16" xMax="678" yMax="667">
      <contour>
        <pt x="327" y="-16" on="1"/>
        <pt x="270" y="-16" on="0"/>
        <pt x="175" y="25" on="0"/>
        <pt x="108" y="98" on="0"/>
        <pt x="70" y="201" on="0"/>
        <pt x="70" y="263" on="1"/>
        <pt x="70" y="340" on="0"/>
        <pt x="124" y="487" on="0"/>
        <pt x="218" y="599" on="0"/>
        <pt x="347" y="667" on="0"/>
        <pt x="422" y="667" on="1"/>
        <pt x="478" y="667" on="0"/>
        <pt x="573" y="627" on="0"/>
        <pt x="640" y="554" on="0"/>
        <pt x="678" y="451" on="0"/>
        <pt x="678" y="389" on="1"/>
        <pt x="678" y="312" on="0"/>
        <pt x="624" y="165" on="0"/>
        <pt x="531" y="53" on="0"/>
        <pt x="402" y="-16" on="0"/>
      </contour>
      <contour>
        <pt x="332" y="37" on="1"/>
        <pt x="399" y="37" on="0"/>
        <pt x="497" y="114" on="0"/>
        <pt x="559" y="227" on="0"/>
        <pt x="589" y="357" on="0"/>
        <pt x="589" y="410" on="1"/>
        <pt x="589" y="517" on="0"/>
        <pt x="492" y="615" on="0"/>
        <pt x="417" y="615" on="1"/>
        <pt x="350" y="615" on="0"/>
        <pt x="252" y="538" on="0"/>
        <pt x="190" y="425" on="0"/>
        <pt x="160" y="294" on="0"/>
        <pt x="160" y="241" on="1"/>
        <pt x="160" y="135" on="0"/>
        <pt x="257" y="37" on="0"/>
      </contour>
    </TTGlyph>
    <TTGlyph name="OE" xMin="62" yMin="0" xMax="1011" yMax="653">
      <contour>
        <pt x="360" y="0" on="1"/>
        <pt x="285" y="0" on="0"/>
        <pt x="172" y="38" on="0"/>
        <pt x="99" y="104" on="0"/>
        <pt x="62" y="196" on="0"/>
        <pt x="62" y="250" on="1"/>
        <pt x="62" y="324" on="0"/>
        <pt x="123" y="477" on="0"/>
        <pt x="182" y="535" on="1"/>
        <pt x="236" y="588" on="0"/>
        <pt x="396" y="653" on="0"/>
        <pt x="513" y="653" on="1"/>
        <pt x="1011" y="653" on="1"/>
        <pt x="961" y="448" on="1"/>
        <pt x="921" y="448" on="1"/>
        <pt x="923" y="498" on="0"/>
        <pt x="922" y="559" on="0"/>
        <pt x="909" y="591" on="0"/>
        <pt x="880" y="601" on="0"/>
        <pt x="855" y="601" on="1"/>
        <pt x="647" y="601" on="1"/>
        <pt x="587" y="358" on="1"/>
        <pt x="673" y="358" on="1"/>
        <pt x="695" y="358" on="0"/>
        <pt x="724" y="364" on="0"/>
        <pt x="747" y="385" on="0"/>
        <pt x="767" y="424" on="0"/>
        <pt x="780" y="458" on="1"/>
        <pt x="822" y="458" on="1"/>
        <pt x="760" y="209" on="1"/>
        <pt x="720" y="209" on="1"/>
        <pt x="723" y="244" on="0"/>
        <pt x="724" y="285" on="0"/>
        <pt x="713" y="307" on="0"/>
        <pt x="689" y="313" on="0"/>
        <pt x="667" y="313" on="1"/>
        <pt x="576" y="313" on="1"/>
        <pt x="511" y="52" on="1"/>
        <pt x="717" y="52" on="1"/>
        <pt x="745" y="52" on="0"/>
        <pt x="782" y="64" on="0"/>
        <pt x="814" y="101" on="0"/>
        <pt x="848" y="169" on="0"/>
        <pt x="872" y="224" on="1"/>
        <pt x="913" y="224" on="1"/>
        <pt x="857" y="0" on="1"/>
      </contour>
      <contour>
        <pt x="367" y="52" on="1"/>
        <pt x="425" y="52" on="1"/>
        <pt x="562" y="601" on="1"/>
        <pt x="514" y="601" on="1"/>
        <pt x="433" y="601" on="0"/>
        <pt x="311" y="564" on="0"/>
        <pt x="266" y="519" on="1"/>
        <pt x="241" y="494" on="0"/>
        <pt x="199" y="426" on="0"/>
        <pt x="171" y="352" on="0"/>
        <pt x="155" y="271" on="0"/>
        <pt x="155" y="232" on="1"/>
        <pt x="155" y="145" on="0"/>
        <pt x="259" y="52" on="0"/>
      </contour>
    </TTGlyph>
    <TTGlyph name="Oacute" xMin="70" yMin="-16" xMax="678" yMax="934">
      <component glyphName="O" x="0" y="0" flags="0x204"/>
      <component glyphName="acute" x="297" y="211" flags="0x4"/>
    </TTGlyph>
    <TTGlyph name="Obreve" xMin="70" yMin="-16" xMax="678" yMax="895">
      <component glyphName="O" x="0" y="0" flags="0x204"/>
      <component glyphName="breve" x="213" y="211" flags="0x4"/>
    </TTGlyph>
    <TTGlyph name="Ocircumflex" xMin="70" yMin="-16" xMax="678" yMax="920">
      <component glyphName="O" x="0" y="0" flags="0x204"/>
      <component glyphName="circumflex" x="228" y="211" flags="0x4"/>
    </TTGlyph>
    <TTGlyph name="Odieresis" xMin="70" yMin="-16" xMax="678" yMax="873">
      <component glyphName="O" x="0" y="0" flags="0x204"/>
      <component glyphName="dieresis" x="220" y="211" flags="0x4"/>
    </TTGlyph>
    <TTGlyph name="Ograve" xMin="70" yMin="-16" xMax="678" yMax="934">
      <component glyphName="O" x="0" y="0" flags="0x204"/>
      <component glyphName="grave" x="223" y="211" flags="0x4"/>
    </TTGlyph>
    <TTGlyph name="Ohungarumlaut" xMin="70" yMin="-16" xMax="701" yMax="934">
      <component glyphName="O" x="0" y="0" flags="0x204"/>
      <component glyphName="hungarumlaut" x="293" y="211" flags="0x4"/>
    </TTGlyph>
    <TTGlyph name="Omacron" xMin="70" yMin="-16" xMax="678" yMax="820">
      <component glyphName="O" x="0" y="0" flags="0x204"/>
      <component glyphName="macron" x="227" y="211" flags="0x4"/>
    </TTGlyph>
    <TTGlyph name="Oslash" xMin="13" yMin="-45" xMax="735" yMax="697">
      <contour>
        <pt x="49" y="-45" on="1"/>
        <pt x="13" y="-14" on="1"/>
        <pt x="116" y="94" on="1"/>
        <pt x="94" y="128" on="0"/>
        <pt x="70" y="214" on="0"/>
        <pt x="70" y="263" on="1"/>
        <pt x="70" y="340" on="0"/>
        <pt x="124" y="487" on="0"/>
        <pt x="218" y="599" on="0"/>
        <pt x="347" y="667" on="0"/>
        <pt x="422" y="667" on="1"/>
        <pt x="476" y="667" on="0"/>
        <pt x="568" y="629" on="0"/>
        <pt x="602" y="595" on="1"/>
        <pt x="699" y="697" on="1"/>
        <pt x="735" y="665" on="1"/>
        <pt x="632" y="558" on="1"/>
        <pt x="654" y="524" on="0"/>
        <pt x="678" y="438" on="0"/>
        <pt x="678" y="389" on="1"/>
        <pt x="678" y="312" on="0"/>
        <pt x="624" y="165" on="0"/>
        <pt x="531" y="53" on="0"/>
        <pt x="402" y="-16" on="0"/>
        <pt x="327" y="-16" on="1"/>
        <pt x="272" y="-16" on="0"/>
        <pt x="180" y="23" on="0"/>
        <pt x="146" y="57" on="1"/>
      </contour>
      <contour>
        <pt x="160" y="241" on="1"/>
        <pt x="160" y="213" on="0"/>
        <pt x="167" y="166" on="0"/>
        <pt x="174" y="147" on="1"/>
        <pt x="555" y="547" on="1"/>
        <pt x="533" y="582" on="0"/>
        <pt x="461" y="615" on="0"/>
        <pt x="417" y="615" on="1"/>
        <pt x="350" y="615" on="0"/>
        <pt x="252" y="538" on="0"/>
        <pt x="190" y="425" on="0"/>
        <pt x="160" y="294" on="0"/>
      </contour>
      <contour>
        <pt x="332" y="37" on="1"/>
        <pt x="399" y="37" on="0"/>
        <pt x="497" y="114" on="0"/>
        <pt x="559" y="227" on="0"/>
        <pt x="589" y="357" on="0"/>
        <pt x="589" y="410" on="1"/>
        <pt x="589" y="438" on="0"/>
        <pt x="582" y="485" on="0"/>
        <pt x="575" y="505" on="1"/>
        <pt x="193" y="105" on="1"/>
        <pt x="216" y="70" on="0"/>
        <pt x="288" y="37" on="0"/>
      </contour>
    </TTGlyph>
    <TTGlyph name="Oslashacute" xMin="13" yMin="-45" xMax="735" yMax="934">
      <component glyphName="Oslash" x="0" y="0" flags="0x204"/>
      <component glyphName="acute" x="296" y="211" flags="0x4"/>
    </TTGlyph>
    <TTGlyph name="Otilde" xMin="70" yMin="-16" xMax="678" yMax="872">
      <component glyphName="O" x="0" y="0" flags="0x204"/>
      <component glyphName="tilde" x="222" y="211" flags="0x4"/>
    </TTGlyph>
    <TTGlyph name="P" xMin="-22" yMin="0" xMax="629" yMax="653">
      <contour>
        <pt x="-22" y="0" on="1"/>
        <pt x="-10" y="52" on="1"/>
        <pt x="100" y="52" on="1"/>
        <pt x="236" y="601" on="1"/>
        <pt x="125" y="601" on="1"/>
        <pt x="138" y="653" on="1"/>
        <pt x="401" y="653" on="1"/>
        <pt x="464" y="653" on="0"/>
        <pt x="551" y="627" on="0"/>
        <pt x="605" y="584" on="0"/>
        <pt x="629" y="527" on="0"/>
        <pt x="629" y="495" on="1"/>
        <pt x="629" y="450" on="0"/>
        <pt x="593" y="368" on="0"/>
        <pt x="518" y="306" on="0"/>
        <pt x="402" y="270" on="0"/>
        <pt x="324" y="270" on="1"/>
        <pt x="239" y="270" on="1"/>
        <pt x="185" y="52" on="1"/>
        <pt x="306" y="52" on="1"/>
        <pt x="294" y="0" on="1"/>
      </contour>
      <contour>
        <pt x="251" y="319" on="1"/>
        <pt x="334" y="319" on="1"/>
        <pt x="387" y="319" on="0"/>
        <pt x="464" y="348" on="0"/>
        <pt x="512" y="396" on="0"/>
        <pt x="535" y="462" on="0"/>
        <pt x="535" y="498" on="1"/>
        <pt x="535" y="542" on="0"/>
        <pt x="475" y="601" on="0"/>
        <pt x="391" y="601" on="1"/>
        <pt x="321" y="601" on="1"/>
      </contour>
    </TTGlyph>
    <TTGlyph name="Q" xMin="70" yMin="-106" xMax="687" yMax="667">
      <contour>
        <pt x="327" y="-16" on="1"/>
        <pt x="270" y="-16" on="0"/>
        <pt x="175" y="25" on="0"/>
        <pt x="108" y="98" on="0"/>
        <pt x="70" y="201" on="0"/>
        <pt x="70" y="263" on="1"/>
        <pt x="70" y="340" on="0"/>
        <pt x="124" y="487" on="0"/>
        <pt x="218" y="599" on="0"/>
        <pt x="347" y="667" on="0"/>
        <pt x="422" y="667" on="1"/>
        <pt x="478" y="667" on="0"/>
        <pt x="573" y="627" on="0"/>
        <pt x="640" y="554" on="0"/>
        <pt x="678" y="451" on="0"/>
        <pt x="678" y="389" on="1"/>
        <pt x="678" y="336" on="0"/>
        <pt x="652" y="231" on="0"/>
        <pt x="605" y="139" on="0"/>
        <pt x="537" y="62" on="0"/>
        <pt x="496" y="35" on="1"/>
        <pt x="508" y="0" on="0"/>
        <pt x="536" y="-39" on="0"/>
        <pt x="561" y="-39" on="1"/>
        <pt x="588" y="-39" on="0"/>
        <pt x="623" y="5" on="0"/>
        <pt x="645" y="54" on="1"/>
        <pt x="687" y="38" on="1"/>
        <pt x="666" y="-22" on="0"/>
        <pt x="600" y="-106" on="0"/>
        <pt x="549" y="-106" on="1"/>
        <pt x="500" y="-106" on="0"/>
        <pt x="447" y="-45" on="0"/>
        <pt x="431" y="3" on="1"/>
        <pt x="407" y="-6" on="0"/>
        <pt x="355" y="-16" on="0"/>
      </contour>
      <contour>
        <pt x="322" y="235" on="1"/>
        <pt x="357" y="235" on="0"/>
        <pt x="407" y="212" on="0"/>
        <pt x="442" y="174" on="0"/>
        <pt x="467" y="124" on="0"/>
        <pt x="476" y="97" on="1"/>
        <pt x="504" y="126" on="0"/>
        <pt x="547" y="204" on="0"/>
        <pt x="575" y="288" on="0"/>
        <pt x="589" y="373" on="0"/>
        <pt x="589" y="410" on="1"/>
        <pt x="589" y="517" on="0"/>
        <pt x="492" y="615" on="0"/>
        <pt x="417" y="615" on="1"/>
        <pt x="350" y="615" on="0"/>
        <pt x="252" y="538" on="0"/>
        <pt x="190" y="425" on="0"/>
        <pt x="160" y="294" on="0"/>
        <pt x="160" y="241" on="1"/>
        <pt x="160" y="200" on="0"/>
        <pt x="177" y="132" on="0"/>
        <pt x="192" y="111" on="1"/>
        <pt x="196" y="162" on="0"/>
        <pt x="263" y="235" on="0"/>
      </contour>
      <contour>
        <pt x="236" y="109" on="1"/>
        <pt x="236" y="80" on="0"/>
        <pt x="288" y="35" on="0"/>
        <pt x="337" y="35" on="1"/>
        <pt x="359" y="35" on="0"/>
        <pt x="398" y="45" on="0"/>
        <pt x="416" y="53" on="1"/>
        <pt x="401" y="108" on="0"/>
        <pt x="355" y="183" on="0"/>
        <pt x="309" y="183" on="1"/>
        <pt x="278" y="183" on="0"/>
        <pt x="236" y="140" on="0"/>
      </contour>
    </TTGlyph>
    <TTGlyph name="R" xMin="-22" yMin="-11" xMax="646" yMax="653">
      <contour>
        <pt x="532" y="-11" on="1"/>
        <pt x="491" y="-11" on="0"/>
        <pt x="439" y="30" on="0"/>
        <pt x="439" y="74" on="1"/>
        <pt x="439" y="109" on="0"/>
        <pt x="459" y="194" on="0"/>
        <pt x="459" y="231" on="1"/>
        <pt x="459" y="259" on="0"/>
        <pt x="420" y="293" on="0"/>
        <pt x="362" y="293" on="1"/>
        <pt x="245" y="293" on="1"/>
        <pt x="185" y="52" on="1"/>
        <pt x="294" y="52" on="1"/>
        <pt x="282" y="0" on="1"/>
        <pt x="-22" y="0" on="1"/>
        <pt x="-10" y="52" on="1"/>
        <pt x="100" y="52" on="1"/>
        <pt x="236" y="601" on="1"/>
        <pt x="125" y="601" on="1"/>
        <pt x="138" y="653" on="1"/>
        <pt x="432" y="653" on="1"/>
        <pt x="494" y="653" on="0"/>
        <pt x="575" y="627" on="0"/>
        <pt x="623" y="586" on="0"/>
        <pt x="643" y="533" on="0"/>
        <pt x="643" y="506" on="1"/>
        <pt x="643" y="474" on="0"/>
        <pt x="621" y="411" on="0"/>
        <pt x="573" y="360" on="0"/>
        <pt x="496" y="324" on="0"/>
        <pt x="443" y="318" on="1"/>
        <pt x="441" y="313" on="1"/>
        <pt x="500" y="297" on="0"/>
        <pt x="541" y="243" on="0"/>
        <pt x="541" y="200" on="1"/>
        <pt x="541" y="172" on="0"/>
        <pt x="529" y="108" on="0"/>
        <pt x="529" y="84" on="1"/>
        <pt x="529" y="61" on="0"/>
        <pt x="550" y="42" on="0"/>
        <pt x="571" y="42" on="1"/>
        <pt x="584" y="42" on="0"/>
        <pt x="617" y="51" on="0"/>
        <pt x="633" y="58" on="1"/>
        <pt x="646" y="26" on="1"/>
        <pt x="622" y="10" on="0"/>
        <pt x="561" y="-11" on="0"/>
      </contour>
      <contour>
        <pt x="256" y="341" on="1"/>
        <pt x="361" y="341" on="1"/>
        <pt x="412" y="341" on="0"/>
        <pt x="482" y="365" on="0"/>
        <pt x="504" y="387" on="1"/>
        <pt x="525" y="408" on="0"/>
        <pt x="550" y="477" on="0"/>
        <pt x="550" y="511" on="1"/>
        <pt x="550" y="553" on="0"/>
        <pt x="493" y="601" on="0"/>
        <pt x="427" y="601" on="1"/>
        <pt x="321" y="601" on="1"/>
      </contour>
    </TTGlyph>
    <TTGlyph name="R_p" xMin="-20" yMin="-145" xMax="1035" yMax="627">
      <contour>
        <pt x="520" y="-11" on="1"/>
        <pt x="481" y="-11" on="0"/>
        <pt x="425" y="26" on="0"/>
        <pt x="425" y="72" on="1"/>
        <pt x="425" y="103" on="0"/>
        <pt x="447" y="182" on="0"/>
        <pt x="447" y="217" on="1"/>
        <pt x="447" y="245" on="0"/>
        <pt x="409" y="277" on="0"/>
        <pt x="353" y="277" on="1"/>
        <pt x="238" y="277" on="1"/>
        <pt x="182" y="51" on="1"/>
        <pt x="287" y="51" on="1"/>
        <pt x="274" y="0" on="1"/>
        <pt x="-20" y="0" on="1"/>
        <pt x="-7" y="51" on="1"/>
        <pt x="99" y="51" on="1"/>
        <pt x="230" y="577" on="1"/>
        <pt x="123" y="577" on="1"/>
        <pt x="136" y="627" on="1"/>
        <pt x="413" y="627" on="1"/>
        <pt x="471" y="627" on="0"/>
        <pt x="548" y="603" on="0"/>
        <pt x="594" y="563" on="0"/>
        <pt x="612" y="512" on="0"/>
        <pt x="612" y="486" on="1"/>
        <pt x="612" y="455" on="0"/>
        <pt x="590" y="394" on="0"/>
        <pt x="545" y="344" on="0"/>
        <pt x="473" y="309" on="0"/>
        <pt x="423" y="304" on="1"/>
        <pt x="422" y="298" on="1"/>
        <pt x="482" y="284" on="0"/>
        <pt x="527" y="232" on="0"/>
        <pt x="527" y="195" on="1"/>
        <pt x="527" y="168" on="0"/>
        <pt x="514" y="110" on="0"/>
        <pt x="514" y="88" on="1"/>
        <pt x="514" y="60" on="0"/>
        <pt x="539" y="44" on="0"/>
        <pt x="556" y="44" on="1"/>
        <pt x="590" y="44" on="0"/>
        <pt x="655" y="123" on="0"/>
        <pt x="675" y="204" on="1"/>
        <pt x="716" y="368" on="1"/>
        <pt x="647" y="368" on="1"/>
        <pt x="660" y="420" on="1"/>
        <pt x="797" y="420" on="1"/>
        <pt x="773" y="325" on="1"/>
        <pt x="781" y="322" on="1"/>
        <pt x="811" y="373" on="0"/>
        <pt x="883" y="428" on="0"/>
        <pt x="922" y="428" on="1"/>
        <pt x="972" y="428" on="0"/>
        <pt x="1035" y="350" on="0"/>
        <pt x="1035" y="284" on="1"/>
        <pt x="1035" y="227" on="0"/>
        <pt x="997" y="122" on="0"/>
        <pt x="935" y="42" on="0"/>
        <pt x="856" y="-5" on="0"/>
        <pt x="815" y="-5" on="1"/>
        <pt x="781" y="-5" on="0"/>
        <pt x="726" y="32" on="0"/>
        <pt x="715" y="64" on="1"/>
        <pt x="676" y="-93" on="1"/>
        <pt x="768" y="-93" on="1"/>
        <pt x="755" y="-145" on="1"/>
        <pt x="518" y="-145" on="1"/>
        <pt x="531" y="-93" on="1"/>
        <pt x="601" y="-93" on="1"/>
        <pt x="643" y="74" on="1"/>
        <pt x="623" y="35" on="0"/>
        <pt x="563" y="-11" on="0"/>
      </contour>
      <contour>
        <pt x="250" y="324" on="1"/>
        <pt x="344" y="324" on="1"/>
        <pt x="392" y="324" on="0"/>
        <pt x="457" y="347" on="0"/>
        <pt x="478" y="368" on="1"/>
        <pt x="498" y="389" on="0"/>
        <pt x="521" y="456" on="0"/>
        <pt x="521" y="488" on="1"/>
        <pt x="521" y="529" on="0"/>
        <pt x="469" y="576" on="0"/>
        <pt x="406" y="576" on="1"/>
        <pt x="313" y="576" on="1"/>
      </contour>
      <contour>
        <pt x="811" y="40" on="1"/>
        <pt x="843" y="40" on="0"/>
        <pt x="896" y="91" on="0"/>
        <pt x="934" y="164" on="0"/>
        <pt x="955" y="250" on="0"/>
        <pt x="955" y="284" on="1"/>
        <pt x="955" y="328" on="0"/>
        <pt x="923" y="372" on="0"/>
        <pt x="895" y="372" on="1"/>
        <pt x="865" y="372" on="0"/>
        <pt x="808" y="319" on="0"/>
        <pt x="764" y="244" on="0"/>
        <pt x="737" y="158" on="0"/>
        <pt x="737" y="126" on="1"/>
        <pt x="737" y="92" on="0"/>
        <pt x="772" y="40" on="0"/>
      </contour>
    </TTGlyph>
    <TTGlyph name="Racute" xMin="-22" yMin="-11" xMax="646" yMax="934">
      <component glyphName="R" x="0" y="0" flags="0x204"/>
      <component glyphName="acute" x="277" y="211" flags="0x4"/>
    </TTGlyph>
    <TTGlyph name="Rcaron" xMin="-22" yMin="-11" xMax="646" yMax="929">
      <component glyphName="R" x="0" y="0" flags="0x204"/>
      <component glyphName="caron" x="206" y="211" flags="0x4"/>
    </TTGlyph>
    <TTGlyph name="S" xMin="-4" yMin="-16" xMax="601" yMax="667">
      <contour>
        <pt x="283" y="-16" on="1"/>
        <pt x="221" y="-16" on="0"/>
        <pt x="122" y="29" on="0"/>
        <pt x="90" y="70" on="1"/>
        <pt x="45" y="-13" on="1"/>
        <pt x="-4" y="-13" on="1"/>
        <pt x="53" y="220" on="1"/>
        <pt x="97" y="220" on="1"/>
        <pt x="116" y="119" on="0"/>
        <pt x="220" y="32" on="0"/>
        <pt x="288" y="32" on="1"/>
        <pt x="349" y="32" on="0"/>
        <pt x="428" y="106" on="0"/>
        <pt x="428" y="157" on="1"/>
        <pt x="428" y="206" on="0"/>
        <pt x="349" y="264" on="0"/>
        <pt x="287" y="293" on="1"/>
        <pt x="256" y="308" on="0"/>
        <pt x="196" y="341" on="0"/>
        <pt x="151" y="382" on="0"/>
        <pt x="123" y="436" on="0"/>
        <pt x="123" y="471" on="1"/>
        <pt x="123" y="509" on="0"/>
        <pt x="155" y="580" on="0"/>
        <pt x="213" y="634" on="0"/>
        <pt x="294" y="667" on="0"/>
        <pt x="342" y="667" on="1"/>
        <pt x="399" y="667" on="0"/>
        <pt x="488" y="623" on="0"/>
        <pt x="512" y="590" on="1"/>
        <pt x="552" y="664" on="1"/>
        <pt x="601" y="664" on="1"/>
        <pt x="546" y="443" on="1"/>
        <pt x="503" y="443" on="1"/>
        <pt x="484" y="548" on="0"/>
        <pt x="396" y="620" on="0"/>
        <pt x="336" y="620" on="1"/>
        <pt x="283" y="620" on="0"/>
        <pt x="206" y="551" on="0"/>
        <pt x="206" y="500" on="1"/>
        <pt x="206" y="449" on="0"/>
        <pt x="287" y="394" on="0"/>
        <pt x="343" y="367" on="1"/>
        <pt x="376" y="351" on="0"/>
        <pt x="438" y="318" on="0"/>
        <pt x="485" y="277" on="0"/>
        <pt x="513" y="223" on="0"/>
        <pt x="513" y="186" on="1"/>
        <pt x="513" y="144" on="0"/>
        <pt x="477" y="70" on="0"/>
        <pt x="415" y="16" on="0"/>
        <pt x="331" y="-16" on="0"/>
      </contour>
    </TTGlyph>
    <TTGlyph name="Sacute" xMin="-4" yMin="-16" xMax="601" yMax="934">
      <component glyphName="S" x="0" y="0" flags="0x204"/>
      <component glyphName="acute" x="240" y="211" flags="0x4"/>
    </TTGlyph>
    <TTGlyph name="Scaron" xMin="-4" yMin="-16" xMax="601" yMax="929">
      <component glyphName="S" x="0" y="0" flags="0x204"/>
      <component glyphName="caron" x="168" y="211" flags="0x4"/>
    </TTGlyph>
    <TTGlyph name="Scedilla" xMin="-4" yMin="-238" xMax="601" yMax="667">
      <contour>
        <pt x="207" y="-238" on="1"/>
        <pt x="179" y="-238" on="0"/>
        <pt x="122" y="-217" on="0"/>
        <pt x="100" y="-196" on="1"/>
        <pt x="124" y="-166" on="1"/>
        <pt x="143" y="-180" on="0"/>
        <pt x="180" y="-197" on="0"/>
        <pt x="204" y="-197" on="1"/>
        <pt x="226" y="-197" on="0"/>
        <pt x="258" y="-173" on="0"/>
        <pt x="258" y="-150" on="1"/>
        <pt x="258" y="-135" on="0"/>
        <pt x="240" y="-117" on="0"/>
        <pt x="212" y="-109" on="0"/>
        <pt x="179" y="-108" on="0"/>
        <pt x="165" y="-109" on="1"/>
        <pt x="155" y="-89" on="1"/>
        <pt x="245" y="-14" on="1"/>
        <pt x="196" y="-8" on="0"/>
        <pt x="117" y="36" on="0"/>
        <pt x="90" y="70" on="1"/>
        <pt x="45" y="-13" on="1"/>
        <pt x="-4" y="-13" on="1"/>
        <pt x="53" y="220" on="1"/>
        <pt x="97" y="220" on="1"/>
        <pt x="116" y="119" on="0"/>
        <pt x="220" y="32" on="0"/>
        <pt x="288" y="32" on="1"/>
        <pt x="349" y="32" on="0"/>
        <pt x="428" y="106" on="0"/>
        <pt x="428" y="157" on="1"/>
        <pt x="428" y="206" on="0"/>
        <pt x="349" y="264" on="0"/>
        <pt x="287" y="293" on="1"/>
        <pt x="256" y="308" on="0"/>
        <pt x="196" y="341" on="0"/>
        <pt x="151" y="382" on="0"/>
        <pt x="123" y="436" on="0"/>
        <pt x="123" y="471" on="1"/>
        <pt x="123" y="509" on="0"/>
        <pt x="155" y="580" on="0"/>
        <pt x="213" y="634" on="0"/>
        <pt x="294" y="667" on="0"/>
        <pt x="342" y="667" on="1"/>
        <pt x="399" y="667" on="0"/>
        <pt x="488" y="623" on="0"/>
        <pt x="512" y="590" on="1"/>
        <pt x="552" y="664" on="1"/>
        <pt x="601" y="664" on="1"/>
        <pt x="546" y="443" on="1"/>
        <pt x="503" y="443" on="1"/>
        <pt x="484" y="548" on="0"/>
        <pt x="396" y="620" on="0"/>
        <pt x="336" y="620" on="1"/>
        <pt x="283" y="620" on="0"/>
        <pt x="206" y="551" on="0"/>
        <pt x="206" y="500" on="1"/>
        <pt x="206" y="449" on="0"/>
        <pt x="287" y="394" on="0"/>
        <pt x="343" y="367" on="1"/>
        <pt x="376" y="351" on="0"/>
        <pt x="438" y="318" on="0"/>
        <pt x="485" y="277" on="0"/>
        <pt x="513" y="223" on="0"/>
        <pt x="513" y="186" on="1"/>
        <pt x="513" y="146" on="0"/>
        <pt x="479" y="74" on="0"/>
        <pt x="420" y="20" on="0"/>
        <pt x="341" y="-14" on="0"/>
        <pt x="295" y="-16" on="1"/>
        <pt x="231" y="-68" on="1"/>
        <pt x="231" y="-71" on="1"/>
        <pt x="268" y="-75" on="0"/>
        <pt x="315" y="-114" on="0"/>
        <pt x="315" y="-145" on="1"/>
        <pt x="315" y="-183" on="0"/>
        <pt x="256" y="-238" on="0"/>
      </contour>
    </TTGlyph>
    <TTGlyph name="T" xMin="94" yMin="0" xMax="715" yMax="653">
      <contour>
        <pt x="115" y="0" on="1"/>
        <pt x="127" y="52" on="1"/>
        <pt x="240" y="52" on="1"/>
        <pt x="379" y="605" on="1"/>
        <pt x="296" y="605" on="1"/>
        <pt x="268" y="605" on="0"/>
        <pt x="231" y="591" on="0"/>
        <pt x="198" y="553" on="0"/>
        <pt x="161" y="482" on="0"/>
        <pt x="134" y="426" on="1"/>
        <pt x="94" y="426" on="1"/>
        <pt x="151" y="653" on="1"/>
        <pt x="715" y="653" on="1"/>
        <pt x="658" y="426" on="1"/>
        <pt x="621" y="426" on="1"/>
        <pt x="623" y="481" on="0"/>
        <pt x="621" y="551" on="0"/>
        <pt x="606" y="591" on="0"/>
        <pt x="575" y="605" on="0"/>
        <pt x="547" y="605" on="1"/>
        <pt x="464" y="605" on="1"/>
        <pt x="325" y="52" on="1"/>
        <pt x="440" y="52" on="1"/>
        <pt x="428" y="0" on="1"/>
      </contour>
    </TTGlyph>
    <TTGlyph name="Tcaron" xMin="94" yMin="0" xMax="715" yMax="929">
      <component glyphName="T" x="0" y="0" flags="0x204"/>
      <component glyphName="caron" x="214" y="211" flags="0x4"/>
    </TTGlyph>
    <TTGlyph name="Thorn" xMin="-22" yMin="0" xMax="599" yMax="653">
      <contour>
        <pt x="-22" y="0" on="1"/>
        <pt x="-10" y="52" on="1"/>
        <pt x="100" y="52" on="1"/>
        <pt x="236" y="601" on="1"/>
        <pt x="125" y="601" on="1"/>
        <pt x="138" y="653" on="1"/>
        <pt x="441" y="653" on="1"/>
        <pt x="428" y="601" on="1"/>
        <pt x="321" y="601" on="1"/>
        <pt x="303" y="526" on="1"/>
        <pt x="374" y="526" on="1"/>
        <pt x="497" y="526" on="0"/>
        <pt x="599" y="436" on="0"/>
        <pt x="599" y="370" on="1"/>
        <pt x="599" y="328" on="0"/>
        <pt x="564" y="250" on="0"/>
        <pt x="491" y="191" on="0"/>
        <pt x="376" y="156" on="0"/>
        <pt x="298" y="156" on="1"/>
        <pt x="211" y="156" on="1"/>
        <pt x="185" y="52" on="1"/>
        <pt x="294" y="52" on="1"/>
        <pt x="281" y="0" on="1"/>
      </contour>
      <contour>
        <pt x="223" y="206" on="1"/>
        <pt x="309" y="206" on="1"/>
        <pt x="362" y="206" on="0"/>
        <pt x="437" y="233" on="0"/>
        <pt x="484" y="279" on="0"/>
        <pt x="505" y="341" on="0"/>
        <pt x="505" y="375" on="1"/>
        <pt x="505" y="421" on="0"/>
        <pt x="446" y="476" on="0"/>
        <pt x="363" y="476" on="1"/>
        <pt x="290" y="476" on="1"/>
      </contour>
    </TTGlyph>
    <TTGlyph name="U" xMin="111" yMin="-16" xMax="805" yMax="653">
      <contour>
        <pt x="336" y="-16" on="1"/>
        <pt x="225" y="-16" on="0"/>
        <pt x="111" y="84" on="0"/>
        <pt x="111" y="156" on="1"/>
        <pt x="111" y="176" on="0"/>
        <pt x="117" y="221" on="0"/>
        <pt x="124" y="249" on="1"/>
        <pt x="211" y="601" on="1"/>
        <pt x="115" y="601" on="1"/>
        <pt x="128" y="653" on="1"/>
        <pt x="406" y="653" on="1"/>
        <pt x="394" y="601" on="1"/>
        <pt x="296" y="601" on="1"/>
        <pt x="212" y="262" on="1"/>
        <pt x="204" y="227" on="0"/>
        <pt x="197" y="178" on="0"/>
        <pt x="197" y="161" on="1"/>
        <pt x="197" y="104" on="0"/>
        <pt x="279" y="42" on="0"/>
        <pt x="350" y="42" on="1"/>
        <pt x="387" y="42" on="0"/>
        <pt x="457" y="65" on="0"/>
        <pt x="485" y="93" on="1"/>
        <pt x="506" y="115" on="0"/>
        <pt x="538" y="177" on="0"/>
        <pt x="549" y="219" on="1"/>
        <pt x="643" y="601" on="1"/>
        <pt x="544" y="601" on="1"/>
        <pt x="556" y="653" on="1"/>
        <pt x="805" y="653" on="1"/>
        <pt x="792" y="601" on="1"/>
        <pt x="702" y="601" on="1"/>
        <pt x="601" y="196" on="1"/>
        <pt x="591" y="157" on="0"/>
        <pt x="556" y="85" on="0"/>
        <pt x="527" y="56" on="1"/>
        <pt x="493" y="22" on="0"/>
        <pt x="396" y="-16" on="0"/>
      </contour>
    </TTGlyph>
    <TTGlyph name="Uacute" xMin="111" yMin="-16" xMax="805" yMax="934">
      <component glyphName="U" x="0" y="0" flags="0x204"/>
      <component glyphName="acute" x="314" y="211" flags="0x4"/>
    </TTGlyph>
    <TTGlyph name="Ubreve" xMin="111" yMin="-16" xMax="805" yMax="895">
      <component glyphName="U" x="0" y="0" flags="0x204"/>
      <component glyphName="breve" x="230" y="211" flags="0x4"/>
    </TTGlyph>
    <TTGlyph name="Ucircumflex" xMin="111" yMin="-16" xMax="805" yMax="920">
      <component glyphName="U" x="0" y="0" flags="0x204"/>
      <component glyphName="circumflex" x="246" y="211" flags="0x4"/>
    </TTGlyph>
    <TTGlyph name="Udieresis" xMin="111" yMin="-16" xMax="805" yMax="873">
      <component glyphName="U" x="0" y="0" flags="0x204"/>
      <component glyphName="dieresis" x="239" y="211" flags="0x4"/>
    </TTGlyph>
    <TTGlyph name="Ugrave" xMin="111" yMin="-16" xMax="805" yMax="934">
      <component glyphName="U" x="0" y="0" flags="0x204"/>
      <component glyphName="grave" x="241" y="211" flags="0x4"/>
    </TTGlyph>
    <TTGlyph name="Uhungarumlaut" xMin="111" yMin="-16" xMax="805" yMax="934">
      <component glyphName="U" x="0" y="0" flags="0x204"/>
      <component glyphName="hungarumlaut" x="312" y="211" flags="0x4"/>
    </TTGlyph>
    <TTGlyph name="Umacron" xMin="111" yMin="-16" xMax="805" yMax="820">
      <component glyphName="U" x="0" y="0" flags="0x204"/>
      <component glyphName="macron" x="245" y="211" flags="0x4"/>
    </TTGlyph>
    <TTGlyph name="Uogonek" xMin="111" yMin="-238" xMax="805" yMax="653">
      <contour>
        <pt x="270" y="-238" on="1"/>
        <pt x="233" y="-238" on="0"/>
        <pt x="178" y="-196" on="0"/>
        <pt x="178" y="-157" on="1"/>
        <pt x="178" y="-121" on="0"/>
        <pt x="232" y="-56" on="0"/>
        <pt x="293" y="-14" on="1"/>
        <pt x="203" y="-4" on="0"/>
        <pt x="111" y="91" on="0"/>
        <pt x="111" y="156" on="1"/>
        <pt x="111" y="176" on="0"/>
        <pt x="117" y="221" on="0"/>
        <pt x="124" y="249" on="1"/>
        <pt x="211" y="601" on="1"/>
        <pt x="115" y="601" on="1"/>
        <pt x="128" y="653" on="1"/>
        <pt x="406" y="653" on="1"/>
        <pt x="394" y="601" on="1"/>
        <pt x="296" y="601" on="1"/>
        <pt x="212" y="262" on="1"/>
        <pt x="204" y="227" on="0"/>
        <pt x="197" y="178" on="0"/>
        <pt x="197" y="161" on="1"/>
        <pt x="197" y="104" on="0"/>
        <pt x="279" y="42" on="0"/>
        <pt x="350" y="42" on="1"/>
        <pt x="387" y="42" on="0"/>
        <pt x="457" y="65" on="0"/>
        <pt x="485" y="93" on="1"/>
        <pt x="506" y="115" on="0"/>
        <pt x="538" y="177" on="0"/>
        <pt x="549" y="219" on="1"/>
        <pt x="643" y="601" on="1"/>
        <pt x="544" y="601" on="1"/>
        <pt x="556" y="653" on="1"/>
        <pt x="805" y="653" on="1"/>
        <pt x="792" y="601" on="1"/>
        <pt x="702" y="601" on="1"/>
        <pt x="601" y="196" on="1"/>
        <pt x="591" y="157" on="0"/>
        <pt x="556" y="85" on="0"/>
        <pt x="527" y="56" on="1"/>
        <pt x="493" y="22" on="0"/>
        <pt x="401" y="-15" on="0"/>
        <pt x="343" y="-16" on="1"/>
        <pt x="281" y="-67" on="0"/>
        <pt x="242" y="-123" on="0"/>
        <pt x="242" y="-148" on="1"/>
        <pt x="242" y="-167" on="0"/>
        <pt x="266" y="-193" on="0"/>
        <pt x="291" y="-193" on="1"/>
        <pt x="307" y="-193" on="0"/>
        <pt x="336" y="-181" on="0"/>
        <pt x="348" y="-174" on="1"/>
        <pt x="364" y="-203" on="1"/>
        <pt x="344" y="-219" on="0"/>
        <pt x="296" y="-238" on="0"/>
      </contour>
    </TTGlyph>
    <TTGlyph name="Uring" xMin="111" yMin="-16" xMax="805" yMax="934">
      <component glyphName="U" x="0" y="0" flags="0x204"/>
      <component glyphName="ring" x="278" y="211" flags="0x4"/>
    </TTGlyph>
    <TTGlyph name="V" xMin="84" yMin="-4" xMax="772" yMax="653">
      <contour>
        <pt x="245" y="-4" on="1"/>
        <pt x="168" y="601" on="1"/>
        <pt x="84" y="601" on="1"/>
        <pt x="97" y="653" on="1"/>
        <pt x="369" y="653" on="1"/>
        <pt x="357" y="601" on="1"/>
        <pt x="254" y="601" on="1"/>
        <pt x="312" y="94" on="1"/>
        <pt x="315" y="94" on="1"/>
        <pt x="622" y="601" on="1"/>
        <pt x="534" y="601" on="1"/>
        <pt x="546" y="653" on="1"/>
        <pt x="772" y="653" on="1"/>
        <pt x="760" y="601" on="1"/>
        <pt x="690" y="601" on="1"/>
        <pt x="311" y="-4" on="1"/>
      </contour>
    </TTGlyph>
    <TTGlyph name="W" xMin="84" yMin="-4" xMax="1066" yMax="653">
      <contour>
        <pt x="209" y="-4" on="1"/>
        <pt x="166" y="601" on="1"/>
        <pt x="84" y="601" on="1"/>
        <pt x="97" y="653" on="1"/>
        <pt x="366" y="653" on="1"/>
        <pt x="353" y="601" on="1"/>
        <pt x="251" y="601" on="1"/>
        <pt x="279" y="102" on="1"/>
        <pt x="282" y="102" on="1"/>
        <pt x="536" y="548" on="1"/>
        <pt x="534" y="601" on="1"/>
        <pt x="451" y="601" on="1"/>
        <pt x="464" y="653" on="1"/>
        <pt x="734" y="653" on="1"/>
        <pt x="721" y="601" on="1"/>
        <pt x="616" y="601" on="1"/>
        <pt x="639" y="102" on="1"/>
        <pt x="642" y="102" on="1"/>
        <pt x="917" y="601" on="1"/>
        <pt x="829" y="601" on="1"/>
        <pt x="842" y="653" on="1"/>
        <pt x="1066" y="653" on="1"/>
        <pt x="1053" y="601" on="1"/>
        <pt x="984" y="601" on="1"/>
        <pt x="638" y="-4" on="1"/>
        <pt x="568" y="-4" on="1"/>
        <pt x="541" y="458" on="1"/>
        <pt x="278" y="-4" on="1"/>
      </contour>
    </TTGlyph>
    <TTGlyph name="Wacute" xMin="84" yMin="-4" xMax="1066" yMax="934">
      <component glyphName="W" x="0" y="0" flags="0x204"/>
      <component glyphName="acute" x="438" y="211" flags="0x4"/>
    </TTGlyph>
    <TTGlyph name="Wcircumflex" xMin="84" yMin="-4" xMax="1066" yMax="920">
      <component glyphName="W" x="0" y="0" flags="0x204"/>
      <component glyphName="circumflex" x="370" y="211" flags="0x4"/>
    </TTGlyph>
    <TTGlyph name="Wdieresis" xMin="84" yMin="-4" xMax="1066" yMax="873">
      <component glyphName="W" x="0" y="0" flags="0x204"/>
      <component glyphName="dieresis" x="362" y="211" flags="0x4"/>
    </TTGlyph>
    <TTGlyph name="Wgrave" xMin="84" yMin="-4" xMax="1066" yMax="934">
      <component glyphName="W" x="0" y="0" flags="0x204"/>
      <component glyphName="grave" x="365" y="211" flags="0x4"/>
    </TTGlyph>
    <TTGlyph name="X" xMin="-44" yMin="0" xMax="742" yMax="653">
      <contour>
        <pt x="-44" y="0" on="1"/>
        <pt x="-32" y="52" on="1"/>
        <pt x="46" y="52" on="1"/>
        <pt x="312" y="333" on="1"/>
        <pt x="201" y="601" on="1"/>
        <pt x="114" y="601" on="1"/>
        <pt x="127" y="653" on="1"/>
        <pt x="396" y="653" on="1"/>
        <pt x="383" y="601" on="1"/>
        <pt x="291" y="601" on="1"/>
        <pt x="377" y="381" on="1"/>
        <pt x="579" y="601" on="1"/>
        <pt x="492" y="601" on="1"/>
        <pt x="504" y="653" on="1"/>
        <pt x="742" y="653" on="1"/>
        <pt x="729" y="601" on="1"/>
        <pt x="653" y="601" on="1"/>
        <pt x="402" y="335" on="1"/>
        <pt x="518" y="52" on="1"/>
        <pt x="605" y="52" on="1"/>
        <pt x="592" y="0" on="1"/>
        <pt x="323" y="0" on="1"/>
        <pt x="336" y="52" on="1"/>
        <pt x="429" y="52" on="1"/>
        <pt x="337" y="286" on="1"/>
        <pt x="119" y="52" on="1"/>
        <pt x="205" y="52" on="1"/>
        <pt x="192" y="0" on="1"/>
      </contour>
    </TTGlyph>
    <TTGlyph name="Y" xMin="115" yMin="0" xMax="737" yMax="653">
      <contour>
        <pt x="121" y="0" on="1"/>
        <pt x="134" y="52" on="1"/>
        <pt x="233" y="52" on="1"/>
        <pt x="292" y="282" on="1"/>
        <pt x="196" y="601" on="1"/>
        <pt x="115" y="601" on="1"/>
        <pt x="128" y="653" on="1"/>
        <pt x="391" y="653" on="1"/>
        <pt x="378" y="601" on="1"/>
        <pt x="287" y="601" on="1"/>
        <pt x="364" y="327" on="1"/>
        <pt x="585" y="601" on="1"/>
        <pt x="504" y="601" on="1"/>
        <pt x="516" y="653" on="1"/>
        <pt x="737" y="653" on="1"/>
        <pt x="725" y="601" on="1"/>
        <pt x="650" y="601" on="1"/>
        <pt x="374" y="269" on="1"/>
        <pt x="318" y="52" on="1"/>
        <pt x="421" y="52" on="1"/>
        <pt x="408" y="0" on="1"/>
      </contour>
    </TTGlyph>
    <TTGlyph name="Yacute" xMin="115" yMin="0" xMax="737" yMax="934">
      <component glyphName="Y" x="0" y="0" flags="0x204"/>
      <component glyphName="acute" x="286" y="211" flags="0x4"/>
    </TTGlyph>
    <TTGlyph name="Ycircumflex" xMin="115" yMin="0" xMax="737" yMax="920">
      <component glyphName="Y" x="0" y="0" flags="0x204"/>
      <component glyphName="circumflex" x="217" y="211" flags="0x4"/>
    </TTGlyph>
    <TTGlyph name="Ydieresis" xMin="115" yMin="0" xMax="737" yMax="873">
      <component glyphName="Y" x="0" y="0" flags="0x204"/>
      <component glyphName="dieresis" x="210" y="211" flags="0x4"/>
    </TTGlyph>
    <TTGlyph name="Ygrave" xMin="115" yMin="0" xMax="737" yMax="934">
      <component glyphName="Y" x="0" y="0" flags="0x204"/>
      <component glyphName="grave" x="212" y="211" flags="0x4"/>
    </TTGlyph>
    <TTGlyph name="Z" xMin="-17" yMin="0" xMax="650" yMax="653">
      <contour>
        <pt x="-17" y="0" on="1"/>
        <pt x="-7" y="37" on="1"/>
        <pt x="525" y="601" on="1"/>
        <pt x="297" y="601" on="1"/>
        <pt x="275" y="601" on="0"/>
        <pt x="245" y="593" on="0"/>
        <pt x="214" y="559" on="0"/>
        <pt x="177" y="489" on="0"/>
        <pt x="149" y="429" on="1"/>
        <pt x="111" y="429" on="1"/>
        <pt x="166" y="653" on="1"/>
        <pt x="650" y="653" on="1"/>
        <pt x="641" y="616" on="1"/>
        <pt x="112" y="52" on="1"/>
        <pt x="359" y="52" on="1"/>
        <pt x="381" y="52" on="0"/>
        <pt x="411" y="62" on="0"/>
        <pt x="442" y="99" on="0"/>
        <pt x="480" y="171" on="0"/>
        <pt x="508" y="231" on="1"/>
        <pt x="546" y="231" on="1"/>
        <pt x="488" y="0" on="1"/>
      </contour>
    </TTGlyph>
    <TTGlyph name="Zacute" xMin="-17" yMin="0" xMax="650" yMax="934">
      <component glyphName="Z" x="0" y="0" flags="0x204"/>
      <component glyphName="acute" x="239" y="211" flags="0x4"/>
    </TTGlyph>
    <TTGlyph name="Zcaron" xMin="-17" yMin="0" xMax="650" yMax="929">
      <component glyphName="Z" x="0" y="0" flags="0x204"/>
      <component glyphName="caron" x="167" y="211" flags="0x4"/>
    </TTGlyph>
    <TTGlyph name="Zdotaccent" xMin="-17" yMin="0" xMax="650" yMax="854">
      <component glyphName="Z" x="0" y="0" flags="0x204"/>
      <component glyphName="dotaccent" x="234" y="211" flags="0x4"/>
    </TTGlyph>
    <TTGlyph name="a" xMin="33" yMin="-9" xMax="506" yMax="458">
      <contour>
        <pt x="153" y="-9" on="1"/>
        <pt x="100" y="-9" on="0"/>
        <pt x="33" y="73" on="0"/>
        <pt x="33" y="142" on="1"/>
        <pt x="33" y="215" on="0"/>
        <pt x="88" y="344" on="0"/>
        <pt x="131" y="387" on="1"/>
        <pt x="163" y="419" on="0"/>
        <pt x="237" y="458" on="0"/>
        <pt x="274" y="458" on="1"/>
        <pt x="311" y="458" on="0"/>
        <pt x="360" y="413" on="0"/>
        <pt x="367" y="371" on="1"/>
        <pt x="389" y="452" on="1"/>
        <pt x="465" y="452" on="1"/>
        <pt x="386" y="162" on="1"/>
        <pt x="378" y="131" on="0"/>
        <pt x="371" y="94" on="0"/>
        <pt x="371" y="80" on="1"/>
        <pt x="371" y="70" on="0"/>
        <pt x="380" y="50" on="0"/>
        <pt x="395" y="50" on="1"/>
        <pt x="416" y="50" on="0"/>
        <pt x="452" y="110" on="0"/>
        <pt x="471" y="161" on="1"/>
        <pt x="506" y="150" on="1"/>
        <pt x="474" y="57" on="0"/>
        <pt x="408" y="-9" on="0"/>
        <pt x="374" y="-9" on="1"/>
        <pt x="346" y="-9" on="0"/>
        <pt x="305" y="31" on="0"/>
        <pt x="305" y="72" on="1"/>
        <pt x="305" y="79" on="0"/>
        <pt x="307" y="92" on="0"/>
        <pt x="308" y="97" on="1"/>
        <pt x="301" y="100" on="1"/>
        <pt x="270" y="48" on="0"/>
        <pt x="193" y="-9" on="0"/>
      </contour>
      <contour>
        <pt x="180" y="49" on="1"/>
        <pt x="212" y="49" on="0"/>
        <pt x="273" y="106" on="0"/>
        <pt x="318" y="187" on="0"/>
        <pt x="346" y="279" on="0"/>
        <pt x="346" y="314" on="1"/>
        <pt x="346" y="349" on="0"/>
        <pt x="314" y="413" on="0"/>
        <pt x="277" y="413" on="1"/>
        <pt x="243" y="413" on="0"/>
        <pt x="183" y="360" on="0"/>
        <pt x="139" y="281" on="0"/>
        <pt x="113" y="188" on="0"/>
        <pt x="113" y="148" on="1"/>
        <pt x="113" y="99" on="0"/>
        <pt x="149" y="49" on="0"/>
      </contour>
    </TTGlyph>
    <TTGlyph name="aacute" xMin="33" yMin="-9" xMax="506" yMax="723">
      <component glyphName="a" x="0" y="0" flags="0x204"/>
      <component glyphName="acute" x="150" y="0" flags="0x4"/>
    </TTGlyph>
    <TTGlyph name="abreve" xMin="33" yMin="-9" xMax="506" yMax="684">
      <component glyphName="a" x="0" y="0" flags="0x204"/>
      <component glyphName="breve" x="67" y="0" flags="0x4"/>
    </TTGlyph>
    <TTGlyph name="acircumflex" xMin="33" yMin="-9" xMax="506" yMax="709">
      <component glyphName="a" x="0" y="0" flags="0x204"/>
      <component glyphName="circumflex" x="82" y="0" flags="0x4"/>
    </TTGlyph>
    <TTGlyph name="acute" xMin="133" yMin="528" xMax="322" yMax="723">
      <contour>
        <pt x="133" y="528" on="1"/>
        <pt x="214" y="653" on="1"/>
        <pt x="239" y="691" on="0"/>
        <pt x="268" y="723" on="0"/>
        <pt x="287" y="723" on="1"/>
        <pt x="302" y="723" on="0"/>
        <pt x="322" y="701" on="0"/>
        <pt x="322" y="687" on="1"/>
        <pt x="322" y="669" on="0"/>
        <pt x="296" y="639" on="0"/>
        <pt x="265" y="611" on="1"/>
        <pt x="173" y="528" on="1"/>
      </contour>
    </TTGlyph>
    <TTGlyph name="adieresis" xMin="33" yMin="-9" xMax="506" yMax="662">
      <component glyphName="a" x="0" y="0" flags="0x204"/>
      <component glyphName="dieresis" x="75" y="0" flags="0x4"/>
    </TTGlyph>
    <TTGlyph name="ae" xMin="11" yMin="-9" xMax="667" yMax="458">
      <contour>
        <pt x="442" y="-9" on="1"/>
        <pt x="387" y="-9" on="0"/>
        <pt x="317" y="43" on="0"/>
        <pt x="304" y="89" on="1"/>
        <pt x="265" y="35" on="0"/>
        <pt x="171" y="-6" on="0"/>
        <pt x="130" y="-6" on="1"/>
        <pt x="73" y="-6" on="0"/>
        <pt x="11" y="52" on="0"/>
        <pt x="11" y="96" on="1"/>
        <pt x="11" y="171" on="0"/>
        <pt x="175" y="253" on="0"/>
        <pt x="315" y="259" on="1"/>
        <pt x="325" y="293" on="0"/>
        <pt x="333" y="327" on="0"/>
        <pt x="333" y="339" on="1"/>
        <pt x="333" y="376" on="0"/>
        <pt x="279" y="418" on="0"/>
        <pt x="236" y="418" on="1"/>
        <pt x="219" y="418" on="0"/>
        <pt x="184" y="410" on="0"/>
        <pt x="171" y="404" on="1"/>
        <pt x="178" y="397" on="0"/>
        <pt x="187" y="375" on="0"/>
        <pt x="187" y="364" on="1"/>
        <pt x="187" y="344" on="0"/>
        <pt x="160" y="307" on="0"/>
        <pt x="130" y="307" on="1"/>
        <pt x="111" y="307" on="0"/>
        <pt x="85" y="333" on="0"/>
        <pt x="85" y="355" on="1"/>
        <pt x="85" y="396" on="0"/>
        <pt x="173" y="457" on="0"/>
        <pt x="248" y="457" on="1"/>
        <pt x="299" y="457" on="0"/>
        <pt x="375" y="416" on="0"/>
        <pt x="388" y="379" on="1"/>
        <pt x="423" y="416" on="0"/>
        <pt x="511" y="458" on="0"/>
        <pt x="556" y="458" on="1"/>
        <pt x="610" y="458" on="0"/>
        <pt x="667" y="405" on="0"/>
        <pt x="667" y="366" on="1"/>
        <pt x="667" y="300" on="0"/>
        <pt x="519" y="200" on="0"/>
        <pt x="365" y="184" on="1"/>
        <pt x="364" y="177" on="0"/>
        <pt x="363" y="162" on="0"/>
        <pt x="363" y="155" on="1"/>
        <pt x="363" y="95" on="0"/>
        <pt x="416" y="38" on="0"/>
        <pt x="457" y="38" on="1"/>
        <pt x="498" y="38" on="0"/>
        <pt x="573" y="92" on="0"/>
        <pt x="605" y="139" on="1"/>
        <pt x="637" y="119" on="1"/>
        <pt x="600" y="65" on="0"/>
        <pt x="507" y="-9" on="0"/>
      </contour>
      <contour>
        <pt x="541" y="418" on="1"/>
        <pt x="511" y="418" on="0"/>
        <pt x="457" y="382" on="0"/>
        <pt x="413" y="326" on="0"/>
        <pt x="381" y="256" on="0"/>
        <pt x="372" y="221" on="1"/>
        <pt x="499" y="238" on="0"/>
        <pt x="595" y="318" on="0"/>
        <pt x="595" y="364" on="1"/>
        <pt x="595" y="388" on="0"/>
        <pt x="566" y="418" on="0"/>
      </contour>
      <contour>
        <pt x="160" y="43" on="1"/>
        <pt x="198" y="43" on="0"/>
        <pt x="268" y="89" on="0"/>
        <pt x="296" y="126" on="1"/>
        <pt x="295" y="132" on="0"/>
        <pt x="295" y="145" on="0"/>
        <pt x="295" y="152" on="1"/>
        <pt x="295" y="170" on="0"/>
        <pt x="299" y="208" on="0"/>
        <pt x="303" y="225" on="1"/>
        <pt x="186" y="215" on="0"/>
        <pt x="96" y="150" on="0"/>
        <pt x="96" y="105" on="1"/>
        <pt x="96" y="80" on="0"/>
        <pt x="128" y="43" on="0"/>
      </contour>
    </TTGlyph>
    <TTGlyph name="aeacute" xMin="11" yMin="-9" xMax="667" yMax="723">
      <component glyphName="ae" x="0" y="0" flags="0x204"/>
      <component glyphName="acute" x="269" y="0" flags="0x4"/>
    </TTGlyph>
    <TTGlyph name="agrave" xMin="33" yMin="-9" xMax="506" yMax="723">
      <component glyphName="a" x="0" y="0" flags="0x204"/>
      <component glyphName="grave" x="77" y="0" flags="0x4"/>
    </TTGlyph>
    <TTGlyph name="amacron" xMin="33" yMin="-9" xMax="506" yMax="609">
      <component glyphName="a" x="0" y="0" flags="0x204"/>
      <component glyphName="macron" x="81" y="0" flags="0x4"/>
    </TTGlyph>
    <TTGlyph name="ampersand" xMin="24" yMin="-16" xMax="656" yMax="625">
      <contour>
        <pt x="187" y="-16" on="1"/>
        <pt x="115" y="-16" on="0"/>
        <pt x="24" y="66" on="0"/>
        <pt x="24" y="130" on="1"/>
        <pt x="24" y="200" on="0"/>
        <pt x="129" y="306" on="0"/>
        <pt x="235" y="339" on="1"/>
        <pt x="210" y="377" on="0"/>
        <pt x="189" y="433" on="0"/>
        <pt x="189" y="463" on="1"/>
        <pt x="189" y="501" on="0"/>
        <pt x="218" y="562" on="0"/>
        <pt x="265" y="603" on="0"/>
        <pt x="326" y="625" on="0"/>
        <pt x="358" y="625" on="1"/>
        <pt x="417" y="625" on="0"/>
        <pt x="496" y="556" on="0"/>
        <pt x="496" y="502" on="1"/>
        <pt x="496" y="461" on="0"/>
        <pt x="432" y="369" on="0"/>
        <pt x="334" y="333" on="1"/>
        <pt x="359" y="296" on="0"/>
        <pt x="398" y="231" on="0"/>
        <pt x="413" y="194" on="1"/>
        <pt x="435" y="226" on="0"/>
        <pt x="475" y="293" on="0"/>
        <pt x="516" y="348" on="0"/>
        <pt x="564" y="384" on="0"/>
        <pt x="593" y="384" on="1"/>
        <pt x="624" y="384" on="0"/>
        <pt x="656" y="350" on="0"/>
        <pt x="656" y="325" on="1"/>
        <pt x="656" y="297" on="0"/>
        <pt x="625" y="253" on="0"/>
        <pt x="602" y="253" on="1"/>
        <pt x="574" y="253" on="0"/>
        <pt x="555" y="300" on="0"/>
        <pt x="568" y="327" on="1"/>
        <pt x="550" y="318" on="0"/>
        <pt x="517" y="282" on="0"/>
        <pt x="484" y="235" on="0"/>
        <pt x="451" y="181" on="0"/>
        <pt x="433" y="154" on="1"/>
        <pt x="455" y="99" on="0"/>
        <pt x="486" y="44" on="0"/>
        <pt x="505" y="44" on="1"/>
        <pt x="519" y="44" on="0"/>
        <pt x="554" y="74" on="0"/>
        <pt x="581" y="131" on="1"/>
        <pt x="615" y="114" on="1"/>
        <pt x="583" y="36" on="0"/>
        <pt x="519" y="-14" on="0"/>
        <pt x="487" y="-14" on="1"/>
        <pt x="446" y="-14" on="0"/>
        <pt x="399" y="34" on="0"/>
        <pt x="375" y="90" on="1"/>
        <pt x="335" y="44" on="0"/>
        <pt x="246" y="-16" on="0"/>
      </contour>
      <contour>
        <pt x="264" y="485" on="1"/>
        <pt x="264" y="465" on="0"/>
        <pt x="282" y="412" on="0"/>
        <pt x="313" y="364" on="1"/>
        <pt x="381" y="394" on="0"/>
        <pt x="426" y="469" on="0"/>
        <pt x="426" y="502" on="1"/>
        <pt x="426" y="533" on="0"/>
        <pt x="388" y="580" on="0"/>
        <pt x="351" y="580" on="1"/>
        <pt x="317" y="580" on="0"/>
        <pt x="264" y="531" on="0"/>
      </contour>
      <contour>
        <pt x="112" y="144" on="1"/>
        <pt x="112" y="98" on="0"/>
        <pt x="164" y="45" on="0"/>
        <pt x="207" y="45" on="1"/>
        <pt x="256" y="45" on="0"/>
        <pt x="325" y="92" on="0"/>
        <pt x="356" y="129" on="1"/>
        <pt x="335" y="183" on="0"/>
        <pt x="287" y="265" on="0"/>
        <pt x="257" y="308" on="1"/>
        <pt x="172" y="277" on="0"/>
        <pt x="112" y="189" on="0"/>
      </contour>
    </TTGlyph>
    <TTGlyph name="aogonek" xMin="33" yMin="-238" xMax="506" yMax="458">
      <contour>
        <pt x="324" y="-238" on="1"/>
        <pt x="287" y="-238" on="0"/>
        <pt x="233" y="-196" on="0"/>
        <pt x="233" y="-157" on="1"/>
        <pt x="233" y="-120" on="0"/>
        <pt x="290" y="-53" on="0"/>
        <pt x="357" y="-7" on="1"/>
        <pt x="338" y="-3" on="0"/>
        <pt x="305" y="34" on="0"/>
        <pt x="305" y="72" on="1"/>
        <pt x="305" y="79" on="0"/>
        <pt x="307" y="92" on="0"/>
        <pt x="308" y="97" on="1"/>
        <pt x="301" y="100" on="1"/>
        <pt x="270" y="48" on="0"/>
        <pt x="193" y="-9" on="0"/>
        <pt x="153" y="-9" on="1"/>
        <pt x="100" y="-9" on="0"/>
        <pt x="33" y="73" on="0"/>
        <pt x="33" y="142" on="1"/>
        <pt x="33" y="215" on="0"/>
        <pt x="88" y="344" on="0"/>
        <pt x="131" y="387" on="1"/>
        <pt x="163" y="419" on="0"/>
        <pt x="237" y="458" on="0"/>
        <pt x="274" y="458" on="1"/>
        <pt x="311" y="458" on="0"/>
        <pt x="360" y="413" on="0"/>
        <pt x="367" y="371" on="1"/>
        <pt x="389" y="452" on="1"/>
        <pt x="465" y="452" on="1"/>
        <pt x="386" y="162" on="1"/>
        <pt x="378" y="131" on="0"/>
        <pt x="371" y="94" on="0"/>
        <pt x="371" y="80" on="1"/>
        <pt x="371" y="70" on="0"/>
        <pt x="380" y="50" on="0"/>
        <pt x="395" y="50" on="1"/>
        <pt x="416" y="50" on="0"/>
        <pt x="452" y="110" on="0"/>
        <pt x="471" y="161" on="1"/>
        <pt x="506" y="150" on="1"/>
        <pt x="493" y="112" on="0"/>
        <pt x="452" y="28" on="0"/>
        <pt x="413" y="-3" on="1"/>
        <pt x="356" y="-49" on="0"/>
        <pt x="296" y="-115" on="0"/>
        <pt x="296" y="-148" on="1"/>
        <pt x="296" y="-167" on="0"/>
        <pt x="320" y="-193" on="0"/>
        <pt x="345" y="-193" on="1"/>
        <pt x="361" y="-193" on="0"/>
        <pt x="390" y="-181" on="0"/>
        <pt x="402" y="-174" on="1"/>
        <pt x="418" y="-203" on="1"/>
        <pt x="398" y="-219" on="0"/>
        <pt x="350" y="-238" on="0"/>
      </contour>
      <contour>
        <pt x="180" y="49" on="1"/>
        <pt x="212" y="49" on="0"/>
        <pt x="273" y="106" on="0"/>
        <pt x="318" y="187" on="0"/>
        <pt x="346" y="279" on="0"/>
        <pt x="346" y="314" on="1"/>
        <pt x="346" y="349" on="0"/>
        <pt x="314" y="413" on="0"/>
        <pt x="277" y="413" on="1"/>
        <pt x="243" y="413" on="0"/>
        <pt x="183" y="360" on="0"/>
        <pt x="139" y="281" on="0"/>
        <pt x="113" y="188" on="0"/>
        <pt x="113" y="148" on="1"/>
        <pt x="113" y="99" on="0"/>
        <pt x="149" y="49" on="0"/>
      </contour>
    </TTGlyph>
    <TTGlyph name="aring" xMin="33" yMin="-9" xMax="506" yMax="723">
      <component glyphName="a" x="0" y="0" flags="0x204"/>
      <component glyphName="ring" x="113" y="0" flags="0x4"/>
    </TTGlyph>
    <TTGlyph name="aringacute" xMin="33" yMin="-9" xMax="532" yMax="962">
      <component glyphName="a" x="0" y="0" flags="0x204"/>
      <component glyphName="ring" x="113" y="0" flags="0x4"/>
      <component glyphName="acute" x="210" y="239" flags="0x4"/>
    </TTGlyph>
    <TTGlyph name="asciicircum" xMin="59" yMin="285" xMax="468" yMax="642">
      <contour>
        <pt x="59" y="285" on="1"/>
        <pt x="331" y="642" on="1"/>
        <pt x="375" y="642" on="1"/>
        <pt x="468" y="285" on="1"/>
        <pt x="412" y="285" on="1"/>
        <pt x="341" y="576" on="1"/>
        <pt x="124" y="285" on="1"/>
      </contour>
    </TTGlyph>
    <TTGlyph name="asciicircum.osf" xMin="56" yMin="275" xMax="465" yMax="631">
      <contour>
        <pt x="56" y="275" on="1"/>
        <pt x="328" y="631" on="1"/>
        <pt x="372" y="631" on="1"/>
        <pt x="465" y="275" on="1"/>
        <pt x="409" y="275" on="1"/>
        <pt x="338" y="566" on="1"/>
        <pt x="122" y="275" on="1"/>
      </contour>
    </TTGlyph>
    <TTGlyph name="asciicircum.tab" xMin="80" yMin="282" xMax="488" yMax="638">
      <contour>
        <pt x="80" y="282" on="1"/>
        <pt x="352" y="638" on="1"/>
        <pt x="395" y="638" on="1"/>
        <pt x="488" y="282" on="1"/>
        <pt x="433" y="282" on="1"/>
        <pt x="361" y="573" on="1"/>
        <pt x="145" y="282" on="1"/>
      </contour>
    </TTGlyph>
    <TTGlyph name="asciitilde" xMin="71" yMin="202" xMax="661" yMax="425">
      <contour>
        <pt x="120" y="202" on="1"/>
        <pt x="71" y="226" on="1"/>
        <pt x="121" y="330" on="0"/>
        <pt x="212" y="422" on="0"/>
        <pt x="266" y="422" on="1"/>
        <pt x="304" y="422" on="0"/>
        <pt x="358" y="372" on="0"/>
        <pt x="402" y="313" on="0"/>
        <pt x="445" y="263" on="0"/>
        <pt x="471" y="263" on="1"/>
        <pt x="511" y="263" on="0"/>
        <pt x="577" y="353" on="0"/>
        <pt x="612" y="425" on="1"/>
        <pt x="661" y="401" on="1"/>
        <pt x="610" y="297" on="0"/>
        <pt x="520" y="205" on="0"/>
        <pt x="466" y="205" on="1"/>
        <pt x="428" y="205" on="0"/>
        <pt x="374" y="255" on="0"/>
        <pt x="329" y="314" on="0"/>
        <pt x="286" y="364" on="0"/>
        <pt x="260" y="364" on="1"/>
        <pt x="221" y="364" on="0"/>
        <pt x="155" y="274" on="0"/>
      </contour>
    </TTGlyph>
    <TTGlyph name="asciitilde.osf" xMin="62" yMin="166" xMax="652" yMax="389">
      <contour>
        <pt x="111" y="166" on="1"/>
        <pt x="62" y="190" on="1"/>
        <pt x="112" y="294" on="0"/>
        <pt x="203" y="386" on="0"/>
        <pt x="257" y="386" on="1"/>
        <pt x="295" y="386" on="0"/>
        <pt x="349" y="336" on="0"/>
        <pt x="393" y="277" on="0"/>
        <pt x="436" y="227" on="0"/>
        <pt x="462" y="227" on="1"/>
        <pt x="502" y="227" on="0"/>
        <pt x="568" y="317" on="0"/>
        <pt x="603" y="389" on="1"/>
        <pt x="652" y="365" on="1"/>
        <pt x="601" y="261" on="0"/>
        <pt x="511" y="169" on="0"/>
        <pt x="457" y="169" on="1"/>
        <pt x="419" y="169" on="0"/>
        <pt x="365" y="219" on="0"/>
        <pt x="320" y="278" on="0"/>
        <pt x="277" y="328" on="0"/>
        <pt x="251" y="328" on="1"/>
        <pt x="212" y="328" on="0"/>
        <pt x="146" y="238" on="0"/>
      </contour>
    </TTGlyph>
    <TTGlyph name="asciitilde.tab" xMin="31" yMin="196" xMax="552" yMax="431">
      <contour>
        <pt x="78" y="196" on="1"/>
        <pt x="31" y="220" on="1"/>
        <pt x="82" y="330" on="0"/>
        <pt x="171" y="429" on="0"/>
        <pt x="220" y="429" on="1"/>
        <pt x="255" y="429" on="0"/>
        <pt x="295" y="375" on="0"/>
        <pt x="323" y="310" on="0"/>
        <pt x="350" y="256" on="0"/>
        <pt x="372" y="256" on="1"/>
        <pt x="406" y="256" on="0"/>
        <pt x="471" y="356" on="0"/>
        <pt x="505" y="431" on="1"/>
        <pt x="552" y="408" on="1"/>
        <pt x="501" y="298" on="0"/>
        <pt x="413" y="199" on="0"/>
        <pt x="364" y="199" on="1"/>
        <pt x="329" y="199" on="0"/>
        <pt x="289" y="253" on="0"/>
        <pt x="261" y="317" on="0"/>
        <pt x="234" y="371" on="0"/>
        <pt x="211" y="371" on="1"/>
        <pt x="178" y="371" on="0"/>
        <pt x="112" y="271" on="0"/>
      </contour>
    </TTGlyph>
    <TTGlyph name="asterisk" xMin="147" yMin="362" xMax="476" yMax="700">
      <contour>
        <pt x="367" y="369" on="1"/>
        <pt x="352" y="362" on="0"/>
        <pt x="328" y="374" on="0"/>
        <pt x="321" y="393" on="1"/>
        <pt x="318" y="402" on="0"/>
        <pt x="313" y="431" on="0"/>
        <pt x="309" y="463" on="0"/>
        <pt x="306" y="496" on="0"/>
        <pt x="304" y="508" on="1"/>
        <pt x="292" y="510" on="1"/>
        <pt x="278" y="491" on="0"/>
        <pt x="236" y="429" on="0"/>
        <pt x="223" y="418" on="1"/>
        <pt x="207" y="405" on="0"/>
        <pt x="181" y="405" on="0"/>
        <pt x="170" y="418" on="1"/>
        <pt x="159" y="431" on="0"/>
        <pt x="163" y="457" on="0"/>
        <pt x="179" y="470" on="1"/>
        <pt x="186" y="476" on="0"/>
        <pt x="212" y="489" on="0"/>
        <pt x="241" y="503" on="0"/>
        <pt x="271" y="516" on="0"/>
        <pt x="282" y="521" on="1"/>
        <pt x="281" y="533" on="1"/>
        <pt x="269" y="537" on="0"/>
        <pt x="238" y="546" on="0"/>
        <pt x="207" y="555" on="0"/>
        <pt x="179" y="565" on="0"/>
        <pt x="172" y="570" on="1"/>
        <pt x="156" y="581" on="0"/>
        <pt x="147" y="606" on="0"/>
        <pt x="156" y="621" on="1"/>
        <pt x="165" y="635" on="0"/>
        <pt x="192" y="640" on="0"/>
        <pt x="209" y="628" on="1"/>
        <pt x="223" y="618" on="0"/>
        <pt x="272" y="564" on="0"/>
        <pt x="288" y="547" on="1"/>
        <pt x="300" y="551" on="1"/>
        <pt x="301" y="576" on="0"/>
        <pt x="298" y="649" on="0"/>
        <pt x="302" y="666" on="1"/>
        <pt x="307" y="686" on="0"/>
        <pt x="329" y="700" on="0"/>
        <pt x="346" y="696" on="1"/>
        <pt x="362" y="692" on="0"/>
        <pt x="373" y="669" on="0"/>
        <pt x="368" y="649" on="1"/>
        <pt x="364" y="633" on="0"/>
        <pt x="326" y="569" on="0"/>
        <pt x="315" y="548" on="1"/>
        <pt x="323" y="538" on="1"/>
        <pt x="345" y="545" on="0"/>
        <pt x="415" y="571" on="0"/>
        <pt x="433" y="572" on="1"/>
        <pt x="453" y="573" on="0"/>
        <pt x="474" y="558" on="0"/>
        <pt x="475" y="541" on="1"/>
        <pt x="476" y="524" on="0"/>
        <pt x="459" y="506" on="0"/>
        <pt x="437" y="504" on="1"/>
        <pt x="428" y="504" on="0"/>
        <pt x="400" y="508" on="0"/>
        <pt x="367" y="514" on="0"/>
        <pt x="336" y="521" on="0"/>
        <pt x="324" y="523" on="1"/>
        <pt x="317" y="512" on="1"/>
        <pt x="331" y="493" on="0"/>
        <pt x="377" y="435" on="0"/>
        <pt x="384" y="418" on="1"/>
        <pt x="391" y="399" on="0"/>
        <pt x="383" y="376" on="0"/>
      </contour>
    </TTGlyph>
    <TTGlyph name="at" xMin="55" yMin="-146" xMax="855" yMax="679">
      <contour>
        <pt x="413" y="-146" on="1"/>
        <pt x="336" y="-146" on="0"/>
        <pt x="204" y="-99" on="0"/>
        <pt x="109" y="-11" on="0"/>
        <pt x="55" y="116" on="0"/>
        <pt x="55" y="196" on="1"/>
        <pt x="55" y="296" on="0"/>
        <pt x="131" y="473" on="0"/>
        <pt x="260" y="603" on="0"/>
        <pt x="432" y="679" on="0"/>
        <pt x="528" y="679" on="1"/>
        <pt x="597" y="679" on="0"/>
        <pt x="717" y="637" on="0"/>
        <pt x="805" y="559" on="0"/>
        <pt x="855" y="446" on="0"/>
        <pt x="855" y="375" on="1"/>
        <pt x="855" y="307" on="0"/>
        <pt x="818" y="190" on="0"/>
        <pt x="755" y="105" on="0"/>
        <pt x="670" y="56" on="0"/>
        <pt x="623" y="56" on="1"/>
        <pt x="571" y="56" on="0"/>
        <pt x="515" y="116" on="0"/>
        <pt x="522" y="169" on="1"/>
        <pt x="517" y="170" on="1"/>
        <pt x="488" y="122" on="0"/>
        <pt x="415" y="71" on="0"/>
        <pt x="378" y="71" on="1"/>
        <pt x="329" y="71" on="0"/>
        <pt x="260" y="143" on="0"/>
        <pt x="260" y="210" on="1"/>
        <pt x="260" y="259" on="0"/>
        <pt x="297" y="354" on="0"/>
        <pt x="359" y="428" on="0"/>
        <pt x="439" y="473" on="0"/>
        <pt x="482" y="473" on="1"/>
        <pt x="516" y="473" on="0"/>
        <pt x="569" y="433" on="0"/>
        <pt x="576" y="391" on="1"/>
        <pt x="600" y="468" on="1"/>
        <pt x="665" y="468" on="1"/>
        <pt x="587" y="219" on="1"/>
        <pt x="566" y="153" on="0"/>
        <pt x="596" y="97" on="0"/>
        <pt x="636" y="97" on="1"/>
        <pt x="666" y="97" on="0"/>
        <pt x="728" y="136" on="0"/>
        <pt x="777" y="207" on="0"/>
        <pt x="809" y="310" on="0"/>
        <pt x="809" y="373" on="1"/>
        <pt x="809" y="434" on="0"/>
        <pt x="767" y="533" on="0"/>
        <pt x="692" y="602" on="0"/>
        <pt x="587" y="639" on="0"/>
        <pt x="524" y="639" on="1"/>
        <pt x="437" y="639" on="0"/>
        <pt x="282" y="568" on="0"/>
        <pt x="168" y="447" on="0"/>
        <pt x="101" y="286" on="0"/>
        <pt x="101" y="197" on="1"/>
        <pt x="101" y="129" on="0"/>
        <pt x="146" y="16" on="0"/>
        <pt x="228" y="-63" on="0"/>
        <pt x="346" y="-106" on="0"/>
        <pt x="418" y="-106" on="1"/>
        <pt x="477" y="-106" on="0"/>
        <pt x="585" y="-77" on="0"/>
        <pt x="634" y="-50" on="1"/>
        <pt x="650" y="-83" on="1"/>
        <pt x="599" y="-114" on="0"/>
        <pt x="476" y="-146" on="0"/>
      </contour>
      <contour>
        <pt x="396" y="120" on="1"/>
        <pt x="428" y="120" on="0"/>
        <pt x="485" y="167" on="0"/>
        <pt x="526" y="235" on="0"/>
        <pt x="550" y="313" on="0"/>
        <pt x="550" y="344" on="1"/>
        <pt x="550" y="375" on="0"/>
        <pt x="522" y="433" on="0"/>
        <pt x="484" y="433" on="1"/>
        <pt x="451" y="433" on="0"/>
        <pt x="395" y="388" on="0"/>
        <pt x="356" y="320" on="0"/>
        <pt x="333" y="238" on="0"/>
        <pt x="333" y="202" on="1"/>
        <pt x="333" y="164" on="0"/>
        <pt x="366" y="120" on="0"/>
      </contour>
    </TTGlyph>
    <TTGlyph name="atilde" xMin="33" yMin="-9" xMax="506" yMax="661">
      <component glyphName="a" x="0" y="0" flags="0x204"/>
      <component glyphName="tilde" x="76" y="0" flags="0x4"/>
    </TTGlyph>
    <TTGlyph name="b" xMin="50" yMin="-9" xMax="444" yMax="687">
      <contour>
        <pt x="191" y="-9" on="1"/>
        <pt x="127" y="-9" on="0"/>
        <pt x="50" y="69" on="0"/>
        <pt x="50" y="135" on="1"/>
        <pt x="50" y="168" on="0"/>
        <pt x="68" y="251" on="0"/>
        <pt x="78" y="288" on="1"/>
        <pt x="174" y="633" on="1"/>
        <pt x="81" y="633" on="1"/>
        <pt x="95" y="687" on="1"/>
        <pt x="264" y="687" on="1"/>
        <pt x="168" y="351" on="1"/>
        <pt x="175" y="348" on="1"/>
        <pt x="206" y="400" on="0"/>
        <pt x="283" y="458" on="0"/>
        <pt x="324" y="458" on="1"/>
        <pt x="378" y="458" on="0"/>
        <pt x="444" y="373" on="0"/>
        <pt x="444" y="304" on="1"/>
        <pt x="444" y="241" on="0"/>
        <pt x="399" y="127" on="0"/>
        <pt x="326" y="41" on="0"/>
        <pt x="236" y="-9" on="0"/>
      </contour>
      <contour>
        <pt x="202" y="39" on="1"/>
        <pt x="239" y="39" on="0"/>
        <pt x="299" y="95" on="0"/>
        <pt x="341" y="176" on="0"/>
        <pt x="364" y="269" on="0"/>
        <pt x="364" y="306" on="1"/>
        <pt x="364" y="353" on="0"/>
        <pt x="330" y="402" on="0"/>
        <pt x="299" y="402" on="1"/>
        <pt x="266" y="402" on="0"/>
        <pt x="203" y="347" on="0"/>
        <pt x="156" y="267" on="0"/>
        <pt x="127" y="175" on="0"/>
        <pt x="127" y="138" on="1"/>
        <pt x="127" y="95" on="0"/>
        <pt x="162" y="39" on="0"/>
      </contour>
    </TTGlyph>
    <TTGlyph name="backslash" xMin="140" yMin="-207" xMax="352" yMax="703">
      <contour>
        <pt x="301" y="-207" on="1"/>
        <pt x="140" y="694" on="1"/>
        <pt x="192" y="703" on="1"/>
        <pt x="352" y="-198" on="1"/>
      </contour>
    </TTGlyph>
    <TTGlyph name="bar" xMin="6" yMin="-206" xMax="284" yMax="703">
      <contour>
        <pt x="59" y="-206" on="1"/>
        <pt x="6" y="-199" on="1"/>
        <pt x="231" y="703" on="1"/>
        <pt x="284" y="695" on="1"/>
      </contour>
    </TTGlyph>
    <TTGlyph name="bar.tab" xMin="18" yMin="-141" xMax="296" yMax="768">
      <component glyphName="bar" x="12" y="65" flags="0x4"/>
    </TTGlyph>
    <TTGlyph name="braceleft" xMin="26" yMin="-153" xMax="500" yMax="725">
      <contour>
        <pt x="289" y="-153" on="1"/>
        <pt x="205" y="-139" on="0"/>
        <pt x="120" y="-72" on="0"/>
        <pt x="120" y="-15" on="1"/>
        <pt x="120" y="13" on="0"/>
        <pt x="136" y="73" on="0"/>
        <pt x="155" y="129" on="0"/>
        <pt x="171" y="180" on="0"/>
        <pt x="171" y="199" on="1"/>
        <pt x="171" y="224" on="0"/>
        <pt x="123" y="260" on="0"/>
        <pt x="61" y="260" on="1"/>
        <pt x="26" y="260" on="1"/>
        <pt x="38" y="308" on="1"/>
        <pt x="68" y="308" on="1"/>
        <pt x="110" y="308" on="0"/>
        <pt x="171" y="327" on="0"/>
        <pt x="193" y="348" on="1"/>
        <pt x="220" y="376" on="0"/>
        <pt x="235" y="458" on="0"/>
        <pt x="244" y="546" on="0"/>
        <pt x="265" y="634" on="0"/>
        <pt x="297" y="666" on="1"/>
        <pt x="328" y="697" on="0"/>
        <pt x="428" y="725" on="0"/>
        <pt x="500" y="721" on="1"/>
        <pt x="488" y="676" on="1"/>
        <pt x="442" y="676" on="0"/>
        <pt x="382" y="658" on="0"/>
        <pt x="364" y="640" on="1"/>
        <pt x="339" y="615" on="0"/>
        <pt x="322" y="534" on="0"/>
        <pt x="310" y="447" on="0"/>
        <pt x="289" y="363" on="0"/>
        <pt x="261" y="335" on="1"/>
        <pt x="239" y="313" on="0"/>
        <pt x="180" y="289" on="0"/>
        <pt x="143" y="285" on="1"/>
        <pt x="142" y="282" on="1"/>
        <pt x="191" y="273" on="0"/>
        <pt x="241" y="225" on="0"/>
        <pt x="241" y="188" on="1"/>
        <pt x="241" y="166" on="0"/>
        <pt x="227" y="114" on="0"/>
        <pt x="210" y="59" on="0"/>
        <pt x="196" y="6" on="0"/>
        <pt x="196" y="-16" on="1"/>
        <pt x="196" y="-45" on="0"/>
        <pt x="238" y="-94" on="0"/>
        <pt x="301" y="-107" on="1"/>
      </contour>
    </TTGlyph>
    <TTGlyph name="braceright" xMin="-100" yMin="-157" xMax="374" yMax="721">
      <contour>
        <pt x="111" y="721" on="1"/>
        <pt x="195" y="707" on="0"/>
        <pt x="280" y="640" on="0"/>
        <pt x="280" y="583" on="1"/>
        <pt x="280" y="555" on="0"/>
        <pt x="264" y="495" on="0"/>
        <pt x="245" y="439" on="0"/>
        <pt x="229" y="388" on="0"/>
        <pt x="229" y="369" on="1"/>
        <pt x="229" y="344" on="0"/>
        <pt x="277" y="308" on="0"/>
        <pt x="339" y="308" on="1"/>
        <pt x="374" y="308" on="1"/>
        <pt x="362" y="260" on="1"/>
        <pt x="332" y="260" on="1"/>
        <pt x="290" y="260" on="0"/>
        <pt x="229" y="241" on="0"/>
        <pt x="207" y="220" on="1"/>
        <pt x="180" y="192" on="0"/>
        <pt x="165" y="110" on="0"/>
        <pt x="156" y="22" on="0"/>
        <pt x="135" y="-66" on="0"/>
        <pt x="103" y="-98" on="1"/>
        <pt x="72" y="-129" on="0"/>
        <pt x="-28" y="-157" on="0"/>
        <pt x="-100" y="-153" on="1"/>
        <pt x="-88" y="-108" on="1"/>
        <pt x="-42" y="-108" on="0"/>
        <pt x="18" y="-90" on="0"/>
        <pt x="36" y="-72" on="1"/>
        <pt x="61" y="-47" on="0"/>
        <pt x="78" y="34" on="0"/>
        <pt x="90" y="121" on="0"/>
        <pt x="111" y="205" on="0"/>
        <pt x="139" y="233" on="1"/>
        <pt x="161" y="255" on="0"/>
        <pt x="220" y="279" on="0"/>
        <pt x="257" y="283" on="1"/>
        <pt x="258" y="286" on="1"/>
        <pt x="209" y="295" on="0"/>
        <pt x="159" y="343" on="0"/>
        <pt x="159" y="380" on="1"/>
        <pt x="159" y="402" on="0"/>
        <pt x="173" y="454" on="0"/>
        <pt x="190" y="509" on="0"/>
        <pt x="204" y="562" on="0"/>
        <pt x="204" y="584" on="1"/>
        <pt x="204" y="613" on="0"/>
        <pt x="162" y="662" on="0"/>
        <pt x="99" y="675" on="1"/>
      </contour>
    </TTGlyph>
    <TTGlyph name="bracketleft" xMin="-4" yMin="-152" xMax="462" yMax="720">
      <contour>
        <pt x="-4" y="-152" on="1"/>
        <pt x="213" y="720" on="1"/>
        <pt x="462" y="720" on="1"/>
        <pt x="450" y="671" on="1"/>
        <pt x="279" y="671" on="1"/>
        <pt x="86" y="-103" on="1"/>
        <pt x="257" y="-103" on="1"/>
        <pt x="245" y="-152" on="1"/>
      </contour>
    </TTGlyph>
    <TTGlyph name="bracketright" xMin="-94" yMin="-152" xMax="372" yMax="720">
      <contour>
        <pt x="372" y="720" on="1"/>
        <pt x="155" y="-152" on="1"/>
        <pt x="-94" y="-152" on="1"/>
        <pt x="-82" y="-103" on="1"/>
        <pt x="89" y="-103" on="1"/>
        <pt x="282" y="671" on="1"/>
        <pt x="111" y="671" on="1"/>
        <pt x="123" y="720" on="1"/>
      </contour>
    </TTGlyph>
    <TTGlyph name="breve" xMin="140" yMin="535" xMax="413" yMax="684">
      <contour>
        <pt x="255" y="535" on="1"/>
        <pt x="198" y="535" on="0"/>
        <pt x="140" y="614" on="0"/>
        <pt x="154" y="684" on="1"/>
        <pt x="185" y="684" on="1"/>
        <pt x="186" y="643" on="0"/>
        <pt x="223" y="596" on="0"/>
        <pt x="264" y="596" on="1"/>
        <pt x="301" y="596" on="0"/>
        <pt x="358" y="643" on="0"/>
        <pt x="380" y="684" on="1"/>
        <pt x="413" y="684" on="1"/>
        <pt x="394" y="615" on="0"/>
        <pt x="309" y="535" on="0"/>
      </contour>
    </TTGlyph>
    <TTGlyph name="bullet" xMin="134" yMin="193" xMax="372" yMax="438">
      <contour>
        <pt x="242" y="193" on="1"/>
        <pt x="196" y="193" on="0"/>
        <pt x="134" y="254" on="0"/>
        <pt x="134" y="302" on="1"/>
        <pt x="134" y="356" on="0"/>
        <pt x="212" y="438" on="0"/>
        <pt x="265" y="438" on="1"/>
        <pt x="311" y="438" on="0"/>
        <pt x="372" y="377" on="0"/>
        <pt x="372" y="329" on="1"/>
        <pt x="372" y="275" on="0"/>
        <pt x="294" y="193" on="0"/>
      </contour>
    </TTGlyph>
    <TTGlyph name="c" xMin="31" yMin="-9" xMax="413" yMax="458">
      <contour>
        <pt x="193" y="-9" on="1"/>
        <pt x="120" y="-9" on="0"/>
        <pt x="31" y="92" on="0"/>
        <pt x="31" y="170" on="1"/>
        <pt x="31" y="223" on="0"/>
        <pt x="73" y="327" on="0"/>
        <pt x="144" y="408" on="0"/>
        <pt x="237" y="458" on="0"/>
        <pt x="287" y="458" on="1"/>
        <pt x="341" y="458" on="0"/>
        <pt x="413" y="402" on="0"/>
        <pt x="413" y="359" on="1"/>
        <pt x="413" y="334" on="0"/>
        <pt x="384" y="289" on="0"/>
        <pt x="359" y="289" on="1"/>
        <pt x="340" y="289" on="0"/>
        <pt x="313" y="314" on="0"/>
        <pt x="313" y="333" on="1"/>
        <pt x="313" y="349" on="0"/>
        <pt x="330" y="381" on="0"/>
        <pt x="346" y="394" on="1"/>
        <pt x="336" y="405" on="0"/>
        <pt x="305" y="418" on="0"/>
        <pt x="286" y="418" on="1"/>
        <pt x="245" y="418" on="0"/>
        <pt x="180" y="366" on="0"/>
        <pt x="136" y="291" on="0"/>
        <pt x="112" y="204" on="0"/>
        <pt x="112" y="169" on="1"/>
        <pt x="112" y="104" on="0"/>
        <pt x="168" y="41" on="0"/>
        <pt x="208" y="41" on="1"/>
        <pt x="242" y="41" on="0"/>
        <pt x="310" y="89" on="0"/>
        <pt x="342" y="146" on="1"/>
        <pt x="375" y="127" on="1"/>
        <pt x="343" y="68" on="0"/>
        <pt x="257" y="-9" on="0"/>
      </contour>
    </TTGlyph>
    <TTGlyph name="cacute" xMin="31" yMin="-9" xMax="453" yMax="723">
      <component glyphName="c" x="0" y="0" flags="0x204"/>
      <component glyphName="acute" x="131" y="0" flags="0x4"/>
    </TTGlyph>
    <TTGlyph name="caron" xMin="150" yMin="538" xMax="404" yMax="718">
      <contour>
        <pt x="212" y="538" on="1"/>
        <pt x="150" y="718" on="1"/>
        <pt x="187" y="718" on="1"/>
        <pt x="245" y="617" on="1"/>
        <pt x="362" y="718" on="1"/>
        <pt x="404" y="718" on="1"/>
        <pt x="250" y="538" on="1"/>
      </contour>
    </TTGlyph>
    <TTGlyph name="caron.alt" xMin="153" yMin="532" xMax="273" yMax="751">
      <contour>
        <pt x="153" y="532" on="1"/>
        <pt x="190" y="689" on="1"/>
        <pt x="198" y="724" on="0"/>
        <pt x="222" y="751" on="0"/>
        <pt x="238" y="751" on="1"/>
        <pt x="253" y="751" on="0"/>
        <pt x="273" y="731" on="0"/>
        <pt x="273" y="715" on="1"/>
        <pt x="273" y="701" on="0"/>
        <pt x="258" y="667" on="0"/>
        <pt x="245" y="642" on="1"/>
        <pt x="186" y="532" on="1"/>
      </contour>
    </TTGlyph>
    <TTGlyph name="ccaron" xMin="31" yMin="-9" xMax="464" yMax="718">
      <component glyphName="c" x="0" y="0" flags="0x204"/>
      <component glyphName="caron" x="60" y="0" flags="0x4"/>
    </TTGlyph>
    <TTGlyph name="ccedilla" xMin="27" yMin="-238" xMax="413" yMax="458">
      <contour>
        <pt x="134" y="-238" on="1"/>
        <pt x="106" y="-238" on="0"/>
        <pt x="49" y="-217" on="0"/>
        <pt x="27" y="-196" on="1"/>
        <pt x="51" y="-166" on="1"/>
        <pt x="70" y="-180" on="0"/>
        <pt x="107" y="-197" on="0"/>
        <pt x="131" y="-197" on="1"/>
        <pt x="153" y="-197" on="0"/>
        <pt x="185" y="-173" on="0"/>
        <pt x="185" y="-150" on="1"/>
        <pt x="185" y="-135" on="0"/>
        <pt x="167" y="-117" on="0"/>
        <pt x="139" y="-109" on="0"/>
        <pt x="106" y="-108" on="0"/>
        <pt x="92" y="-109" on="1"/>
        <pt x="82" y="-89" on="1"/>
        <pt x="179" y="-8" on="1"/>
        <pt x="112" y="-4" on="0"/>
        <pt x="31" y="95" on="0"/>
        <pt x="31" y="170" on="1"/>
        <pt x="31" y="223" on="0"/>
        <pt x="73" y="327" on="0"/>
        <pt x="144" y="408" on="0"/>
        <pt x="237" y="458" on="0"/>
        <pt x="287" y="458" on="1"/>
        <pt x="341" y="458" on="0"/>
        <pt x="413" y="402" on="0"/>
        <pt x="413" y="359" on="1"/>
        <pt x="413" y="334" on="0"/>
        <pt x="384" y="289" on="0"/>
        <pt x="359" y="289" on="1"/>
        <pt x="340" y="289" on="0"/>
        <pt x="313" y="314" on="0"/>
        <pt x="313" y="333" on="1"/>
        <pt x="313" y="349" on="0"/>
        <pt x="330" y="381" on="0"/>
        <pt x="346" y="394" on="1"/>
        <pt x="336" y="405" on="0"/>
        <pt x="305" y="418" on="0"/>
        <pt x="286" y="418" on="1"/>
        <pt x="245" y="418" on="0"/>
        <pt x="180" y="366" on="0"/>
        <pt x="136" y="291" on="0"/>
        <pt x="112" y="204" on="0"/>
        <pt x="112" y="169" on="1"/>
        <pt x="112" y="104" on="0"/>
        <pt x="168" y="41" on="0"/>
        <pt x="208" y="41" on="1"/>
        <pt x="242" y="41" on="0"/>
        <pt x="310" y="89" on="0"/>
        <pt x="342" y="146" on="1"/>
        <pt x="375" y="127" on="1"/>
        <pt x="349" y="79" on="0"/>
        <pt x="283" y="9" on="0"/>
        <pt x="237" y="-3" on="1"/>
        <pt x="158" y="-68" on="1"/>
        <pt x="158" y="-71" on="1"/>
        <pt x="195" y="-75" on="0"/>
        <pt x="242" y="-114" on="0"/>
        <pt x="242" y="-145" on="1"/>
        <pt x="242" y="-183" on="0"/>
        <pt x="183" y="-238" on="0"/>
      </contour>
    </TTGlyph>
    <TTGlyph name="cdotaccent" xMin="31" yMin="-9" xMax="413" yMax="643">
      <component glyphName="c" x="0" y="0" flags="0x204"/>
      <component glyphName="dotaccent" x="127" y="0" flags="0x4"/>
    </TTGlyph>
    <TTGlyph name="cedilla" xMin="-87" yMin="-238" xMax="136" yMax="7">
      <contour>
        <pt x="20" y="-238" on="1"/>
        <pt x="-8" y="-238" on="0"/>
        <pt x="-65" y="-217" on="0"/>
        <pt x="-87" y="-196" on="1"/>
        <pt x="-63" y="-166" on="1"/>
        <pt x="-44" y="-180" on="0"/>
        <pt x="-7" y="-197" on="0"/>
        <pt x="17" y="-197" on="1"/>
        <pt x="39" y="-197" on="0"/>
        <pt x="71" y="-173" on="0"/>
        <pt x="71" y="-150" on="1"/>
        <pt x="71" y="-135" on="0"/>
        <pt x="53" y="-117" on="0"/>
        <pt x="25" y="-109" on="0"/>
        <pt x="-8" y="-108" on="0"/>
        <pt x="-22" y="-109" on="1"/>
        <pt x="-32" y="-89" on="1"/>
        <pt x="83" y="7" on="1"/>
        <pt x="136" y="7" on="1"/>
        <pt x="44" y="-68" on="1"/>
        <pt x="44" y="-71" on="1"/>
        <pt x="81" y="-75" on="0"/>
        <pt x="128" y="-114" on="0"/>
        <pt x="128" y="-145" on="1"/>
        <pt x="128" y="-183" on="0"/>
        <pt x="69" y="-238" on="0"/>
      </contour>
    </TTGlyph>
    <TTGlyph name="cent" xMin="36" yMin="-104" xMax="443" yMax="543">
      <contour>
        <pt x="207" y="-9" on="1"/>
        <pt x="204" y="-9" on="1"/>
        <pt x="180" y="-104" on="1"/>
        <pt x="137" y="-96" on="1"/>
        <pt x="160" y="-4" on="1"/>
        <pt x="101" y="9" on="0"/>
        <pt x="36" y="103" on="0"/>
        <pt x="36" y="170" on="1"/>
        <pt x="36" y="221" on="0"/>
        <pt x="73" y="321" on="0"/>
        <pt x="138" y="400" on="0"/>
        <pt x="227" y="452" on="0"/>
        <pt x="278" y="457" on="1"/>
        <pt x="298" y="543" on="1"/>
        <pt x="342" y="535" on="1"/>
        <pt x="323" y="457" on="1"/>
        <pt x="378" y="451" on="0"/>
        <pt x="443" y="392" on="0"/>
        <pt x="443" y="353" on="1"/>
        <pt x="443" y="328" on="0"/>
        <pt x="414" y="283" on="0"/>
        <pt x="389" y="283" on="1"/>
        <pt x="370" y="283" on="0"/>
        <pt x="343" y="308" on="0"/>
        <pt x="343" y="327" on="1"/>
        <pt x="343" y="343" on="0"/>
        <pt x="360" y="375" on="0"/>
        <pt x="376" y="388" on="1"/>
        <pt x="367" y="400" on="0"/>
        <pt x="334" y="417" on="0"/>
        <pt x="311" y="418" on="1"/>
        <pt x="217" y="41" on="1"/>
        <pt x="218" y="41" on="0"/>
        <pt x="221" y="41" on="0"/>
        <pt x="222" y="41" on="1"/>
        <pt x="263" y="41" on="0"/>
        <pt x="333" y="89" on="0"/>
        <pt x="366" y="146" on="1"/>
        <pt x="398" y="127" on="1"/>
        <pt x="366" y="67" on="0"/>
        <pt x="279" y="-9" on="0"/>
      </contour>
      <contour>
        <pt x="117" y="169" on="1"/>
        <pt x="117" y="120" on="0"/>
        <pt x="149" y="61" on="0"/>
        <pt x="177" y="49" on="1"/>
        <pt x="267" y="414" on="1"/>
        <pt x="229" y="405" on="0"/>
        <pt x="173" y="350" on="0"/>
        <pt x="136" y="279" on="0"/>
        <pt x="117" y="201" on="0"/>
      </contour>
    </TTGlyph>
    <TTGlyph name="cent.tab" xMin="84" yMin="-104" xMax="503" yMax="543">
      <contour>
        <pt x="236" y="-104" on="1"/>
        <pt x="192" y="-96" on="1"/>
        <pt x="214" y="-4" on="1"/>
        <pt x="153" y="9" on="0"/>
        <pt x="85" y="102" on="0"/>
        <pt x="84" y="170" on="1"/>
        <pt x="84" y="221" on="0"/>
        <pt x="121" y="320" on="0"/>
        <pt x="187" y="399" on="0"/>
        <pt x="277" y="452" on="0"/>
        <pt x="330" y="457" on="1"/>
        <pt x="351" y="543" on="1"/>
        <pt x="395" y="535" on="1"/>
        <pt x="377" y="457" on="1"/>
        <pt x="434" y="452" on="0"/>
        <pt x="503" y="393" on="0"/>
        <pt x="503" y="353" on="1"/>
        <pt x="503" y="328" on="0"/>
        <pt x="475" y="284" on="0"/>
        <pt x="449" y="284" on="1"/>
        <pt x="429" y="284" on="0"/>
        <pt x="403" y="309" on="0"/>
        <pt x="403" y="330" on="1"/>
        <pt x="403" y="345" on="0"/>
        <pt x="418" y="376" on="0"/>
        <pt x="434" y="389" on="1"/>
        <pt x="424" y="401" on="0"/>
        <pt x="390" y="417" on="0"/>
        <pt x="365" y="418" on="1"/>
        <pt x="272" y="41" on="1"/>
        <pt x="276" y="41" on="1"/>
        <pt x="319" y="41" on="0"/>
        <pt x="390" y="89" on="0"/>
        <pt x="424" y="146" on="1"/>
        <pt x="458" y="127" on="1"/>
        <pt x="425" y="67" on="0"/>
        <pt x="336" y="-9" on="0"/>
        <pt x="261" y="-9" on="1"/>
        <pt x="259" y="-9" on="1"/>
      </contour>
      <contour>
        <pt x="167" y="171" on="1"/>
        <pt x="167" y="121" on="0"/>
        <pt x="201" y="61" on="0"/>
        <pt x="230" y="49" on="1"/>
        <pt x="319" y="414" on="1"/>
        <pt x="281" y="404" on="0"/>
        <pt x="223" y="350" on="0"/>
        <pt x="186" y="280" on="0"/>
        <pt x="167" y="203" on="0"/>
      </contour>
    </TTGlyph>
    <TTGlyph name="circumflex" xMin="102" yMin="529" xMax="356" yMax="709">
      <contour>
        <pt x="102" y="529" on="1"/>
        <pt x="256" y="709" on="1"/>
        <pt x="293" y="709" on="1"/>
        <pt x="356" y="529" on="1"/>
        <pt x="319" y="529" on="1"/>
        <pt x="260" y="630" on="1"/>
        <pt x="144" y="529" on="1"/>
      </contour>
    </TTGlyph>
    <TTGlyph name="colon" xMin="13" yMin="-15" xMax="197" yMax="397">
      <contour>
        <pt x="140" y="280" on="1"/>
        <pt x="118" y="280" on="0"/>
        <pt x="89" y="309" on="0"/>
        <pt x="89" y="334" on="1"/>
        <pt x="89" y="357" on="0"/>
        <pt x="121" y="397" on="0"/>
        <pt x="146" y="397" on="1"/>
        <pt x="168" y="397" on="0"/>
        <pt x="197" y="367" on="0"/>
        <pt x="197" y="342" on="1"/>
        <pt x="197" y="320" on="0"/>
        <pt x="165" y="280" on="0"/>
      </contour>
      <contour>
        <pt x="64" y="-15" on="1"/>
        <pt x="42" y="-15" on="0"/>
        <pt x="13" y="15" on="0"/>
        <pt x="13" y="40" on="1"/>
        <pt x="13" y="62" on="0"/>
        <pt x="44" y="103" on="0"/>
        <pt x="70" y="103" on="1"/>
        <pt x="91" y="103" on="0"/>
        <pt x="121" y="73" on="0"/>
        <pt x="121" y="48" on="1"/>
        <pt x="121" y="26" on="0"/>
        <pt x="89" y="-15" on="0"/>
      </contour>
    </TTGlyph>
    <TTGlyph name="colon.fig" xMin="45" yMin="108" xMax="229" yMax="520">
      <component glyphName="colon" x="32" y="123" flags="0x4"/>
    </TTGlyph>
    <TTGlyph name="colon.tab" xMin="36" yMin="-15" xMax="220" yMax="397">
      <component glyphName="colon" x="23" y="0" flags="0x4"/>
    </TTGlyph>
    <TTGlyph name="colonmonetary" xMin="75" yMin="-145" xMax="649" yMax="767">
      <contour>
        <pt x="132" y="-145" on="1"/>
        <pt x="83" y="-133" on="1"/>
        <pt x="150" y="31" on="1"/>
        <pt x="150" y="31" on="1"/>
        <pt x="114" y="62" on="0"/>
        <pt x="75" y="163" on="0"/>
        <pt x="75" y="228" on="1"/>
        <pt x="75" y="312" on="0"/>
        <pt x="129" y="464" on="0"/>
        <pt x="220" y="577" on="0"/>
        <pt x="340" y="643" on="0"/>
        <pt x="406" y="643" on="1"/>
        <pt x="408" y="643" on="1"/>
        <pt x="458" y="767" on="1"/>
        <pt x="508" y="755" on="1"/>
        <pt x="459" y="637" on="1"/>
        <pt x="481" y="633" on="0"/>
        <pt x="518" y="615" on="0"/>
        <pt x="532" y="604" on="1"/>
        <pt x="599" y="767" on="1"/>
        <pt x="649" y="755" on="1"/>
        <pt x="569" y="562" on="1"/>
        <pt x="577" y="549" on="0"/>
        <pt x="585" y="518" on="0"/>
        <pt x="585" y="503" on="1"/>
        <pt x="585" y="469" on="0"/>
        <pt x="547" y="418" on="0"/>
        <pt x="516" y="418" on="1"/>
        <pt x="513" y="418" on="0"/>
        <pt x="506" y="418" on="0"/>
        <pt x="503" y="419" on="1"/>
        <pt x="347" y="50" on="1"/>
        <pt x="388" y="62" on="0"/>
        <pt x="451" y="133" on="0"/>
        <pt x="473" y="188" on="1"/>
        <pt x="517" y="172" on="1"/>
        <pt x="493" y="104" on="0"/>
        <pt x="396" y="1" on="0"/>
        <pt x="327" y="-12" on="1"/>
        <pt x="272" y="-145" on="1"/>
        <pt x="223" y="-133" on="1"/>
        <pt x="272" y="-16" on="1"/>
        <pt x="250" y="-15" on="0"/>
        <pt x="210" y="-4" on="0"/>
        <pt x="193" y="4" on="1"/>
      </contour>
      <contour>
        <pt x="161" y="227" on="1"/>
        <pt x="161" y="187" on="0"/>
        <pt x="174" y="127" on="0"/>
        <pt x="187" y="105" on="1"/>
        <pt x="391" y="592" on="1"/>
        <pt x="335" y="587" on="0"/>
        <pt x="248" y="514" on="0"/>
        <pt x="191" y="408" on="0"/>
        <pt x="161" y="283" on="0"/>
      </contour>
      <contour>
        <pt x="511" y="545" on="1"/>
        <pt x="498" y="566" on="0"/>
        <pt x="458" y="588" on="0"/>
        <pt x="436" y="591" on="1"/>
        <pt x="218" y="71" on="1"/>
        <pt x="234" y="57" on="0"/>
        <pt x="276" y="43" on="0"/>
        <pt x="301" y="43" on="1"/>
        <pt x="469" y="444" on="1"/>
        <pt x="465" y="450" on="0"/>
        <pt x="461" y="464" on="0"/>
        <pt x="461" y="472" on="1"/>
        <pt x="461" y="494" on="0"/>
        <pt x="488" y="533" on="0"/>
      </contour>
    </TTGlyph>
    <TTGlyph name="comma" xMin="-58" yMin="-136" xMax="122" yMax="101">
      <contour>
        <pt x="-48" y="-136" on="1"/>
        <pt x="-58" y="-103" on="1"/>
        <pt x="0" y="-82" on="0"/>
        <pt x="58" y="-31" on="0"/>
        <pt x="67" y="-5" on="1"/>
        <pt x="64" y="-2" on="1"/>
        <pt x="61" y="-4" on="0"/>
        <pt x="51" y="-7" on="0"/>
        <pt x="48" y="-7" on="1"/>
        <pt x="31" y="-7" on="0"/>
        <pt x="6" y="16" on="0"/>
        <pt x="6" y="38" on="1"/>
        <pt x="6" y="60" on="0"/>
        <pt x="37" y="101" on="0"/>
        <pt x="64" y="101" on="1"/>
        <pt x="93" y="101" on="0"/>
        <pt x="122" y="62" on="0"/>
        <pt x="122" y="34" on="1"/>
        <pt x="122" y="-11" on="0"/>
        <pt x="46" y="-108" on="0"/>
      </contour>
    </TTGlyph>
    <TTGlyph name="comma.tab" xMin="-33" yMin="-136" xMax="147" yMax="101">
      <component glyphName="comma" x="25" y="0" flags="0x4"/>
    </TTGlyph>
    <TTGlyph name="copyright" xMin="67" yMin="-32" xMax="786" yMax="690">
      <contour>
        <pt x="426" y="-32" on="1"/>
        <pt x="351" y="-32" on="0"/>
        <pt x="219" y="24" on="0"/>
        <pt x="123" y="121" on="0"/>
        <pt x="67" y="254" on="0"/>
        <pt x="67" y="330" on="1"/>
        <pt x="67" y="406" on="0"/>
        <pt x="123" y="538" on="0"/>
        <pt x="219" y="634" on="0"/>
        <pt x="351" y="690" on="0"/>
        <pt x="426" y="690" on="1"/>
        <pt x="501" y="690" on="0"/>
        <pt x="633" y="634" on="0"/>
        <pt x="730" y="538" on="0"/>
        <pt x="786" y="406" on="0"/>
        <pt x="786" y="330" on="1"/>
        <pt x="786" y="254" on="0"/>
        <pt x="730" y="121" on="0"/>
        <pt x="633" y="24" on="0"/>
        <pt x="501" y="-32" on="0"/>
      </contour>
      <contour>
        <pt x="426" y="2" on="1"/>
        <pt x="494" y="2" on="0"/>
        <pt x="611" y="53" on="0"/>
        <pt x="697" y="141" on="0"/>
        <pt x="747" y="261" on="0"/>
        <pt x="747" y="330" on="1"/>
        <pt x="747" y="398" on="0"/>
        <pt x="697" y="517" on="0"/>
        <pt x="611" y="605" on="0"/>
        <pt x="494" y="656" on="0"/>
        <pt x="426" y="656" on="1"/>
        <pt x="359" y="656" on="0"/>
        <pt x="242" y="605" on="0"/>
        <pt x="156" y="517" on="0"/>
        <pt x="106" y="398" on="0"/>
        <pt x="106" y="330" on="1"/>
        <pt x="106" y="261" on="0"/>
        <pt x="156" y="141" on="0"/>
        <pt x="242" y="53" on="0"/>
        <pt x="359" y="2" on="0"/>
      </contour>
      <contour>
        <pt x="428" y="143" on="1"/>
        <pt x="353" y="143" on="0"/>
        <pt x="257" y="251" on="0"/>
        <pt x="257" y="334" on="1"/>
        <pt x="257" y="374" on="0"/>
        <pt x="284" y="443" on="0"/>
        <pt x="331" y="493" on="0"/>
        <pt x="395" y="522" on="0"/>
        <pt x="430" y="522" on="1"/>
        <pt x="465" y="522" on="0"/>
        <pt x="516" y="497" on="0"/>
        <pt x="532" y="478" on="1"/>
        <pt x="543" y="521" on="1"/>
        <pt x="578" y="521" on="1"/>
        <pt x="578" y="385" on="1"/>
        <pt x="547" y="385" on="1"/>
        <pt x="530" y="434" on="0"/>
        <pt x="475" y="487" on="0"/>
        <pt x="433" y="487" on="1"/>
        <pt x="382" y="487" on="0"/>
        <pt x="319" y="409" on="0"/>
        <pt x="319" y="337" on="1"/>
        <pt x="319" y="262" on="0"/>
        <pt x="381" y="180" on="0"/>
        <pt x="437" y="180" on="1"/>
        <pt x="486" y="180" on="0"/>
        <pt x="541" y="243" on="0"/>
        <pt x="548" y="294" on="1"/>
        <pt x="584" y="294" on="1"/>
        <pt x="576" y="222" on="0"/>
        <pt x="492" y="143" on="0"/>
      </contour>
    </TTGlyph>
    <TTGlyph name="d" xMin="33" yMin="-9" xMax="528" yMax="687">
      <contour>
        <pt x="153" y="-9" on="1"/>
        <pt x="100" y="-9" on="0"/>
        <pt x="33" y="73" on="0"/>
        <pt x="33" y="142" on="1"/>
        <pt x="33" y="215" on="0"/>
        <pt x="87" y="344" on="0"/>
        <pt x="130" y="387" on="1"/>
        <pt x="162" y="419" on="0"/>
        <pt x="237" y="458" on="0"/>
        <pt x="274" y="458" on="1"/>
        <pt x="310" y="458" on="0"/>
        <pt x="360" y="419" on="0"/>
        <pt x="369" y="379" on="1"/>
        <pt x="438" y="633" on="1"/>
        <pt x="344" y="633" on="1"/>
        <pt x="359" y="687" on="1"/>
        <pt x="528" y="687" on="1"/>
        <pt x="386" y="162" on="1"/>
        <pt x="378" y="131" on="0"/>
        <pt x="371" y="94" on="0"/>
        <pt x="371" y="80" on="1"/>
        <pt x="371" y="70" on="0"/>
        <pt x="380" y="50" on="0"/>
        <pt x="395" y="50" on="1"/>
        <pt x="416" y="50" on="0"/>
        <pt x="452" y="110" on="0"/>
        <pt x="471" y="161" on="1"/>
        <pt x="506" y="150" on="1"/>
        <pt x="474" y="57" on="0"/>
        <pt x="408" y="-9" on="0"/>
        <pt x="374" y="-9" on="1"/>
        <pt x="346" y="-9" on="0"/>
        <pt x="305" y="31" on="0"/>
        <pt x="305" y="72" on="1"/>
        <pt x="305" y="79" on="0"/>
        <pt x="307" y="92" on="0"/>
        <pt x="308" y="97" on="1"/>
        <pt x="301" y="100" on="1"/>
        <pt x="270" y="48" on="0"/>
        <pt x="193" y="-9" on="0"/>
      </contour>
      <contour>
        <pt x="180" y="49" on="1"/>
        <pt x="213" y="49" on="0"/>
        <pt x="274" y="107" on="0"/>
        <pt x="320" y="190" on="0"/>
        <pt x="348" y="284" on="0"/>
        <pt x="348" y="321" on="1"/>
        <pt x="348" y="361" on="0"/>
        <pt x="315" y="413" on="0"/>
        <pt x="277" y="413" on="1"/>
        <pt x="241" y="413" on="0"/>
        <pt x="180" y="359" on="0"/>
        <pt x="137" y="280" on="0"/>
        <pt x="113" y="187" on="0"/>
        <pt x="113" y="148" on="1"/>
        <pt x="113" y="99" on="0"/>
        <pt x="149" y="49" on="0"/>
      </contour>
    </TTGlyph>
    <TTGlyph name="dagger" xMin="94" yMin="-102" xMax="531" yMax="700">
      <contour>
        <pt x="179" y="-100" on="1"/>
        <pt x="172" y="-99" on="0"/>
        <pt x="157" y="-37" on="0"/>
        <pt x="166" y="-1" on="1"/>
        <pt x="203" y="146" on="1"/>
        <pt x="293" y="427" on="1"/>
        <pt x="265" y="440" on="0"/>
        <pt x="209" y="454" on="0"/>
        <pt x="194" y="454" on="1"/>
        <pt x="192" y="454" on="0"/>
        <pt x="185" y="454" on="0"/>
        <pt x="182" y="453" on="1"/>
        <pt x="191" y="427" on="0"/>
        <pt x="164" y="379" on="0"/>
        <pt x="136" y="379" on="1"/>
        <pt x="120" y="379" on="0"/>
        <pt x="94" y="402" on="0"/>
        <pt x="94" y="423" on="1"/>
        <pt x="94" y="445" on="0"/>
        <pt x="133" y="492" on="0"/>
        <pt x="179" y="492" on="1"/>
        <pt x="206" y="492" on="0"/>
        <pt x="262" y="478" on="0"/>
        <pt x="302" y="461" on="1"/>
        <pt x="319" y="652" on="1"/>
        <pt x="333" y="671" on="1"/>
        <pt x="341" y="682" on="0"/>
        <pt x="360" y="700" on="0"/>
        <pt x="371" y="700" on="1"/>
        <pt x="388" y="700" on="0"/>
        <pt x="401" y="671" on="0"/>
        <pt x="404" y="652" on="1"/>
        <pt x="407" y="630" on="1"/>
        <pt x="331" y="449" on="1"/>
        <pt x="359" y="436" on="0"/>
        <pt x="416" y="422" on="0"/>
        <pt x="431" y="422" on="1"/>
        <pt x="433" y="422" on="0"/>
        <pt x="440" y="422" on="0"/>
        <pt x="443" y="423" on="1"/>
        <pt x="434" y="449" on="0"/>
        <pt x="462" y="497" on="0"/>
        <pt x="489" y="497" on="1"/>
        <pt x="505" y="497" on="0"/>
        <pt x="531" y="474" on="0"/>
        <pt x="531" y="453" on="1"/>
        <pt x="531" y="431" on="0"/>
        <pt x="492" y="384" on="0"/>
        <pt x="446" y="384" on="1"/>
        <pt x="419" y="384" on="0"/>
        <pt x="364" y="398" on="0"/>
        <pt x="324" y="415" on="1"/>
        <pt x="272" y="129" on="1"/>
        <pt x="235" y="-19" on="1"/>
        <pt x="227" y="-55" on="0"/>
        <pt x="186" y="-102" on="0"/>
      </contour>
    </TTGlyph>
    <TTGlyph name="daggerdbl" xMin="26" yMin="-101" xMax="531" yMax="700">
      <contour>
        <pt x="186" y="-101" on="1"/>
        <pt x="169" y="-101" on="0"/>
        <pt x="156" y="-72" on="0"/>
        <pt x="153" y="-53" on="1"/>
        <pt x="150" y="-31" on="1"/>
        <pt x="226" y="150" on="1"/>
        <pt x="198" y="163" on="0"/>
        <pt x="140" y="177" on="0"/>
        <pt x="127" y="177" on="1"/>
        <pt x="124" y="177" on="0"/>
        <pt x="117" y="177" on="0"/>
        <pt x="114" y="176" on="1"/>
        <pt x="123" y="150" on="0"/>
        <pt x="96" y="102" on="0"/>
        <pt x="68" y="102" on="1"/>
        <pt x="52" y="102" on="0"/>
        <pt x="26" y="125" on="0"/>
        <pt x="26" y="146" on="1"/>
        <pt x="26" y="168" on="0"/>
        <pt x="65" y="215" on="0"/>
        <pt x="111" y="215" on="1"/>
        <pt x="138" y="215" on="0"/>
        <pt x="192" y="201" on="0"/>
        <pt x="231" y="185" on="1"/>
        <pt x="246" y="310" on="1"/>
        <pt x="292" y="428" on="1"/>
        <pt x="265" y="440" on="0"/>
        <pt x="208" y="454" on="0"/>
        <pt x="195" y="454" on="1"/>
        <pt x="192" y="454" on="0"/>
        <pt x="185" y="454" on="0"/>
        <pt x="182" y="453" on="1"/>
        <pt x="191" y="427" on="0"/>
        <pt x="164" y="379" on="0"/>
        <pt x="136" y="379" on="1"/>
        <pt x="120" y="379" on="0"/>
        <pt x="94" y="402" on="0"/>
        <pt x="94" y="423" on="1"/>
        <pt x="94" y="445" on="0"/>
        <pt x="133" y="492" on="0"/>
        <pt x="179" y="492" on="1"/>
        <pt x="206" y="492" on="0"/>
        <pt x="262" y="478" on="0"/>
        <pt x="302" y="461" on="1"/>
        <pt x="319" y="652" on="1"/>
        <pt x="333" y="671" on="1"/>
        <pt x="341" y="682" on="0"/>
        <pt x="360" y="700" on="0"/>
        <pt x="371" y="700" on="1"/>
        <pt x="388" y="700" on="0"/>
        <pt x="401" y="671" on="0"/>
        <pt x="404" y="652" on="1"/>
        <pt x="407" y="630" on="1"/>
        <pt x="331" y="449" on="1"/>
        <pt x="359" y="436" on="0"/>
        <pt x="417" y="422" on="0"/>
        <pt x="430" y="422" on="1"/>
        <pt x="433" y="422" on="0"/>
        <pt x="440" y="422" on="0"/>
        <pt x="443" y="423" on="1"/>
        <pt x="434" y="449" on="0"/>
        <pt x="462" y="497" on="0"/>
        <pt x="489" y="497" on="1"/>
        <pt x="505" y="497" on="0"/>
        <pt x="531" y="474" on="0"/>
        <pt x="531" y="453" on="1"/>
        <pt x="531" y="431" on="0"/>
        <pt x="492" y="384" on="0"/>
        <pt x="446" y="384" on="1"/>
        <pt x="419" y="384" on="0"/>
        <pt x="365" y="398" on="0"/>
        <pt x="325" y="414" on="1"/>
        <pt x="311" y="289" on="1"/>
        <pt x="264" y="172" on="1"/>
        <pt x="292" y="159" on="0"/>
        <pt x="349" y="145" on="0"/>
        <pt x="362" y="145" on="1"/>
        <pt x="365" y="145" on="0"/>
        <pt x="372" y="145" on="0"/>
        <pt x="375" y="146" on="1"/>
        <pt x="366" y="172" on="0"/>
        <pt x="394" y="220" on="0"/>
        <pt x="421" y="220" on="1"/>
        <pt x="437" y="220" on="0"/>
        <pt x="463" y="197" on="0"/>
        <pt x="463" y="176" on="1"/>
        <pt x="463" y="154" on="0"/>
        <pt x="424" y="107" on="0"/>
        <pt x="378" y="107" on="1"/>
        <pt x="351" y="107" on="0"/>
        <pt x="296" y="121" on="0"/>
        <pt x="255" y="138" on="1"/>
        <pt x="238" y="-53" on="1"/>
        <pt x="225" y="-72" on="1"/>
        <pt x="216" y="-83" on="0"/>
        <pt x="197" y="-101" on="0"/>
      </contour>
    </TTGlyph>
    <TTGlyph name="dcaron" xMin="33" yMin="-9" xMax="680" yMax="751">
      <component glyphName="d" x="0" y="0" flags="0x204"/>
      <component glyphName="caron.alt" x="407" y="0" flags="0x4"/>
    </TTGlyph>
    <TTGlyph name="dcroat" xMin="33" yMin="-9" xMax="566" yMax="687">
      <contour>
        <pt x="153" y="-9" on="1"/>
        <pt x="100" y="-9" on="0"/>
        <pt x="33" y="73" on="0"/>
        <pt x="33" y="142" on="1"/>
        <pt x="33" y="215" on="0"/>
        <pt x="87" y="344" on="0"/>
        <pt x="130" y="387" on="1"/>
        <pt x="162" y="419" on="0"/>
        <pt x="237" y="458" on="0"/>
        <pt x="274" y="458" on="1"/>
        <pt x="314" y="458" on="0"/>
        <pt x="362" y="414" on="0"/>
        <pt x="369" y="379" on="1"/>
        <pt x="405" y="510" on="1"/>
        <pt x="279" y="510" on="1"/>
        <pt x="290" y="554" on="1"/>
        <pt x="417" y="554" on="1"/>
        <pt x="438" y="633" on="1"/>
        <pt x="344" y="633" on="1"/>
        <pt x="359" y="687" on="1"/>
        <pt x="528" y="687" on="1"/>
        <pt x="492" y="554" on="1"/>
        <pt x="566" y="554" on="1"/>
        <pt x="554" y="510" on="1"/>
        <pt x="480" y="510" on="1"/>
        <pt x="386" y="162" on="1"/>
        <pt x="378" y="131" on="0"/>
        <pt x="371" y="94" on="0"/>
        <pt x="371" y="80" on="1"/>
        <pt x="371" y="70" on="0"/>
        <pt x="380" y="50" on="0"/>
        <pt x="395" y="50" on="1"/>
        <pt x="416" y="50" on="0"/>
        <pt x="452" y="110" on="0"/>
        <pt x="471" y="161" on="1"/>
        <pt x="506" y="150" on="1"/>
        <pt x="474" y="57" on="0"/>
        <pt x="408" y="-9" on="0"/>
        <pt x="374" y="-9" on="1"/>
        <pt x="346" y="-9" on="0"/>
        <pt x="305" y="31" on="0"/>
        <pt x="305" y="72" on="1"/>
        <pt x="305" y="79" on="0"/>
        <pt x="307" y="92" on="0"/>
        <pt x="308" y="97" on="1"/>
        <pt x="301" y="100" on="1"/>
        <pt x="270" y="48" on="0"/>
        <pt x="193" y="-9" on="0"/>
      </contour>
      <contour>
        <pt x="180" y="49" on="1"/>
        <pt x="213" y="49" on="0"/>
        <pt x="274" y="107" on="0"/>
        <pt x="320" y="190" on="0"/>
        <pt x="348" y="284" on="0"/>
        <pt x="348" y="321" on="1"/>
        <pt x="348" y="361" on="0"/>
        <pt x="315" y="413" on="0"/>
        <pt x="277" y="413" on="1"/>
        <pt x="241" y="413" on="0"/>
        <pt x="180" y="359" on="0"/>
        <pt x="137" y="280" on="0"/>
        <pt x="113" y="187" on="0"/>
        <pt x="113" y="148" on="1"/>
        <pt x="113" y="99" on="0"/>
        <pt x="149" y="49" on="0"/>
      </contour>
    </TTGlyph>
    <TTGlyph name="degree" xMin="106" yMin="349" xMax="420" yMax="667">
      <contour>
        <pt x="245" y="349" on="1"/>
        <pt x="177" y="349" on="0"/>
        <pt x="106" y="430" on="0"/>
        <pt x="106" y="483" on="1"/>
        <pt x="106" y="519" on="0"/>
        <pt x="132" y="586" on="0"/>
        <pt x="178" y="636" on="0"/>
        <pt x="243" y="667" on="0"/>
        <pt x="281" y="667" on="1"/>
        <pt x="349" y="667" on="0"/>
        <pt x="420" y="586" on="0"/>
        <pt x="420" y="533" on="1"/>
        <pt x="420" y="498" on="0"/>
        <pt x="394" y="431" on="0"/>
        <pt x="348" y="380" on="0"/>
        <pt x="283" y="349" on="0"/>
      </contour>
      <contour>
        <pt x="247" y="394" on="1"/>
        <pt x="272" y="394" on="0"/>
        <pt x="314" y="418" on="0"/>
        <pt x="343" y="457" on="0"/>
        <pt x="359" y="509" on="0"/>
        <pt x="359" y="536" on="1"/>
        <pt x="359" y="577" on="0"/>
        <pt x="315" y="622" on="0"/>
        <pt x="279" y="622" on="1"/>
        <pt x="254" y="622" on="0"/>
        <pt x="212" y="598" on="0"/>
        <pt x="183" y="559" on="0"/>
        <pt x="167" y="507" on="0"/>
        <pt x="167" y="480" on="1"/>
        <pt x="167" y="439" on="0"/>
        <pt x="211" y="394" on="0"/>
      </contour>
    </TTGlyph>
    <TTGlyph name="degree.tab" xMin="148" yMin="300" xMax="521" yMax="667">
      <contour>
        <pt x="313" y="300" on="1"/>
        <pt x="235" y="300" on="0"/>
        <pt x="148" y="393" on="0"/>
        <pt x="148" y="456" on="1"/>
        <pt x="148" y="497" on="0"/>
        <pt x="179" y="574" on="0"/>
        <pt x="234" y="632" on="0"/>
        <pt x="310" y="667" on="0"/>
        <pt x="356" y="667" on="1"/>
        <pt x="434" y="667" on="0"/>
        <pt x="521" y="575" on="0"/>
        <pt x="521" y="512" on="1"/>
        <pt x="521" y="471" on="0"/>
        <pt x="490" y="394" on="0"/>
        <pt x="435" y="335" on="0"/>
        <pt x="359" y="300" on="0"/>
      </contour>
      <contour>
        <pt x="315" y="347" on="1"/>
        <pt x="348" y="347" on="0"/>
        <pt x="400" y="375" on="0"/>
        <pt x="437" y="422" on="0"/>
        <pt x="456" y="482" on="0"/>
        <pt x="456" y="513" on="1"/>
        <pt x="456" y="565" on="0"/>
        <pt x="399" y="621" on="0"/>
        <pt x="354" y="621" on="1"/>
        <pt x="321" y="621" on="0"/>
        <pt x="269" y="592" on="0"/>
        <pt x="232" y="546" on="0"/>
        <pt x="213" y="485" on="0"/>
        <pt x="213" y="454" on="1"/>
        <pt x="213" y="403" on="0"/>
        <pt x="269" y="347" on="0"/>
      </contour>
    </TTGlyph>
    <TTGlyph name="dieresis" xMin="123" yMin="551" xMax="396" yMax="662">
      <contour>
        <pt x="165" y="551" on="1"/>
        <pt x="146" y="551" on="0"/>
        <pt x="123" y="577" on="0"/>
        <pt x="123" y="598" on="1"/>
        <pt x="123" y="623" on="0"/>
        <pt x="154" y="662" on="0"/>
        <pt x="179" y="662" on="1"/>
        <pt x="198" y="662" on="0"/>
        <pt x="223" y="636" on="0"/>
        <pt x="223" y="615" on="1"/>
        <pt x="223" y="591" on="0"/>
        <pt x="190" y="551" on="0"/>
      </contour>
      <contour>
        <pt x="338" y="551" on="1"/>
        <pt x="319" y="551" on="0"/>
        <pt x="296" y="577" on="0"/>
        <pt x="296" y="598" on="1"/>
        <pt x="296" y="623" on="0"/>
        <pt x="327" y="662" on="0"/>
        <pt x="352" y="662" on="1"/>
        <pt x="372" y="662" on="0"/>
        <pt x="396" y="636" on="0"/>
        <pt x="396" y="615" on="1"/>
        <pt x="396" y="591" on="0"/>
        <pt x="363" y="551" on="0"/>
      </contour>
    </TTGlyph>
    <TTGlyph name="divide" xMin="65" yMin="104" xMax="493" yMax="523">
      <contour>
        <pt x="314" y="411" on="1"/>
        <pt x="294" y="411" on="0"/>
        <pt x="266" y="439" on="0"/>
        <pt x="266" y="463" on="1"/>
        <pt x="266" y="485" on="0"/>
        <pt x="296" y="523" on="0"/>
        <pt x="320" y="523" on="1"/>
        <pt x="340" y="523" on="0"/>
        <pt x="368" y="495" on="0"/>
        <pt x="368" y="471" on="1"/>
        <pt x="368" y="449" on="0"/>
        <pt x="339" y="411" on="0"/>
      </contour>
      <contour>
        <pt x="65" y="289" on="1"/>
        <pt x="77" y="338" on="1"/>
        <pt x="493" y="338" on="1"/>
        <pt x="482" y="289" on="1"/>
      </contour>
      <contour>
        <pt x="238" y="104" on="1"/>
        <pt x="218" y="104" on="0"/>
        <pt x="190" y="132" on="0"/>
        <pt x="190" y="156" on="1"/>
        <pt x="190" y="178" on="0"/>
        <pt x="219" y="217" on="0"/>
        <pt x="244" y="217" on="1"/>
        <pt x="264" y="217" on="0"/>
        <pt x="292" y="188" on="0"/>
        <pt x="292" y="164" on="1"/>
        <pt x="292" y="142" on="0"/>
        <pt x="263" y="104" on="0"/>
      </contour>
    </TTGlyph>
    <TTGlyph name="divide.osf" xMin="56" yMin="68" xMax="484" yMax="487">
      <contour>
        <pt x="305" y="375" on="1"/>
        <pt x="285" y="375" on="0"/>
        <pt x="257" y="403" on="0"/>
        <pt x="257" y="427" on="1"/>
        <pt x="257" y="449" on="0"/>
        <pt x="287" y="487" on="0"/>
        <pt x="311" y="487" on="1"/>
        <pt x="331" y="487" on="0"/>
        <pt x="359" y="459" on="0"/>
        <pt x="359" y="435" on="1"/>
        <pt x="359" y="413" on="0"/>
        <pt x="330" y="375" on="0"/>
      </contour>
      <contour>
        <pt x="56" y="253" on="1"/>
        <pt x="68" y="302" on="1"/>
        <pt x="484" y="302" on="1"/>
        <pt x="473" y="253" on="1"/>
      </contour>
      <contour>
        <pt x="229" y="68" on="1"/>
        <pt x="209" y="68" on="0"/>
        <pt x="181" y="96" on="0"/>
        <pt x="181" y="120" on="1"/>
        <pt x="181" y="142" on="0"/>
        <pt x="210" y="181" on="0"/>
        <pt x="235" y="181" on="1"/>
        <pt x="255" y="181" on="0"/>
        <pt x="283" y="152" on="0"/>
        <pt x="283" y="128" on="1"/>
        <pt x="283" y="106" on="0"/>
        <pt x="254" y="68" on="0"/>
      </contour>
    </TTGlyph>
    <TTGlyph name="divide.tab" xMin="78" yMin="104" xMax="506" yMax="523">
      <contour>
        <pt x="327" y="411" on="1"/>
        <pt x="307" y="411" on="0"/>
        <pt x="279" y="439" on="0"/>
        <pt x="279" y="463" on="1"/>
        <pt x="279" y="485" on="0"/>
        <pt x="309" y="523" on="0"/>
        <pt x="333" y="523" on="1"/>
        <pt x="353" y="523" on="0"/>
        <pt x="381" y="495" on="0"/>
        <pt x="381" y="471" on="1"/>
        <pt x="381" y="449" on="0"/>
        <pt x="352" y="411" on="0"/>
      </contour>
      <contour>
        <pt x="78" y="289" on="1"/>
        <pt x="89" y="338" on="1"/>
        <pt x="506" y="338" on="1"/>
        <pt x="495" y="289" on="1"/>
      </contour>
      <contour>
        <pt x="251" y="104" on="1"/>
        <pt x="231" y="104" on="0"/>
        <pt x="203" y="132" on="0"/>
        <pt x="203" y="156" on="1"/>
        <pt x="203" y="178" on="0"/>
        <pt x="232" y="217" on="0"/>
        <pt x="257" y="217" on="1"/>
        <pt x="277" y="217" on="0"/>
        <pt x="305" y="188" on="0"/>
        <pt x="305" y="164" on="1"/>
        <pt x="305" y="142" on="0"/>
        <pt x="275" y="104" on="0"/>
      </contour>
    </TTGlyph>
    <TTGlyph name="dollar" xMin="26" yMin="-85" xMax="537" yMax="700">
      <contour>
        <pt x="217" y="-85" on="1"/>
        <pt x="170" y="-77" on="1"/>
        <pt x="190" y="5" on="1"/>
        <pt x="121" y="18" on="0"/>
        <pt x="26" y="95" on="0"/>
        <pt x="26" y="141" on="1"/>
        <pt x="26" y="171" on="0"/>
        <pt x="62" y="217" on="0"/>
        <pt x="91" y="217" on="1"/>
        <pt x="113" y="217" on="0"/>
        <pt x="141" y="187" on="0"/>
        <pt x="141" y="168" on="1"/>
        <pt x="141" y="146" on="0"/>
        <pt x="114" y="113" on="0"/>
        <pt x="96" y="106" on="1"/>
        <pt x="105" y="89" on="0"/>
        <pt x="162" y="55" on="0"/>
        <pt x="201" y="47" on="1"/>
        <pt x="261" y="287" on="1"/>
        <pt x="196" y="319" on="0"/>
        <pt x="120" y="387" on="0"/>
        <pt x="120" y="442" on="1"/>
        <pt x="120" y="480" on="0"/>
        <pt x="153" y="548" on="0"/>
        <pt x="210" y="599" on="0"/>
        <pt x="291" y="629" on="0"/>
        <pt x="338" y="629" on="1"/>
        <pt x="339" y="629" on="0"/>
        <pt x="344" y="629" on="0"/>
        <pt x="345" y="629" on="1"/>
        <pt x="363" y="700" on="1"/>
        <pt x="410" y="692" on="1"/>
        <pt x="393" y="624" on="1"/>
        <pt x="460" y="611" on="0"/>
        <pt x="537" y="535" on="0"/>
        <pt x="537" y="498" on="1"/>
        <pt x="537" y="467" on="0"/>
        <pt x="502" y="424" on="0"/>
        <pt x="477" y="424" on="1"/>
        <pt x="454" y="424" on="0"/>
        <pt x="430" y="451" on="0"/>
        <pt x="430" y="468" on="1"/>
        <pt x="430" y="488" on="0"/>
        <pt x="455" y="520" on="0"/>
        <pt x="471" y="526" on="1"/>
        <pt x="460" y="545" on="0"/>
        <pt x="413" y="575" on="0"/>
        <pt x="383" y="582" on="1"/>
        <pt x="325" y="349" on="1"/>
        <pt x="393" y="316" on="0"/>
        <pt x="465" y="245" on="0"/>
        <pt x="465" y="190" on="1"/>
        <pt x="465" y="155" on="0"/>
        <pt x="437" y="86" on="0"/>
        <pt x="382" y="33" on="0"/>
        <pt x="301" y="0" on="0"/>
        <pt x="249" y="0" on="1"/>
        <pt x="246" y="0" on="0"/>
        <pt x="241" y="0" on="0"/>
        <pt x="238" y="0" on="1"/>
      </contour>
      <contour>
        <pt x="197" y="469" on="1"/>
        <pt x="197" y="438" on="0"/>
        <pt x="242" y="393" on="0"/>
        <pt x="281" y="372" on="1"/>
        <pt x="335" y="587" on="1"/>
        <pt x="301" y="587" on="0"/>
        <pt x="249" y="565" on="0"/>
        <pt x="215" y="531" on="0"/>
        <pt x="197" y="490" on="0"/>
      </contour>
      <contour>
        <pt x="392" y="161" on="1"/>
        <pt x="392" y="194" on="0"/>
        <pt x="347" y="243" on="0"/>
        <pt x="305" y="265" on="1"/>
        <pt x="249" y="42" on="1"/>
        <pt x="253" y="42" on="1"/>
        <pt x="316" y="42" on="0"/>
        <pt x="392" y="112" on="0"/>
      </contour>
    </TTGlyph>
    <TTGlyph name="dollar.osf" xMin="29" yMin="-83" xMax="510" yMax="625">
      <contour>
        <pt x="214" y="-83" on="1"/>
        <pt x="167" y="-75" on="1"/>
        <pt x="187" y="6" on="1"/>
        <pt x="121" y="19" on="0"/>
        <pt x="29" y="95" on="0"/>
        <pt x="29" y="141" on="1"/>
        <pt x="29" y="170" on="0"/>
        <pt x="65" y="216" on="0"/>
        <pt x="94" y="216" on="1"/>
        <pt x="116" y="216" on="0"/>
        <pt x="144" y="186" on="0"/>
        <pt x="144" y="167" on="1"/>
        <pt x="144" y="146" on="0"/>
        <pt x="117" y="112" on="0"/>
        <pt x="99" y="105" on="1"/>
        <pt x="108" y="89" on="0"/>
        <pt x="161" y="56" on="0"/>
        <pt x="198" y="48" on="1"/>
        <pt x="248" y="249" on="1"/>
        <pt x="186" y="276" on="0"/>
        <pt x="110" y="338" on="0"/>
        <pt x="110" y="387" on="1"/>
        <pt x="110" y="421" on="0"/>
        <pt x="142" y="482" on="0"/>
        <pt x="197" y="528" on="0"/>
        <pt x="273" y="555" on="0"/>
        <pt x="317" y="555" on="1"/>
        <pt x="319" y="555" on="0"/>
        <pt x="323" y="555" on="0"/>
        <pt x="324" y="555" on="1"/>
        <pt x="342" y="625" on="1"/>
        <pt x="389" y="617" on="1"/>
        <pt x="372" y="549" on="1"/>
        <pt x="435" y="536" on="0"/>
        <pt x="510" y="462" on="0"/>
        <pt x="510" y="425" on="1"/>
        <pt x="510" y="394" on="0"/>
        <pt x="475" y="351" on="0"/>
        <pt x="450" y="351" on="1"/>
        <pt x="427" y="351" on="0"/>
        <pt x="403" y="378" on="0"/>
        <pt x="403" y="395" on="1"/>
        <pt x="403" y="415" on="0"/>
        <pt x="428" y="447" on="0"/>
        <pt x="444" y="453" on="1"/>
        <pt x="434" y="472" on="0"/>
        <pt x="389" y="500" on="0"/>
        <pt x="362" y="507" on="1"/>
        <pt x="313" y="311" on="1"/>
        <pt x="376" y="284" on="0"/>
        <pt x="449" y="218" on="0"/>
        <pt x="449" y="168" on="1"/>
        <pt x="449" y="137" on="0"/>
        <pt x="422" y="76" on="0"/>
        <pt x="370" y="29" on="0"/>
        <pt x="294" y="0" on="0"/>
        <pt x="245" y="0" on="1"/>
        <pt x="243" y="0" on="0"/>
        <pt x="237" y="0" on="0"/>
        <pt x="235" y="0" on="1"/>
      </contour>
      <contour>
        <pt x="187" y="415" on="1"/>
        <pt x="187" y="390" on="0"/>
        <pt x="230" y="350" on="0"/>
        <pt x="268" y="331" on="1"/>
        <pt x="314" y="513" on="1"/>
        <pt x="254" y="512" on="0"/>
        <pt x="187" y="449" on="0"/>
      </contour>
      <contour>
        <pt x="376" y="138" on="1"/>
        <pt x="376" y="166" on="0"/>
        <pt x="332" y="210" on="0"/>
        <pt x="293" y="229" on="1"/>
        <pt x="246" y="42" on="1"/>
        <pt x="250" y="42" on="1"/>
        <pt x="306" y="42" on="0"/>
        <pt x="376" y="98" on="0"/>
      </contour>
    </TTGlyph>
    <TTGlyph name="dollar.tab" xMin="42" yMin="-85" xMax="537" yMax="700">
      <contour>
        <pt x="223" y="-85" on="1"/>
        <pt x="177" y="-77" on="1"/>
        <pt x="197" y="5" on="1"/>
        <pt x="134" y="17" on="0"/>
        <pt x="42" y="90" on="0"/>
        <pt x="42" y="141" on="1"/>
        <pt x="42" y="167" on="0"/>
        <pt x="73" y="215" on="0"/>
        <pt x="105" y="215" on="1"/>
        <pt x="124" y="215" on="0"/>
        <pt x="152" y="188" on="0"/>
        <pt x="152" y="166" on="1"/>
        <pt x="152" y="144" on="0"/>
        <pt x="127" y="111" on="0"/>
        <pt x="111" y="104" on="1"/>
        <pt x="121" y="88" on="0"/>
        <pt x="172" y="55" on="0"/>
        <pt x="209" y="47" on="1"/>
        <pt x="269" y="287" on="1"/>
        <pt x="206" y="319" on="0"/>
        <pt x="133" y="387" on="0"/>
        <pt x="133" y="442" on="1"/>
        <pt x="133" y="480" on="0"/>
        <pt x="166" y="548" on="0"/>
        <pt x="222" y="599" on="0"/>
        <pt x="300" y="629" on="0"/>
        <pt x="346" y="629" on="1"/>
        <pt x="347" y="629" on="0"/>
        <pt x="352" y="629" on="0"/>
        <pt x="353" y="629" on="1"/>
        <pt x="371" y="700" on="1"/>
        <pt x="417" y="692" on="1"/>
        <pt x="400" y="624" on="1"/>
        <pt x="463" y="611" on="0"/>
        <pt x="537" y="539" on="0"/>
        <pt x="537" y="499" on="1"/>
        <pt x="537" y="472" on="0"/>
        <pt x="507" y="426" on="0"/>
        <pt x="480" y="426" on="1"/>
        <pt x="458" y="426" on="0"/>
        <pt x="434" y="453" on="0"/>
        <pt x="434" y="471" on="1"/>
        <pt x="434" y="491" on="0"/>
        <pt x="457" y="522" on="0"/>
        <pt x="472" y="529" on="1"/>
        <pt x="462" y="548" on="0"/>
        <pt x="418" y="575" on="0"/>
        <pt x="390" y="582" on="1"/>
        <pt x="332" y="349" on="1"/>
        <pt x="398" y="316" on="0"/>
        <pt x="466" y="245" on="0"/>
        <pt x="465" y="190" on="1"/>
        <pt x="465" y="155" on="0"/>
        <pt x="437" y="86" on="0"/>
        <pt x="384" y="33" on="0"/>
        <pt x="305" y="0" on="0"/>
        <pt x="255" y="0" on="1"/>
        <pt x="252" y="0" on="0"/>
        <pt x="247" y="0" on="0"/>
        <pt x="244" y="0" on="1"/>
      </contour>
      <contour>
        <pt x="208" y="469" on="1"/>
        <pt x="207" y="438" on="0"/>
        <pt x="251" y="393" on="0"/>
        <pt x="289" y="371" on="1"/>
        <pt x="343" y="587" on="1"/>
        <pt x="310" y="587" on="0"/>
        <pt x="259" y="565" on="0"/>
        <pt x="226" y="531" on="0"/>
        <pt x="208" y="490" on="0"/>
      </contour>
      <contour>
        <pt x="395" y="161" on="1"/>
        <pt x="395" y="194" on="0"/>
        <pt x="351" y="243" on="0"/>
        <pt x="311" y="265" on="1"/>
        <pt x="256" y="42" on="1"/>
        <pt x="260" y="42" on="1"/>
        <pt x="321" y="42" on="0"/>
        <pt x="394" y="112" on="0"/>
      </contour>
    </TTGlyph>
    <TTGlyph name="dotaccent" xMin="138" yMin="531" xMax="242" yMax="643">
      <contour>
        <pt x="181" y="531" on="1"/>
        <pt x="164" y="531" on="0"/>
        <pt x="138" y="555" on="0"/>
        <pt x="138" y="577" on="1"/>
        <pt x="138" y="599" on="0"/>
        <pt x="169" y="643" on="0"/>
        <pt x="197" y="643" on="1"/>
        <pt x="216" y="643" on="0"/>
        <pt x="242" y="619" on="0"/>
        <pt x="242" y="597" on="1"/>
        <pt x="242" y="575" on="0"/>
        <pt x="209" y="531" on="0"/>
      </contour>
    </TTGlyph>
    <TTGlyph name="dotlessi" xMin="22" yMin="-9" xMax="291" yMax="458">
      <contour>
        <pt x="156" y="-9" on="1"/>
        <pt x="123" y="-9" on="0"/>
        <pt x="81" y="35" on="0"/>
        <pt x="81" y="77" on="1"/>
        <pt x="81" y="112" on="0"/>
        <pt x="109" y="193" on="0"/>
        <pt x="141" y="273" on="0"/>
        <pt x="168" y="349" on="0"/>
        <pt x="168" y="379" on="1"/>
        <pt x="168" y="389" on="0"/>
        <pt x="160" y="407" on="0"/>
        <pt x="149" y="407" on="1"/>
        <pt x="125" y="407" on="0"/>
        <pt x="80" y="340" on="0"/>
        <pt x="56" y="294" on="1"/>
        <pt x="22" y="310" on="1"/>
        <pt x="53" y="377" on="0"/>
        <pt x="122" y="458" on="0"/>
        <pt x="165" y="458" on="1"/>
        <pt x="199" y="458" on="0"/>
        <pt x="240" y="408" on="0"/>
        <pt x="240" y="362" on="1"/>
        <pt x="240" y="331" on="0"/>
        <pt x="214" y="252" on="0"/>
        <pt x="182" y="173" on="0"/>
        <pt x="156" y="101" on="0"/>
        <pt x="156" y="77" on="1"/>
        <pt x="156" y="67" on="0"/>
        <pt x="166" y="50" on="0"/>
        <pt x="179" y="50" on="1"/>
        <pt x="198" y="50" on="0"/>
        <pt x="235" y="107" on="0"/>
        <pt x="256" y="161" on="1"/>
        <pt x="291" y="150" on="1"/>
        <pt x="259" y="58" on="0"/>
        <pt x="191" y="-9" on="0"/>
      </contour>
    </TTGlyph>
    <TTGlyph name="dotmath" xMin="130" yMin="255" xMax="237" yMax="373">
      <component glyphName="period" x="119" y="270" flags="0x4"/>
    </TTGlyph>
    <TTGlyph name="dotmath.osf" xMin="123" yMin="222" xMax="230" yMax="340">
      <component glyphName="period" x="112" y="237" flags="0x4"/>
    </TTGlyph>
    <TTGlyph name="dotmath.tab" xMin="104" yMin="255" xMax="211" yMax="373">
      <component glyphName="period" x="93" y="270" flags="0x4"/>
    </TTGlyph>
    <TTGlyph name="e" xMin="31" yMin="-9" xMax="415" yMax="458">
      <contour>
        <pt x="184" y="-9" on="1"/>
        <pt x="117" y="-9" on="0"/>
        <pt x="31" y="81" on="0"/>
        <pt x="31" y="159" on="1"/>
        <pt x="31" y="216" on="0"/>
        <pt x="79" y="324" on="0"/>
        <pt x="156" y="407" on="0"/>
        <pt x="254" y="458" on="0"/>
        <pt x="303" y="458" on="1"/>
        <pt x="357" y="458" on="0"/>
        <pt x="415" y="405" on="0"/>
        <pt x="415" y="366" on="1"/>
        <pt x="415" y="300" on="0"/>
        <pt x="267" y="200" on="0"/>
        <pt x="113" y="184" on="1"/>
        <pt x="112" y="177" on="0"/>
        <pt x="111" y="162" on="0"/>
        <pt x="111" y="155" on="1"/>
        <pt x="111" y="95" on="0"/>
        <pt x="164" y="38" on="0"/>
        <pt x="205" y="38" on="1"/>
        <pt x="246" y="38" on="0"/>
        <pt x="320" y="92" on="0"/>
        <pt x="353" y="139" on="1"/>
        <pt x="384" y="119" on="1"/>
        <pt x="348" y="65" on="0"/>
        <pt x="253" y="-9" on="0"/>
      </contour>
      <contour>
        <pt x="288" y="418" on="1"/>
        <pt x="258" y="418" on="0"/>
        <pt x="204" y="382" on="0"/>
        <pt x="161" y="326" on="0"/>
        <pt x="129" y="256" on="0"/>
        <pt x="120" y="221" on="1"/>
        <pt x="247" y="238" on="0"/>
        <pt x="342" y="318" on="0"/>
        <pt x="342" y="364" on="1"/>
        <pt x="342" y="388" on="0"/>
        <pt x="313" y="418" on="0"/>
      </contour>
    </TTGlyph>
    <TTGlyph name="eacute" xMin="31" yMin="-9" xMax="459" yMax="723">
      <component glyphName="e" x="0" y="0" flags="0x204"/>
      <component glyphName="acute" x="137" y="0" flags="0x4"/>
    </TTGlyph>
    <TTGlyph name="ebreve" xMin="31" yMin="-9" xMax="467" yMax="684">
      <component glyphName="e" x="0" y="0" flags="0x204"/>
      <component glyphName="breve" x="54" y="0" flags="0x4"/>
    </TTGlyph>
    <TTGlyph name="ecaron" xMin="31" yMin="-9" xMax="470" yMax="718">
      <component glyphName="e" x="0" y="0" flags="0x204"/>
      <component glyphName="caron" x="66" y="0" flags="0x4"/>
    </TTGlyph>
    <TTGlyph name="ecircumflex" xMin="31" yMin="-9" xMax="425" yMax="709">
      <component glyphName="e" x="0" y="0" flags="0x204"/>
      <component glyphName="circumflex" x="69" y="0" flags="0x4"/>
    </TTGlyph>
    <TTGlyph name="edieresis" xMin="31" yMin="-9" xMax="458" yMax="662">
      <component glyphName="e" x="0" y="0" flags="0x204"/>
      <component glyphName="dieresis" x="62" y="0" flags="0x4"/>
    </TTGlyph>
    <TTGlyph name="edotaccent" xMin="31" yMin="-9" xMax="415" yMax="643">
      <component glyphName="e" x="0" y="0" flags="0x204"/>
      <component glyphName="dotaccent" x="133" y="0" flags="0x4"/>
    </TTGlyph>
    <TTGlyph name="egrave" xMin="31" yMin="-9" xMax="415" yMax="723">
      <component glyphName="e" x="0" y="0" flags="0x204"/>
      <component glyphName="grave" x="64" y="0" flags="0x4"/>
    </TTGlyph>
    <TTGlyph name="eight" xMin="37" yMin="-16" xMax="516" yMax="643">
      <contour>
        <pt x="241" y="-16" on="1"/>
        <pt x="145" y="-16" on="0"/>
        <pt x="37" y="81" on="0"/>
        <pt x="37" y="148" on="1"/>
        <pt x="37" y="202" on="0"/>
        <pt x="115" y="299" on="0"/>
        <pt x="202" y="321" on="1"/>
        <pt x="164" y="346" on="0"/>
        <pt x="120" y="416" on="0"/>
        <pt x="120" y="458" on="1"/>
        <pt x="120" y="493" on="0"/>
        <pt x="149" y="560" on="0"/>
        <pt x="204" y="611" on="0"/>
        <pt x="282" y="643" on="0"/>
        <pt x="331" y="643" on="1"/>
        <pt x="415" y="643" on="0"/>
        <pt x="516" y="555" on="0"/>
        <pt x="516" y="491" on="1"/>
        <pt x="516" y="433" on="0"/>
        <pt x="440" y="345" on="0"/>
        <pt x="371" y="323" on="1"/>
        <pt x="416" y="297" on="0"/>
        <pt x="469" y="228" on="0"/>
        <pt x="469" y="178" on="1"/>
        <pt x="469" y="138" on="0"/>
        <pt x="435" y="67" on="0"/>
        <pt x="375" y="15" on="0"/>
        <pt x="291" y="-16" on="0"/>
      </contour>
      <contour>
        <pt x="200" y="481" on="1"/>
        <pt x="200" y="435" on="0"/>
        <pt x="273" y="372" on="0"/>
        <pt x="330" y="344" on="1"/>
        <pt x="390" y="366" on="0"/>
        <pt x="447" y="446" on="0"/>
        <pt x="447" y="490" on="1"/>
        <pt x="447" y="536" on="0"/>
        <pt x="386" y="596" on="0"/>
        <pt x="329" y="596" on="1"/>
        <pt x="272" y="596" on="0"/>
        <pt x="200" y="527" on="0"/>
      </contour>
      <contour>
        <pt x="111" y="150" on="1"/>
        <pt x="111" y="102" on="0"/>
        <pt x="180" y="32" on="0"/>
        <pt x="246" y="32" on="1"/>
        <pt x="311" y="32" on="0"/>
        <pt x="389" y="105" on="0"/>
        <pt x="389" y="157" on="1"/>
        <pt x="389" y="200" on="0"/>
        <pt x="320" y="261" on="0"/>
        <pt x="242" y="298" on="1"/>
        <pt x="179" y="282" on="0"/>
        <pt x="111" y="204" on="0"/>
      </contour>
    </TTGlyph>
    <TTGlyph name="eight.den" xMin="29" yMin="-82" xMax="378" yMax="397">
      <component glyphName="eight.small" x="-17" y="-70" flags="0x4"/>
    </TTGlyph>
    <TTGlyph name="eight.inf" xMin="0" yMin="-197" xMax="349" yMax="282">
      <component glyphName="eight.small" x="-46" y="-185" flags="0x4"/>
    </TTGlyph>
    <TTGlyph name="eight.num" xMin="90" yMin="163" xMax="439" yMax="642">
      <component glyphName="eight.small" x="44" y="175" flags="0x4"/>
    </TTGlyph>
    <TTGlyph name="eight.osf" xMin="37" yMin="-16" xMax="504" yMax="631">
      <contour>
        <pt x="238" y="-16" on="1"/>
        <pt x="144" y="-16" on="0"/>
        <pt x="37" y="79" on="0"/>
        <pt x="37" y="145" on="1"/>
        <pt x="37" y="198" on="0"/>
        <pt x="112" y="293" on="0"/>
        <pt x="197" y="315" on="1"/>
        <pt x="161" y="339" on="0"/>
        <pt x="117" y="406" on="0"/>
        <pt x="117" y="449" on="1"/>
        <pt x="117" y="483" on="0"/>
        <pt x="146" y="549" on="0"/>
        <pt x="199" y="600" on="0"/>
        <pt x="276" y="631" on="0"/>
        <pt x="324" y="631" on="1"/>
        <pt x="406" y="631" on="0"/>
        <pt x="504" y="544" on="0"/>
        <pt x="504" y="481" on="1"/>
        <pt x="504" y="425" on="0"/>
        <pt x="431" y="340" on="0"/>
        <pt x="365" y="318" on="1"/>
        <pt x="410" y="292" on="0"/>
        <pt x="463" y="224" on="0"/>
        <pt x="463" y="175" on="1"/>
        <pt x="463" y="136" on="0"/>
        <pt x="429" y="66" on="0"/>
        <pt x="370" y="14" on="0"/>
        <pt x="287" y="-16" on="0"/>
      </contour>
      <contour>
        <pt x="197" y="471" on="1"/>
        <pt x="197" y="431" on="0"/>
        <pt x="261" y="370" on="0"/>
        <pt x="325" y="339" on="1"/>
        <pt x="382" y="360" on="0"/>
        <pt x="435" y="437" on="0"/>
        <pt x="435" y="480" on="1"/>
        <pt x="435" y="525" on="0"/>
        <pt x="376" y="584" on="0"/>
        <pt x="322" y="584" on="1"/>
        <pt x="266" y="584" on="0"/>
        <pt x="197" y="516" on="0"/>
      </contour>
      <contour>
        <pt x="111" y="147" on="1"/>
        <pt x="111" y="100" on="0"/>
        <pt x="179" y="32" on="0"/>
        <pt x="243" y="32" on="1"/>
        <pt x="306" y="32" on="0"/>
        <pt x="382" y="104" on="0"/>
        <pt x="382" y="155" on="1"/>
        <pt x="382" y="196" on="0"/>
        <pt x="314" y="256" on="0"/>
        <pt x="236" y="293" on="1"/>
        <pt x="176" y="276" on="0"/>
        <pt x="111" y="199" on="0"/>
      </contour>
    </TTGlyph>
    <TTGlyph name="eight.small" xMin="46" yMin="-12" xMax="395" yMax="467">
      <contour>
        <pt x="194" y="-12" on="1"/>
        <pt x="126" y="-12" on="0"/>
        <pt x="46" y="54" on="0"/>
        <pt x="46" y="103" on="1"/>
        <pt x="46" y="145" on="0"/>
        <pt x="106" y="213" on="0"/>
        <pt x="166" y="228" on="1"/>
        <pt x="142" y="243" on="0"/>
        <pt x="105" y="292" on="0"/>
        <pt x="105" y="329" on="1"/>
        <pt x="105" y="354" on="0"/>
        <pt x="126" y="404" on="0"/>
        <pt x="166" y="443" on="0"/>
        <pt x="223" y="467" on="0"/>
        <pt x="260" y="467" on="1"/>
        <pt x="323" y="467" on="0"/>
        <pt x="395" y="402" on="0"/>
        <pt x="395" y="356" on="1"/>
        <pt x="395" y="314" on="0"/>
        <pt x="339" y="251" on="0"/>
        <pt x="288" y="237" on="1"/>
        <pt x="317" y="221" on="0"/>
        <pt x="360" y="171" on="0"/>
        <pt x="360" y="131" on="1"/>
        <pt x="360" y="74" on="0"/>
        <pt x="269" y="-12" on="0"/>
      </contour>
      <contour>
        <pt x="174" y="350" on="1"/>
        <pt x="174" y="319" on="0"/>
        <pt x="217" y="277" on="0"/>
        <pt x="260" y="254" on="1"/>
        <pt x="299" y="270" on="0"/>
        <pt x="336" y="325" on="0"/>
        <pt x="336" y="355" on="1"/>
        <pt x="336" y="386" on="0"/>
        <pt x="297" y="428" on="0"/>
        <pt x="259" y="428" on="1"/>
        <pt x="220" y="428" on="0"/>
        <pt x="174" y="381" on="0"/>
      </contour>
      <contour>
        <pt x="109" y="107" on="1"/>
        <pt x="109" y="76" on="0"/>
        <pt x="154" y="28" on="0"/>
        <pt x="198" y="28" on="1"/>
        <pt x="241" y="28" on="0"/>
        <pt x="290" y="77" on="0"/>
        <pt x="290" y="112" on="1"/>
        <pt x="290" y="143" on="0"/>
        <pt x="242" y="186" on="0"/>
        <pt x="194" y="211" on="1"/>
        <pt x="154" y="198" on="0"/>
        <pt x="109" y="144" on="0"/>
      </contour>
    </TTGlyph>
    <TTGlyph name="eight.sup" xMin="108" yMin="238" xMax="457" yMax="717">
      <component glyphName="eight.small" x="62" y="250" flags="0x4"/>
    </TTGlyph>
    <TTGlyph name="eight.tab" xMin="53" yMin="-17" xMax="523" yMax="643">
      <contour>
        <pt x="252" y="-17" on="1"/>
        <pt x="205" y="-17" on="0"/>
        <pt x="131" y="9" on="0"/>
        <pt x="80" y="54" on="0"/>
        <pt x="53" y="114" on="0"/>
        <pt x="53" y="147" on="1"/>
        <pt x="53" y="201" on="0"/>
        <pt x="129" y="298" on="0"/>
        <pt x="216" y="320" on="1"/>
        <pt x="179" y="345" on="0"/>
        <pt x="135" y="415" on="0"/>
        <pt x="135" y="458" on="1"/>
        <pt x="135" y="493" on="0"/>
        <pt x="164" y="560" on="0"/>
        <pt x="217" y="611" on="0"/>
        <pt x="294" y="643" on="0"/>
        <pt x="342" y="643" on="1"/>
        <pt x="424" y="643" on="0"/>
        <pt x="523" y="555" on="0"/>
        <pt x="523" y="491" on="1"/>
        <pt x="523" y="433" on="0"/>
        <pt x="447" y="345" on="0"/>
        <pt x="378" y="323" on="1"/>
        <pt x="422" y="298" on="0"/>
        <pt x="476" y="229" on="0"/>
        <pt x="476" y="178" on="1"/>
        <pt x="476" y="138" on="0"/>
        <pt x="443" y="67" on="0"/>
        <pt x="384" y="14" on="0"/>
        <pt x="301" y="-17" on="0"/>
      </contour>
      <contour>
        <pt x="214" y="481" on="1"/>
        <pt x="214" y="438" on="0"/>
        <pt x="277" y="375" on="0"/>
        <pt x="339" y="344" on="1"/>
        <pt x="398" y="366" on="0"/>
        <pt x="455" y="445" on="0"/>
        <pt x="455" y="491" on="1"/>
        <pt x="455" y="536" on="0"/>
        <pt x="395" y="596" on="0"/>
        <pt x="340" y="596" on="1"/>
        <pt x="283" y="596" on="0"/>
        <pt x="214" y="527" on="0"/>
      </contour>
      <contour>
        <pt x="126" y="149" on="1"/>
        <pt x="126" y="101" on="0"/>
        <pt x="194" y="31" on="0"/>
        <pt x="257" y="31" on="1"/>
        <pt x="320" y="31" on="0"/>
        <pt x="396" y="104" on="0"/>
        <pt x="396" y="157" on="1"/>
        <pt x="396" y="199" on="0"/>
        <pt x="331" y="259" on="0"/>
        <pt x="255" y="298" on="1"/>
        <pt x="194" y="281" on="0"/>
        <pt x="126" y="203" on="0"/>
      </contour>
    </TTGlyph>
    <TTGlyph name="ellipsis" xMin="11" yMin="-15" xMax="537" yMax="103">
      <component glyphName="period" x="0" y="0" flags="0x4"/>
      <component glyphName="period" x="210" y="0" flags="0x4"/>
      <component glyphName="period" x="419" y="0" flags="0x4"/>
    </TTGlyph>
    <TTGlyph name="emacron" xMin="31" yMin="-9" xMax="453" yMax="609">
      <component glyphName="e" x="0" y="0" flags="0x204"/>
      <component glyphName="macron" x="68" y="0" flags="0x4"/>
    </TTGlyph>
    <TTGlyph name="emdash" xMin="52" yMin="211" xMax="746" yMax="268">
      <contour>
        <pt x="52" y="211" on="1"/>
        <pt x="66" y="268" on="1"/>
        <pt x="746" y="268" on="1"/>
        <pt x="732" y="211" on="1"/>
      </contour>
    </TTGlyph>
    <TTGlyph name="endash" xMin="52" yMin="211" xMax="496" yMax="268">
      <contour>
        <pt x="52" y="211" on="1"/>
        <pt x="66" y="268" on="1"/>
        <pt x="496" y="268" on="1"/>
        <pt x="482" y="211" on="1"/>
      </contour>
    </TTGlyph>
    <TTGlyph name="endash.tab" xMin="70" yMin="286" xMax="513" yMax="343">
      <contour>
        <pt x="70" y="286" on="1"/>
        <pt x="83" y="343" on="1"/>
        <pt x="513" y="343" on="1"/>
        <pt x="500" y="286" on="1"/>
      </contour>
    </TTGlyph>
    <TTGlyph name="eogonek" xMin="31" yMin="-238" xMax="415" yMax="458">
      <contour>
        <pt x="171" y="-238" on="1"/>
        <pt x="134" y="-238" on="0"/>
        <pt x="79" y="-196" on="0"/>
        <pt x="79" y="-157" on="1"/>
        <pt x="79" y="-120" on="0"/>
        <pt x="134" y="-54" on="0"/>
        <pt x="202" y="-8" on="1"/>
        <pt x="198" y="-9" on="0"/>
        <pt x="188" y="-9" on="0"/>
        <pt x="184" y="-9" on="1"/>
        <pt x="117" y="-9" on="0"/>
        <pt x="31" y="81" on="0"/>
        <pt x="31" y="159" on="1"/>
        <pt x="31" y="216" on="0"/>
        <pt x="79" y="324" on="0"/>
        <pt x="156" y="407" on="0"/>
        <pt x="254" y="458" on="0"/>
        <pt x="303" y="458" on="1"/>
        <pt x="357" y="458" on="0"/>
        <pt x="415" y="405" on="0"/>
        <pt x="415" y="366" on="1"/>
        <pt x="415" y="300" on="0"/>
        <pt x="267" y="200" on="0"/>
        <pt x="113" y="184" on="1"/>
        <pt x="112" y="177" on="0"/>
        <pt x="111" y="162" on="0"/>
        <pt x="111" y="155" on="1"/>
        <pt x="111" y="95" on="0"/>
        <pt x="164" y="38" on="0"/>
        <pt x="205" y="38" on="1"/>
        <pt x="246" y="38" on="0"/>
        <pt x="320" y="92" on="0"/>
        <pt x="353" y="139" on="1"/>
        <pt x="384" y="119" on="1"/>
        <pt x="363" y="88" on="0"/>
        <pt x="324" y="44" on="0"/>
        <pt x="296" y="22" on="1"/>
        <pt x="258" y="-6" on="1"/>
        <pt x="187" y="-60" on="0"/>
        <pt x="143" y="-123" on="0"/>
        <pt x="143" y="-148" on="1"/>
        <pt x="143" y="-167" on="0"/>
        <pt x="167" y="-193" on="0"/>
        <pt x="192" y="-193" on="1"/>
        <pt x="208" y="-193" on="0"/>
        <pt x="237" y="-181" on="0"/>
        <pt x="249" y="-174" on="1"/>
        <pt x="265" y="-203" on="1"/>
        <pt x="245" y="-219" on="0"/>
        <pt x="197" y="-238" on="0"/>
      </contour>
      <contour>
        <pt x="288" y="418" on="1"/>
        <pt x="258" y="418" on="0"/>
        <pt x="204" y="382" on="0"/>
        <pt x="161" y="326" on="0"/>
        <pt x="129" y="256" on="0"/>
        <pt x="120" y="221" on="1"/>
        <pt x="247" y="238" on="0"/>
        <pt x="342" y="318" on="0"/>
        <pt x="342" y="364" on="1"/>
        <pt x="342" y="388" on="0"/>
        <pt x="313" y="418" on="0"/>
      </contour>
    </TTGlyph>
    <TTGlyph name="equal" xMin="51" yMin="199" xMax="519" yMax="429">
      <contour>
        <pt x="96" y="380" on="1"/>
        <pt x="108" y="429" on="1"/>
        <pt x="519" y="429" on="1"/>
        <pt x="507" y="380" on="1"/>
      </contour>
      <contour>
        <pt x="51" y="199" on="1"/>
        <pt x="63" y="248" on="1"/>
        <pt x="474" y="248" on="1"/>
        <pt x="462" y="199" on="1"/>
      </contour>
    </TTGlyph>
    <TTGlyph name="equal.osf" xMin="42" yMin="163" xMax="510" yMax="393">
      <contour>
        <pt x="87" y="344" on="1"/>
        <pt x="99" y="393" on="1"/>
        <pt x="510" y="393" on="1"/>
        <pt x="498" y="344" on="1"/>
      </contour>
      <contour>
        <pt x="42" y="163" on="1"/>
        <pt x="54" y="212" on="1"/>
        <pt x="465" y="212" on="1"/>
        <pt x="453" y="163" on="1"/>
      </contour>
    </TTGlyph>
    <TTGlyph name="equal.tab" xMin="57" yMin="199" xMax="526" yMax="429">
      <contour>
        <pt x="103" y="380" on="1"/>
        <pt x="115" y="429" on="1"/>
        <pt x="526" y="429" on="1"/>
        <pt x="514" y="380" on="1"/>
      </contour>
      <contour>
        <pt x="57" y="199" on="1"/>
        <pt x="70" y="248" on="1"/>
        <pt x="481" y="248" on="1"/>
        <pt x="468" y="199" on="1"/>
      </contour>
    </TTGlyph>
    <TTGlyph name="eth" xMin="33" yMin="-9" xMax="501" yMax="678">
      <contour>
        <pt x="200" y="-9" on="1"/>
        <pt x="122" y="-9" on="0"/>
        <pt x="33" y="95" on="0"/>
        <pt x="33" y="176" on="1"/>
        <pt x="33" y="233" on="0"/>
        <pt x="73" y="335" on="0"/>
        <pt x="139" y="410" on="0"/>
        <pt x="224" y="453" on="0"/>
        <pt x="268" y="453" on="1"/>
        <pt x="317" y="453" on="0"/>
        <pt x="372" y="407" on="0"/>
        <pt x="383" y="379" on="1"/>
        <pt x="381" y="424" on="0"/>
        <pt x="362" y="510" on="0"/>
        <pt x="343" y="555" on="1"/>
        <pt x="221" y="512" on="1"/>
        <pt x="208" y="552" on="1"/>
        <pt x="326" y="593" on="1"/>
        <pt x="317" y="610" on="0"/>
        <pt x="296" y="646" on="0"/>
        <pt x="285" y="665" on="1"/>
        <pt x="339" y="678" on="1"/>
        <pt x="351" y="662" on="0"/>
        <pt x="372" y="629" on="0"/>
        <pt x="382" y="612" on="1"/>
        <pt x="488" y="649" on="1"/>
        <pt x="501" y="610" on="1"/>
        <pt x="402" y="575" on="1"/>
        <pt x="426" y="525" on="0"/>
        <pt x="454" y="409" on="0"/>
        <pt x="454" y="338" on="1"/>
        <pt x="454" y="267" on="0"/>
        <pt x="418" y="140" on="0"/>
        <pt x="352" y="46" on="0"/>
        <pt x="258" y="-9" on="0"/>
      </contour>
      <contour>
        <pt x="199" y="32" on="1"/>
        <pt x="239" y="32" on="0"/>
        <pt x="301" y="84" on="0"/>
        <pt x="343" y="162" on="0"/>
        <pt x="365" y="254" on="0"/>
        <pt x="365" y="294" on="1"/>
        <pt x="365" y="355" on="0"/>
        <pt x="313" y="409" on="0"/>
        <pt x="274" y="409" on="1"/>
        <pt x="236" y="409" on="0"/>
        <pt x="175" y="359" on="0"/>
        <pt x="134" y="281" on="0"/>
        <pt x="112" y="187" on="0"/>
        <pt x="112" y="144" on="1"/>
        <pt x="112" y="86" on="0"/>
        <pt x="162" y="32" on="0"/>
      </contour>
    </TTGlyph>
    <TTGlyph name="exclam" xMin="36" yMin="-15" xMax="285" yMax="679">
      <contour>
        <pt x="140" y="182" on="1"/>
        <pt x="108" y="189" on="1"/>
        <pt x="122" y="256" on="0"/>
        <pt x="143" y="389" on="0"/>
        <pt x="161" y="504" on="0"/>
        <pt x="176" y="598" on="0"/>
        <pt x="183" y="627" on="1"/>
        <pt x="189" y="653" on="0"/>
        <pt x="218" y="679" on="0"/>
        <pt x="237" y="679" on="1"/>
        <pt x="260" y="679" on="0"/>
        <pt x="285" y="653" on="0"/>
        <pt x="285" y="632" on="1"/>
        <pt x="285" y="610" on="0"/>
        <pt x="251" y="513" on="0"/>
        <pt x="217" y="417" on="1"/>
        <pt x="200" y="368" on="0"/>
        <pt x="162" y="253" on="0"/>
      </contour>
      <contour>
        <pt x="86" y="-15" on="1"/>
        <pt x="65" y="-15" on="0"/>
        <pt x="36" y="15" on="0"/>
        <pt x="36" y="40" on="1"/>
        <pt x="36" y="62" on="0"/>
        <pt x="67" y="103" on="0"/>
        <pt x="92" y="103" on="1"/>
        <pt x="114" y="103" on="0"/>
        <pt x="143" y="73" on="0"/>
        <pt x="143" y="48" on="1"/>
        <pt x="143" y="26" on="0"/>
        <pt x="112" y="-15" on="0"/>
      </contour>
    </TTGlyph>
    <TTGlyph name="exclamdown" xMin="37" yMin="-15" xMax="286" yMax="679">
      <contour>
        <pt x="236" y="679" on="1"/>
        <pt x="257" y="679" on="0"/>
        <pt x="286" y="649" on="0"/>
        <pt x="286" y="624" on="1"/>
        <pt x="286" y="602" on="0"/>
        <pt x="255" y="561" on="0"/>
        <pt x="230" y="561" on="1"/>
        <pt x="208" y="561" on="0"/>
        <pt x="179" y="591" on="0"/>
        <pt x="179" y="616" on="1"/>
        <pt x="179" y="638" on="0"/>
        <pt x="210" y="679" on="0"/>
      </contour>
      <contour>
        <pt x="182" y="482" on="1"/>
        <pt x="214" y="475" on="1"/>
        <pt x="200" y="408" on="0"/>
        <pt x="179" y="275" on="0"/>
        <pt x="161" y="160" on="0"/>
        <pt x="146" y="66" on="0"/>
        <pt x="139" y="37" on="1"/>
        <pt x="133" y="11" on="0"/>
        <pt x="104" y="-15" on="0"/>
        <pt x="85" y="-15" on="1"/>
        <pt x="62" y="-15" on="0"/>
        <pt x="37" y="11" on="0"/>
        <pt x="37" y="32" on="1"/>
        <pt x="37" y="54" on="0"/>
        <pt x="71" y="151" on="0"/>
        <pt x="105" y="247" on="1"/>
        <pt x="122" y="296" on="0"/>
        <pt x="160" y="411" on="0"/>
      </contour>
    </TTGlyph>
    <TTGlyph name="f" xMin="-92" yMin="-163" xMax="458" yMax="693">
      <contour>
        <pt x="-24" y="-163" on="1"/>
        <pt x="-59" y="-163" on="0"/>
        <pt x="-92" y="-130" on="0"/>
        <pt x="-92" y="-108" on="1"/>
        <pt x="-92" y="-86" on="0"/>
        <pt x="-64" y="-52" on="0"/>
        <pt x="-41" y="-52" on="1"/>
        <pt x="-21" y="-52" on="0"/>
        <pt x="-1" y="-77" on="0"/>
        <pt x="-1" y="-91" on="1"/>
        <pt x="-1" y="-101" on="0"/>
        <pt x="-8" y="-122" on="0"/>
        <pt x="-14" y="-128" on="1"/>
        <pt x="-1" y="-128" on="0"/>
        <pt x="19" y="-116" on="0"/>
        <pt x="37" y="-79" on="0"/>
        <pt x="56" y="-9" on="0"/>
        <pt x="68" y="47" on="1"/>
        <pt x="142" y="398" on="1"/>
        <pt x="44" y="398" on="1"/>
        <pt x="56" y="444" on="1"/>
        <pt x="151" y="444" on="1"/>
        <pt x="178" y="570" on="0"/>
        <pt x="288" y="691" on="0"/>
        <pt x="359" y="692" on="1"/>
        <pt x="408" y="693" on="0"/>
        <pt x="458" y="646" on="0"/>
        <pt x="458" y="618" on="1"/>
        <pt x="458" y="590" on="0"/>
        <pt x="426" y="547" on="0"/>
        <pt x="402" y="547" on="1"/>
        <pt x="383" y="547" on="0"/>
        <pt x="360" y="570" on="0"/>
        <pt x="360" y="590" on="1"/>
        <pt x="360" y="604" on="0"/>
        <pt x="372" y="635" on="0"/>
        <pt x="384" y="645" on="1"/>
        <pt x="380" y="649" on="0"/>
        <pt x="365" y="653" on="0"/>
        <pt x="355" y="653" on="1"/>
        <pt x="304" y="653" on="0"/>
        <pt x="253" y="559" on="0"/>
        <pt x="235" y="476" on="1"/>
        <pt x="228" y="444" on="1"/>
        <pt x="355" y="444" on="1"/>
        <pt x="342" y="398" on="1"/>
        <pt x="219" y="398" on="1"/>
        <pt x="151" y="75" on="1"/>
        <pt x="123" y="-61" on="0"/>
        <pt x="28" y="-163" on="0"/>
      </contour>
    </TTGlyph>
    <TTGlyph name="f_b" xMin="-92" yMin="-163" xMax="723" yMax="692">
      <contour>
        <pt x="-24" y="-163" on="1"/>
        <pt x="-59" y="-163" on="0"/>
        <pt x="-92" y="-130" on="0"/>
        <pt x="-92" y="-108" on="1"/>
        <pt x="-92" y="-86" on="0"/>
        <pt x="-64" y="-52" on="0"/>
        <pt x="-41" y="-52" on="1"/>
        <pt x="-21" y="-52" on="0"/>
        <pt x="-1" y="-77" on="0"/>
        <pt x="-1" y="-91" on="1"/>
        <pt x="-1" y="-101" on="0"/>
        <pt x="-8" y="-122" on="0"/>
        <pt x="-14" y="-128" on="1"/>
        <pt x="-1" y="-128" on="0"/>
        <pt x="19" y="-116" on="0"/>
        <pt x="37" y="-79" on="0"/>
        <pt x="56" y="-9" on="0"/>
        <pt x="68" y="47" on="1"/>
        <pt x="141" y="398" on="1"/>
        <pt x="44" y="398" on="1"/>
        <pt x="56" y="444" on="1"/>
        <pt x="151" y="444" on="1"/>
        <pt x="153" y="453" on="1"/>
        <pt x="176" y="563" on="0"/>
        <pt x="288" y="692" on="0"/>
        <pt x="369" y="692" on="1"/>
        <pt x="392" y="692" on="0"/>
        <pt x="429" y="682" on="0"/>
        <pt x="442" y="675" on="1"/>
        <pt x="544" y="692" on="1"/>
        <pt x="447" y="351" on="1"/>
        <pt x="454" y="348" on="1"/>
        <pt x="485" y="400" on="0"/>
        <pt x="561" y="458" on="0"/>
        <pt x="602" y="458" on="1"/>
        <pt x="656" y="458" on="0"/>
        <pt x="723" y="373" on="0"/>
        <pt x="723" y="304" on="1"/>
        <pt x="723" y="241" on="0"/>
        <pt x="678" y="127" on="0"/>
        <pt x="605" y="41" on="0"/>
        <pt x="515" y="-9" on="0"/>
        <pt x="470" y="-9" on="1"/>
        <pt x="406" y="-9" on="0"/>
        <pt x="328" y="69" on="0"/>
        <pt x="328" y="135" on="1"/>
        <pt x="328" y="168" on="0"/>
        <pt x="346" y="251" on="0"/>
        <pt x="356" y="288" on="1"/>
        <pt x="387" y="398" on="1"/>
        <pt x="218" y="398" on="1"/>
        <pt x="151" y="75" on="1"/>
        <pt x="122" y="-61" on="0"/>
        <pt x="28" y="-163" on="0"/>
      </contour>
      <contour>
        <pt x="231" y="458" on="1"/>
        <pt x="228" y="444" on="1"/>
        <pt x="399" y="444" on="1"/>
        <pt x="428" y="547" on="1"/>
        <pt x="410" y="548" on="0"/>
        <pt x="388" y="571" on="0"/>
        <pt x="388" y="590" on="1"/>
        <pt x="388" y="603" on="0"/>
        <pt x="399" y="629" on="0"/>
        <pt x="408" y="639" on="1"/>
        <pt x="404" y="642" on="0"/>
        <pt x="381" y="653" on="0"/>
        <pt x="364" y="653" on="1"/>
        <pt x="313" y="653" on="0"/>
        <pt x="253" y="562" on="0"/>
      </contour>
      <contour>
        <pt x="481" y="39" on="1"/>
        <pt x="517" y="39" on="0"/>
        <pt x="577" y="95" on="0"/>
        <pt x="620" y="176" on="0"/>
        <pt x="643" y="269" on="0"/>
        <pt x="643" y="306" on="1"/>
        <pt x="643" y="353" on="0"/>
        <pt x="609" y="402" on="0"/>
        <pt x="578" y="402" on="1"/>
        <pt x="545" y="402" on="0"/>
        <pt x="482" y="347" on="0"/>
        <pt x="435" y="267" on="0"/>
        <pt x="406" y="175" on="0"/>
        <pt x="406" y="138" on="1"/>
        <pt x="406" y="95" on="0"/>
        <pt x="441" y="39" on="0"/>
      </contour>
    </TTGlyph>
</ttFont>
